<?xml version="1.0" encoding="UTF-8" standalone="no"?>
<!-- Created with Inkscape (http://www.inkscape.org/) -->

<svg
   width="35.914043mm"
   height="35.136898mm"
   viewBox="0 0 35.914043 35.136899"
   version="1.1"
   id="svg5"
   xml:space="preserve"
   sodipodi:docname="molotov_cocktail.svg"
   inkscape:version="1.3 (0e150ed, 2023-07-21)"
   xmlns:inkscape="http://www.inkscape.org/namespaces/inkscape"
   xmlns:sodipodi="http://sodipodi.sourceforge.net/DTD/sodipodi-0.dtd"
   xmlns:xlink="http://www.w3.org/1999/xlink"
   xmlns="http://www.w3.org/2000/svg"
   xmlns:svg="http://www.w3.org/2000/svg"><sodipodi:namedview
     id="namedview7"
     pagecolor="#ffffff"
     bordercolor="#000000"
     borderopacity="0.25"
     inkscape:showpageshadow="2"
     inkscape:pageopacity="0.0"
     inkscape:pagecheckerboard="0"
     inkscape:deskcolor="#d1d1d1"
     inkscape:document-units="mm"
     showgrid="false"
     showguides="true"
     inkscape:zoom="1.7412728"
     inkscape:cx="41.63621"
     inkscape:cy="63.746473"
     inkscape:window-width="1312"
     inkscape:window-height="449"
     inkscape:window-x="0"
     inkscape:window-y="25"
     inkscape:window-maximized="0"
     inkscape:current-layer="layer1" /><defs
     id="defs2"><linearGradient
       inkscape:collect="always"
       id="linearGradient27266"><stop
         style="stop-color:#beb4a1;stop-opacity:1;"
         offset="0"
         id="stop27262" /><stop
         style="stop-color:#aa9d83;stop-opacity:1;"
         offset="0.30067569"
         id="stop27270" /><stop
         style="stop-color:#beb4a1;stop-opacity:1;"
         offset="0.65202701"
         id="stop27272" /><stop
         style="stop-color:#aa9d83;stop-opacity:1;"
         offset="1"
         id="stop27264" /></linearGradient><linearGradient
       inkscape:collect="always"
       id="linearGradient3644"><stop
         style="stop-color:#346d11;stop-opacity:1;"
         offset="0"
         id="stop3640" /><stop
         style="stop-color:#5c784e;stop-opacity:1;"
         offset="1"
         id="stop3642" /></linearGradient><linearGradient
       inkscape:collect="always"
       xlink:href="#linearGradient3644"
       id="linearGradient3646"
       x1="-128.69705"
       y1="184.28928"
       x2="-124.91331"
       y2="184.28928"
       gradientUnits="userSpaceOnUse"
       gradientTransform="matrix(0.99406653,0,0,0.99406653,-14.786452,-1.0013236)" /><clipPath
       id="b"><circle
         cy="-15"
         r="9.5"
         id="circle900"
         cx="0" /><circle
         cy="-15"
         r="9.5"
         transform="rotate(120)"
         id="circle902"
         cx="0" /><circle
         cy="-15"
         r="9.5"
         transform="rotate(-120)"
         id="circle904"
         cx="0" /></clipPath><mask
       id="a"
       width="60"
       height="60"
       x="-30"
       y="-30"
       maskUnits="userSpaceOnUse"><path
         fill="#ffffff"
         d="M -27,-27 H 27 V 27 H -27 Z"
         id="path907" /><path
         d="m 2,-23 v -4 h -4 v 4 m 1.5,17 v 4 h 1 v -4"
         id="path909" /><circle
         cy="-15"
         r="10.5"
         id="circle911"
         cx="0" /><g
         transform="rotate(120)"
         id="g917"><path
           d="m 2,-23 v -4 h -4 v 4 m 1.5,17 v 4 h 1 v -4"
           id="path913" /><circle
           cy="-15"
           r="10.5"
           id="circle915"
           cx="0" /></g><g
         transform="rotate(-120)"
         id="g923"><path
           d="m 2,-23 v -4 h -4 v 4 m 1.5,17 v 4 h 1 v -4"
           id="path919" /><circle
           cy="-15"
           r="10.5"
           id="circle921"
           cx="0" /></g><circle
         r="3"
         id="circle925"
         cx="0"
         cy="0" /></mask><filter
       inkscape:label="People"
       inkscape:menu="Overlays"
       inkscape:menu-tooltip="Colorized blotches, like a crowd of people"
       style="color-interpolation-filters:sRGB"
       id="filter19700"
       x="0"
       y="0"
       width="1"
       height="1"><feTurbulence
         result="result7"
         type="fractalNoise"
         numOctaves="3"
         baseFrequency="0.2 0.09"
         id="feTurbulence19686" /><feColorMatrix
         result="result5"
         values="1 0 0 0 0 0 1 0 0 0 0 0 1 0 0 0 0 0 5.5 -2 "
         id="feColorMatrix19688" /><feComposite
         result="result6"
         in="SourceGraphic"
         operator="in"
         in2="result7"
         id="feComposite19690" /><feDisplacementMap
         in="result5"
         xChannelSelector="R"
         yChannelSelector="A"
         scale="9"
         result="result4"
         in2="result6"
         id="feDisplacementMap19692" /><feComposite
         result="result2"
         operator="in"
         in2="result4"
         in="SourceGraphic"
         id="feComposite19694" /><feComposite
         in="result2"
         operator="in"
         in2="SourceGraphic"
         result="result91"
         id="feComposite19696" /><feBlend
         mode="multiply"
         in2="result91"
         id="feBlend19698" /></filter><linearGradient
       inkscape:collect="always"
       xlink:href="#linearGradient27266"
       id="linearGradient27268"
       x1="-127.50437"
       y1="180.01038"
       x2="-123.10899"
       y2="180.01038"
       gradientUnits="userSpaceOnUse" /><filter
       inkscape:label="Clouds"
       inkscape:menu="Overlays"
       inkscape:menu-tooltip="Airy, fluffy, sparse white clouds"
       style="color-interpolation-filters:sRGB"
       id="filter27736"
       x="0"
       y="0"
       width="1"
       height="1"><feTurbulence
         numOctaves="3"
         baseFrequency="0.040 0.107"
         type="fractalNoise"
         id="feTurbulence27726" /><feColorMatrix
         result="result0"
         values="1 0 0 0 0 0 1 0 0 0 0 0 1 0 0 0 0 0 5 -2.7"
         id="feColorMatrix27728" /><feFlood
         flood-opacity="1"
         flood-color="rgb(255,255,255)"
         id="feFlood27730" /><feComposite
         operator="in"
         in2="result0"
         id="feComposite27732" /><feComposite
         operator="atop"
         in2="SourceGraphic"
         id="feComposite27734" /></filter></defs><g
     inkscape:label="Layer 1"
     inkscape:groupmode="layer"
     id="layer1"
     transform="translate(141.08076,-200.10489)"><g
       id="g30335"
       transform="matrix(2.5302976,1.8233169,-1.8233169,2.5302976,562.52664,13.221018)"><path
         style="fill:url(#linearGradient27268);fill-opacity:1;stroke:none;stroke-width:0.0459999;stroke-linejoin:round;stroke-dasharray:none;stroke-opacity:1;filter:url(#filter27736)"
         d="m -127.50437,178.69039 c 0,0 0.54293,-0.70165 0.94265,-0.76584 0.73157,-0.11748 1.53355,0.2877 2.07735,0.79098 0.78797,0.72924 1.37538,2.91249 1.37538,2.91249 0,0 -0.42462,0.17668 -0.64841,0.17419 -0.19382,-0.002 -0.36905,-0.20611 -0.5581,-0.16333 -0.23298,0.0527 -0.5341,0.47776 -0.5341,0.47776 0,0 0.0823,-0.82639 0.0453,-1.23751 -0.0483,-0.53636 -0.0383,-1.13632 -0.34637,-1.57802 -0.21623,-0.31001 -0.95538,-0.61072 -0.95538,-0.61072 z"
         id="path19756"
         sodipodi:nodetypes="caacaacaacc"
         transform="matrix(0.99406653,0,0,0.99406653,-14.786452,-1.0013236)" /><g
         id="path2826"><path
           style="color:#000000;fill:url(#linearGradient3646);stroke-width:0.460274;stroke-linejoin:round"
           d="m -141.53427,176.6288 v 0.51781 h 0.15616 c 0,0 -0.11874,2.1198 -0.29588,2.92038 -0.0733,0.3309 -0.43004,0.51498 -0.57535,0.81369 -0.12257,0.25197 -0.24041,0.52529 -0.24041,0.80549 v 6.07396 h 1.65051 1.65051 v -6.07396 c 0,-0.2802 -0.11784,-0.55352 -0.2404,-0.80549 -0.14532,-0.29871 -0.50214,-0.48279 -0.57535,-0.81369 -0.17714,-0.80058 -0.29588,-2.92038 -0.29588,-2.92038 h 0.15615 v -0.51781 h -0.20547 -0.48956 -0.48956 z"
           id="path28397" /><path
           style="color:#000000;fill:#202020;stroke-linejoin:round"
           d="m -141.53516,176.39844 a 0.23016002,0.23016002 0 0 0 -0.22851,0.23047 v 0.51757 a 0.23016002,0.23016002 0 0 0 0.14062,0.14258 c -0.0128,0.20995 -0.12092,2.0304 -0.27539,2.72852 -0.0216,0.0973 -0.0943,0.19195 -0.20508,0.31054 -0.11078,0.1186 -0.25658,0.25193 -0.35351,0.45118 -0.12583,0.25866 -0.26367,0.56152 -0.26367,0.90625 v 6.07422 a 0.23016002,0.23016002 0 0 0 0.23047,0.23046 h 1.65039 1.65039 a 0.23016002,0.23016002 0 0 0 0.23047,-0.23046 v -6.07422 c 0,-0.34473 -0.13786,-0.64759 -0.26368,-0.90625 -0.0969,-0.19927 -0.24272,-0.33258 -0.35351,-0.45118 -0.1108,-0.11859 -0.18161,-0.2133 -0.20313,-0.31054 -0.15458,-0.69861 -0.26273,-2.52285 -0.27539,-2.73047 a 0.23016002,0.23016002 0 0 0 0.14063,-0.14063 v -0.51757 a 0.23016002,0.23016002 0 0 0 -0.23047,-0.23047 h -0.20508 -0.49023 -0.48828 z m 0.23047,0.46093 h 0.46485 0.46484 v 0.0898 a 0.23016002,0.23016002 0 0 0 -0.1543,0.21094 c 0,0 0.10982,2.09396 0.30078,2.95703 0.0517,0.23366 0.19416,0.39454 0.31641,0.52539 0.12225,0.13085 0.22701,0.23844 0.27539,0.33789 0.11931,0.24528 0.21875,0.4894 0.21875,0.70508 v 5.84375 h -1.42187 -1.41993 v -5.84375 c 0,-0.21568 0.0975,-0.4598 0.2168,-0.70508 0.0484,-0.0995 0.15511,-0.20705 0.27735,-0.33789 0.12223,-0.13085 0.26465,-0.29177 0.3164,-0.52539 0.19097,-0.86307 0.30078,-2.95703 0.30078,-2.95703 a 0.23016002,0.23016002 0 0 0 -0.15625,-0.22266 z"
           id="path28399" /></g><path
         style="opacity:0.35;fill:#ffffff;fill-opacity:1;stroke:none;stroke-width:0.263013;stroke-linejoin:round;stroke-dasharray:none;stroke-opacity:1"
         d="m -141.18707,180.01732 c 0,0 -0.008,0.34513 -0.0719,0.50172 -0.10659,0.26322 -0.23674,0.58335 -0.50002,0.68978 -0.0353,0.0142 -0.0894,0.0104 -0.11231,-0.0199 -0.0249,-0.0329 -0.004,-0.0854 0.0123,-0.12328 0.0886,-0.20389 0.32152,-0.31311 0.43972,-0.50138 0.10533,-0.16774 0.23213,-0.54696 0.23213,-0.54696 z"
         id="path10392"
         sodipodi:nodetypes="caaaaac" /><g
         id="g18931"
         style="opacity:0.75;filter:url(#filter19700)"
         transform="matrix(0.04618829,0,0,0.04618829,-141.02399,183.68017)"><g
           mask="url(#a)"
           id="g936"
           style="fill:#cccccc;fill-opacity:1;stroke:none;stroke-opacity:1"
           transform="matrix(0.97854222,0,0,0.97853768,4,4.6909786)"><circle
             cy="-11"
             r="15"
             id="circle930"
             style="fill:#cccccc;fill-opacity:1;stroke:none;stroke-opacity:1"
             cx="0" /><circle
             cy="-11"
             r="15"
             transform="rotate(120)"
             id="circle932"
             style="fill:#cccccc;fill-opacity:1;stroke:none;stroke-opacity:1"
             cx="0" /><circle
             cy="-11"
             r="15"
             transform="rotate(-120)"
             id="circle934"
             style="fill:#cccccc;fill-opacity:1;stroke:none;stroke-opacity:1"
             cx="0" /></g><circle
           r="11.75"
           fill="none"
           stroke="#000"
           stroke-width="3.5"
           clip-path="url(#b)"
           id="circle938"
           style="stroke:#b3b3b3;stroke-opacity:1"
           cx="0"
           cy="0"
           transform="matrix(0.97854222,0,0,0.97853768,4,4.6909786)" /></g></g></g></svg>
