<svg width="67" height="79" viewBox="0 0 67 79" fill="none" xmlns="http://www.w3.org/2000/svg">
<path d="M41.1525 7.54535C41.1525 7.54535 46.0838 5.52576 48.3559 6.39217C52.5143 7.97789 55.4694 12.4939 56.7869 16.745C58.6961 22.9047 55.1957 36.0258 55.1957 36.0258C55.1957 36.0258 52.4562 35.6699 51.2996 34.9849C50.2973 34.3925 49.9987 32.8045 48.8868 32.4593C47.5166 32.0339 44.6738 33.3407 44.6738 33.3407C44.6738 33.3407 47.5835 29.289 48.6256 27.0393C49.985 24.1041 51.8386 21.0132 51.5624 17.7903C51.3685 15.5283 48.4265 11.7444 48.4265 11.7444L41.1525 7.54535Z" fill="url(#paint0_linear_1756_281)" stroke="#1B1813" stroke-width="1.59999" stroke-miterlimit="3.99393"/>
<path d="M41.1514 7.54649L39.5872 10.2562L40.4043 10.7279C40.4043 10.7279 33.3794 21.4622 30.034 25.1166C28.6509 26.6267 26.228 26.5124 24.5652 27.6366C23.1626 28.5849 21.7204 29.6593 20.8739 31.1256L2.52554 62.9108L11.1627 67.8967L19.7998 72.8826L38.1481 41.0974C38.9946 39.6311 39.2036 37.8448 39.3234 36.156C39.4653 34.1539 38.1541 32.1126 38.7706 30.1599C40.262 25.4353 46.0443 13.9837 46.0443 13.9837L46.8614 14.4553L48.4256 11.7456L47.3503 11.1249L44.7885 9.64609L42.2266 8.1672L41.1514 7.54649Z" fill="url(#paint1_linear_1756_281)" stroke="#132806" stroke-width="3.19998" stroke-miterlimit="3.99393"/>
<path opacity="0.35" d="M32.7315 26.3283C32.7315 26.3283 31.6471 28.1103 30.8397 28.7367C29.4867 29.7921 27.8387 31.0742 26.1394 30.8358C25.9118 30.8035 25.6401 30.6202 25.6117 30.3924C25.5808 30.145 25.8488 29.9335 26.0486 29.7845C27.1281 28.9852 28.6769 29.1172 29.8642 28.489C30.9221 27.9294 32.7315 26.3283 32.7315 26.3283Z" fill="white"/>
<g opacity="0.75">
<path d="M19.8254 43.841C17.987 43.8409 16.4415 45.0931 15.9946 46.7912C16.4042 45.6992 17.4574 44.922 18.6928 44.9215C20.2302 44.9216 21.4862 46.1259 21.5691 47.6426L21.9437 47.6429C22.04 47.1478 22.5598 46.8604 23.0275 47.0174L23.2142 46.694C21.9414 45.8641 21.5262 44.1734 22.2948 42.8421C22.9133 41.7708 24.1158 41.2471 25.2677 41.4404C23.5731 40.9768 21.7138 41.6889 20.7943 43.2815C20.6783 43.4824 20.5821 43.6884 20.5049 43.8988C20.2842 43.8606 20.0572 43.8409 19.8254 43.841Z" fill="#D5E9C8"/>
<path d="M23.4889 46.8525C24.8439 47.5399 26.5158 47.0541 27.2844 45.7228C27.9029 44.6516 27.7552 43.3483 27.0119 42.4474C28.2606 43.6831 28.5736 45.6494 27.6541 47.242C27.5381 47.4429 27.4075 47.6298 27.2639 47.8019C27.407 47.9738 27.5372 48.1603 27.6528 48.3602C28.5727 49.9525 28.2599 51.9197 27.0112 53.1549C27.755 52.2542 27.9022 50.9507 27.2837 49.8799C26.515 48.5477 24.8431 48.0624 23.4878 48.7496L23.3006 48.4255C23.6817 48.0913 23.6555 47.5139 23.3018 47.1765L23.4889 46.8525Z" fill="#D5E9C8"/>
<path d="M25.2665 54.1622C24.1144 54.3561 22.9121 53.8317 22.2937 52.7608C21.5249 51.4286 21.9398 49.7389 23.213 48.9084L23.0258 48.5843C22.6591 48.7096 22.2403 48.5588 22.0395 48.2139C21.9927 48.1324 21.9613 48.0469 21.9442 47.9599L21.5692 47.9602C21.4876 49.4778 20.2306 50.6838 18.6926 50.6834C17.4591 50.6834 16.4064 49.9083 15.9958 48.8178C16.4445 50.5125 17.9895 51.7618 19.8253 51.762C20.0525 51.7624 20.2802 51.743 20.504 51.704C20.5811 51.9142 20.6775 52.1201 20.793 52.3207C21.7129 53.9131 23.572 54.626 25.2665 54.1622Z" fill="#D5E9C8"/>
</g>
<g opacity="0.75">
<path d="M25.1984 46.7782C25.5046 46.726 25.8 46.6173 26.0683 46.4563C25.472 44.9609 23.8647 44.0369 22.2662 44.2579C22.2607 44.5706 22.3142 44.8808 22.4215 45.1725C23.5841 45.0232 24.7518 45.6917 25.1984 46.7782Z" fill="#86A772"/>
<path d="M20.6497 46.1943C20.4538 45.9583 20.2068 45.7561 19.9338 45.6039C18.9398 46.8803 18.9491 48.7343 19.934 49.9978C20.2025 49.8499 20.4467 49.6507 20.6498 49.4058C19.9393 48.4763 19.9387 47.1272 20.6497 46.1943Z" fill="#86A772"/>
<path d="M22.2654 51.3422C22.2596 51.0351 22.31 50.7248 22.4205 50.4265C23.5823 50.5815 24.753 49.907 25.1945 48.8214C25.5032 48.8737 25.7935 48.9862 26.064 49.1424C25.4631 50.6605 23.8743 51.5748 22.2654 51.3422Z" fill="#86A772"/>
</g>
<defs>
<linearGradient id="paint0_linear_1756_281" x1="37.1887" y1="14.4119" x2="60.0533" y2="27.6108" gradientUnits="userSpaceOnUse">
<stop stop-color="#BEB4A1"/>
<stop offset="0.300676" stop-color="#AA9D83"/>
<stop offset="0.652027" stop-color="#BEB4A1"/>
<stop offset="1" stop-color="#AA9D83"/>
</linearGradient>
<linearGradient id="paint1_linear_1756_281" x1="18.1341" y1="33.0904" x2="37.817" y2="44.4525" gradientUnits="userSpaceOnUse">
<stop stop-color="#346D11"/>
<stop offset="1" stop-color="#5C784E"/>
</linearGradient>
</defs>
</svg>
