<?xml version="1.0" encoding="UTF-8" standalone="no"?>
<!-- Created with Inkscape (http://www.inkscape.org/) -->

<svg
   width="110"
   height="110"
   viewBox="0 0 110 110"
   version="1.1"
   id="svg1"
   xml:space="preserve"
   inkscape:version="1.2.2 (b0a8486541, 2022-12-01)"
   sodipodi:docname="P90.svg"
   xmlns:inkscape="http://www.inkscape.org/namespaces/inkscape"
   xmlns:sodipodi="http://sodipodi.sourceforge.net/DTD/sodipodi-0.dtd"
   xmlns="http://www.w3.org/2000/svg"
   xmlns:svg="http://www.w3.org/2000/svg"><sodipodi:namedview
     id="namedview1"
     pagecolor="#ffffff"
     bordercolor="#000000"
     borderopacity="0.25"
     inkscape:showpageshadow="2"
     inkscape:pageopacity="0.0"
     inkscape:pagecheckerboard="0"
     inkscape:deskcolor="#d1d1d1"
     inkscape:document-units="mm"
     showguides="false"
     inkscape:zoom="3.7745297"
     inkscape:cx="72.459359"
     inkscape:cy="47.158193"
     inkscape:window-width="1302"
     inkscape:window-height="699"
     inkscape:window-x="0"
     inkscape:window-y="0"
     inkscape:window-maximized="1"
     inkscape:current-layer="layer1"
     showgrid="false" /><defs
     id="defs1" /><g
     inkscape:label="Шар 1"
     inkscape:groupmode="layer"
     id="layer1"><g
       id="g305"
       inkscape:label="p90"
       transform="matrix(0.57935751,-0.33449223,0.33449223,0.57935751,-56.568928,2.9088555)"><path
         id="rect1"
         style="fill:#515662;fill-opacity:1;stroke:#30333b;stroke-width:2.11667;stroke-linecap:square;stroke-linejoin:bevel;stroke-miterlimit:0;stroke-dasharray:none;stroke-opacity:1"
         d="m 140.17361,110.42211 c 0,0 -0.54143,4.51531 -9.19117,7.23264 -1.56497,0.49163 -4.57078,0.18345 -4.57078,0.18345 -3.01501,5.35589 -5.13063,11.25144 -6.82801,17.3979 l -89.834823,-0.84077 c -0.617832,-0.006 -5.423372,-0.0545 -4.868085,3.68556 1.770517,11.92491 1.225543,23.27734 -0.285941,34.80477 -0.500392,3.81627 1.689123,5.49752 9.009088,5.52972 l 34.037716,0.14986 0.925525,-2.32906 3.612182,0.26459 19.232418,7.04453 1.098124,2.09703 c 0,0 15.398236,2.61554 26.995766,-5.35265 4.99974,-3.43502 7.13957,-8.1255 9.83764,-7.9716 2.5729,0.14675 5.49215,0.72139 6.76083,1.67225 1.84305,1.38122 -1.43296,9.51855 -1.11052,11.21998 0.25549,1.34874 2.33144,1.00559 3.52846,0.78342 0.52896,-0.0982 13.97548,2.9731 19.4045,-9.28161 2.37119,-5.35223 0.8355,-11.996 3.74293,-12.89637 1.27646,-0.39531 2.81201,-0.60933 4.88445,-0.47232 1.81524,0.12001 4.4554,1.14764 3.56723,7.3856 -0.1027,0.72116 1.52921,1.16928 3.60288,0.97978 2.07914,-0.19 2.24275,-18.57613 2.24275,-18.57613 0.0345,-0.0692 -0.35346,-7.80111 -0.35346,-7.80111 l -0.28939,-9.26403 c -0.17097,-5.93421 -0.74586,-12.5318 -2.21434,-18.28054 l -4.87618,0.0842 -1.35393,1.55236 -5.04,-3.71088 -0.66301,-4.95681 z m -14.70416,13.68168 10.10243,0.0631 -0.96526,4.13134 -8.98697,-0.89336 z m 9.45969,5.16213 15.38649,2.72594 c 4.24331,-0.27837 7.15476,1.5684 9.55075,3.13735 l -2.48917,-0.22332 -25.52135,0.30833 z m -31.48662,24.13893 c 3.11427,-0.0411 5.91515,0.28565 6.61458,0.41238 2.69967,0.48916 4.15326,4.65989 4.36873,8.18158 0.12356,2.01956 -0.49227,4.4491 -2.90938,5.27151 -4.41196,1.50114 -11.3749,5.65844 -15.014066,5.26291 -3.310903,-0.35985 -4.806722,-3.033 -6.061646,-6.90139 -0.340219,-1.04877 -0.424385,-8.46645 2.722315,-10.63156 1.952813,-1.34364 7.165187,-1.55431 10.279467,-1.59543 z m 38.72683,3.08525 c 0.39614,0.025 0.8263,0.0916 1.29398,0.20877 2.89493,0.72539 2.05195,1.76795 3.04168,2.90215 0.67174,0.76981 1.79875,0.53241 2.88768,2.5337 1.30098,2.39102 0.69757,4.25349 -0.40308,6.35207 -0.59026,1.20174 -1.94399,2.20907 -4.32067,2.41328 -2.39338,0.20564 -4.33151,-3.49797 -4.33151,-3.49797 l -3.1409,-0.21498 c -0.42366,0 -0.55227,-7.07745 0.33538,-8.11991 0.75181,-0.88293 1.86447,-2.75179 4.63744,-2.57711 z"
         sodipodi:nodetypes="cscccsscccccccsccscssssccccccccccccccccccccssssssssccsscsccsc" /><path
         id="rect18"
         style="fill:#3a3e46;fill-opacity:1;stroke:#30333b;stroke-width:1.05833;stroke-linecap:square;stroke-linejoin:bevel;stroke-miterlimit:0;stroke-dasharray:none;stroke-opacity:1"
         d="m 173.11785,145.38277 0.0656,7.96127 12.36824,-0.007 0.71055,-1.03508 2.11822,-0.017 0.66456,1.02836 4.26434,-0.009 c 1.78059,-1.6613 1.67385,-6.21725 0,-7.87549 l -8.13077,-0.0186 -0.59945,1.03818 -2.34973,-0.015 -0.52503,-1.03094 z m 11.06791,2.61197 5.09422,-2.4e-4 -0.0356,2.77571 -5.06009,-0.0284 z"
         sodipodi:nodetypes="cccccccccccccccccc" /><rect
         style="fill:#cdcecf;fill-opacity:1;stroke:#30333b;stroke-width:1.05833;stroke-linecap:square;stroke-linejoin:bevel;stroke-miterlimit:0;stroke-dasharray:none;stroke-opacity:1"
         id="rect19"
         width="2.5489402"
         height="9.0801239"
         x="179.13904"
         y="144.85184"
         rx="0.19749053"
         ry="0.32129508" /><rect
         style="fill:#a5a19b;fill-opacity:1;stroke:#30333b;stroke-width:1.05833;stroke-linecap:square;stroke-linejoin:bevel;stroke-miterlimit:0;stroke-dasharray:none;stroke-opacity:1"
         id="rect28"
         width="86.865433"
         height="7.7338958"
         x="76.300438"
         y="134.87602"
         rx="0.19749054"
         ry="0.32129508" /><path
         id="path20"
         style="fill:#3e434c;fill-opacity:1;stroke:#30333b;stroke-width:1.05833;stroke-linecap:square;stroke-linejoin:bevel;stroke-miterlimit:0;stroke-dasharray:none;stroke-opacity:1"
         d="m 70.832857,154.80996 c -0.07855,0.83102 -1.348039,0.58415 -1.703844,2.44184 l 0.11773,15.52587 -2.176702,5.08506 -36.683099,-0.24657 -1.189598,-4.86328 0.04957,-18.11641 z"
         sodipodi:nodetypes="cccccccc" /><path
         id="path20-2"
         style="fill:#454a54;fill-opacity:1;stroke:#30333b;stroke-width:1.05833;stroke-linecap:square;stroke-linejoin:bevel;stroke-miterlimit:0;stroke-dasharray:none;stroke-opacity:1"
         d="m 130.29816,153.0596 -0.0215,-4.73952 -8.14352,-0.1018 c -1.16594,-0.65096 -2.67846,0.31544 -3.34413,-2.67016 l -0.25187,-3.12472 -29.796827,-0.17915 -2.585324,2.28528 -0.05469,2.86983 -4.437505,0.77923 -4.080631,-0.97373 -0.111027,-10.98179 c -0.518142,-1.04289 -1.238972,-1.74797 -2.316896,-1.8579 l -44.884452,0.12536 -1.189598,3.8551 0.04957,14.36082 z"
         sodipodi:nodetypes="cccccccccccccccc" /><rect
         style="fill:#3a3e46;fill-opacity:1;stroke:#30333b;stroke-width:1.05833;stroke-linecap:square;stroke-linejoin:bevel;stroke-miterlimit:0;stroke-dasharray:none;stroke-opacity:1"
         id="rect20"
         width="5.6077628"
         height="7.7807708"
         x="137.39018"
         y="120.98749"
         rx="0.19749054"
         ry="0.32129508" /><rect
         style="fill:#30333b;fill-opacity:1;stroke:#252323;stroke-width:0;stroke-linecap:square;stroke-linejoin:bevel;stroke-miterlimit:0"
         id="rect20-9"
         width="1.8926204"
         height="7.7807713"
         x="144.35873"
         y="120.99639"
         rx="0.19749054"
         ry="0.32129508" /><rect
         style="fill:#30333b;fill-opacity:1;stroke:#252323;stroke-width:0;stroke-linecap:square;stroke-linejoin:bevel;stroke-miterlimit:0"
         id="rect20-9-4"
         width="1.8926204"
         height="7.7807713"
         x="147.68288"
         y="121.13658"
         rx="0.19749054"
         ry="0.32129508" /><rect
         style="fill:#30333b;fill-opacity:1;stroke:#252323;stroke-width:0;stroke-linecap:square;stroke-linejoin:bevel;stroke-miterlimit:0"
         id="rect20-9-3"
         width="1.8926204"
         height="7.7807713"
         x="150.97743"
         y="121.13658"
         rx="0.19749054"
         ry="0.32129508" /><rect
         style="fill:#30333b;fill-opacity:1;stroke:#252323;stroke-width:0;stroke-linecap:square;stroke-linejoin:bevel;stroke-miterlimit:0"
         id="rect20-9-39"
         width="1.8926204"
         height="7.7807713"
         x="154.2019"
         y="121.13658"
         rx="0.19749054"
         ry="0.32129508" /><ellipse
         style="fill:#30333b;fill-opacity:1;stroke:#252323;stroke-width:0;stroke-linecap:square;stroke-linejoin:bevel;stroke-miterlimit:0"
         id="path21"
         cx="140.19408"
         cy="124.87787"
         rx="1.6823287"
         ry="1.7874744" /><rect
         style="fill:#3a3e46;fill-opacity:1;stroke:#30333b;stroke-width:1.05833;stroke-linecap:square;stroke-linejoin:bevel;stroke-miterlimit:0;stroke-dasharray:none;stroke-opacity:1"
         id="rect20-8"
         width="5.6077628"
         height="7.7807708"
         x="157.46689"
         y="121.13658"
         rx="0.19749054"
         ry="0.32129508" /><ellipse
         style="fill:#30333b;fill-opacity:1;stroke:#252323;stroke-width:0;stroke-linecap:square;stroke-linejoin:bevel;stroke-miterlimit:0"
         id="path21-4"
         cx="160.41096"
         cy="125.02696"
         rx="1.6823287"
         ry="1.7874744" /><path
         id="path22"
         style="fill:#3a3e46;fill-opacity:1;stroke:#30333b;stroke-width:1.05833;stroke-linecap:square;stroke-linejoin:bevel;stroke-miterlimit:0;stroke-dasharray:none;stroke-opacity:1"
         d="m 135.35737,121.37302 0.69497,3.29353 -11.2145,-0.29143 1.93265,-3.10728 z"
         sodipodi:nodetypes="ccccc" /><rect
         style="fill:#3a3e46;fill-opacity:1;stroke:#30333b;stroke-width:1.05833;stroke-linecap:square;stroke-linejoin:bevel;stroke-miterlimit:0;stroke-dasharray:none;stroke-opacity:1"
         id="rect22"
         width="9.2528057"
         height="7.7106714"
         x="165.63928"
         y="135.77795"
         rx="0.19749053"
         ry="0.32129508" /><ellipse
         style="fill:#3a3e46;fill-opacity:1;stroke:#30333b;stroke-width:1.05833;stroke-linecap:square;stroke-linejoin:bevel;stroke-miterlimit:0;stroke-dasharray:none;stroke-opacity:1"
         id="path23"
         cx="167.77724"
         cy="124.14185"
         rx="3.9604824"
         ry="3.9955308" /><rect
         style="fill:#b2afa4;fill-opacity:1;stroke:#30333b;stroke-width:1.05833;stroke-linecap:square;stroke-linejoin:bevel;stroke-miterlimit:0;stroke-dasharray:none;stroke-opacity:1"
         id="rect23"
         width="26.777067"
         height="3.6450458"
         x="130.31038"
         y="148.67581"
         rx="0.19749054"
         ry="0.32129508" /><rect
         style="fill:#cdcecf;fill-opacity:1;stroke:#30333b;stroke-width:1.05833;stroke-linecap:square;stroke-linejoin:bevel;stroke-miterlimit:0;stroke-dasharray:none;stroke-opacity:1"
         id="rect25"
         width="7.6405764"
         height="4.6264043"
         x="165.429"
         y="148.32532"
         rx="0.19749054"
         ry="0.32129508" /><ellipse
         style="fill:#cdcecf;fill-opacity:1;stroke:#30333b;stroke-width:1.05833;stroke-linecap:square;stroke-linejoin:bevel;stroke-miterlimit:0;stroke-dasharray:none;stroke-opacity:1"
         id="path25"
         cx="164.2023"
         cy="150.53339"
         rx="4.5968852"
         ry="5.0174665" /><rect
         style="fill:#cdcecf;fill-opacity:1;stroke:#30333b;stroke-width:1.05833;stroke-linecap:square;stroke-linejoin:bevel;stroke-miterlimit:0;stroke-dasharray:none;stroke-opacity:1"
         id="rect24"
         width="9.4631004"
         height="5.4675689"
         x="156.50952"
         y="147.92755"
         rx="0.19749054"
         ry="0.32129508" /><rect
         style="fill:#515662;fill-opacity:1;stroke:#30333b;stroke-width:1.05833;stroke-linecap:square;stroke-linejoin:bevel;stroke-miterlimit:0;stroke-dasharray:none;stroke-opacity:1"
         id="rect26"
         width="7.7807708"
         height="3.0141723"
         x="132.06281"
         y="166.76085"
         rx="0.19749054"
         ry="0.32129508" /><path
         id="path26"
         style="fill:#9c9b9d;fill-opacity:1;stroke:#30333b;stroke-width:1.05833;stroke-linecap:square;stroke-linejoin:bevel;stroke-miterlimit:0;stroke-dasharray:none;stroke-opacity:1"
         d="m 137.24999,166.93608 -5.60776,0.035 c 0,0 -2.81419,-3.34146 -1.82253,-6.69426 2.25765,-7.63315 12.61747,-4.17078 12.61747,-4.17078 -4.74522,0.26705 -6.53787,4.39652 -5.18718,10.82999 z"
         sodipodi:nodetypes="ccsccc" /><ellipse
         style="fill:#30333b;fill-opacity:1;stroke:#252323;stroke-width:0;stroke-linecap:square;stroke-linejoin:bevel;stroke-miterlimit:0"
         id="path27"
         cx="120.84504"
         cy="159.49396"
         rx="1.7843791"
         ry="1.8339452" /><ellipse
         style="fill:#30333b;fill-opacity:1;stroke:#252323;stroke-width:0;stroke-linecap:square;stroke-linejoin:bevel;stroke-miterlimit:0"
         id="path27-8"
         cx="113.93851"
         cy="176.8549"
         rx="1.7843791"
         ry="1.8339452" /><ellipse
         style="fill:#30333b;fill-opacity:1;stroke:#252323;stroke-width:0;stroke-linecap:square;stroke-linejoin:bevel;stroke-miterlimit:0"
         id="path27-3"
         cx="94.508606"
         cy="178.83754"
         rx="1.7843791"
         ry="1.8339452" /><ellipse
         style="fill:#30333b;fill-opacity:1;stroke:#252323;stroke-width:0;stroke-linecap:square;stroke-linejoin:bevel;stroke-miterlimit:0"
         id="path27-3-2"
         cx="52.033634"
         cy="142.54131"
         rx="1.7843791"
         ry="1.8339452" /><ellipse
         style="fill:#30333b;fill-opacity:1;stroke:#252323;stroke-width:0;stroke-linecap:square;stroke-linejoin:bevel;stroke-miterlimit:0"
         id="path27-3-2-0"
         cx="32.40546"
         cy="144.72223"
         rx="1.7843791"
         ry="1.8339452" /><ellipse
         style="fill:#30333b;fill-opacity:1;stroke:#252323;stroke-width:0;stroke-linecap:square;stroke-linejoin:bevel;stroke-miterlimit:0"
         id="path27-3-2-4"
         cx="66.011261"
         cy="171.09138"
         rx="1.7843791"
         ry="1.8339452" /><ellipse
         style="fill:#30333b;fill-opacity:1;stroke:#252323;stroke-width:0;stroke-linecap:square;stroke-linejoin:bevel;stroke-miterlimit:0"
         id="path27-3-2-1"
         cx="43.309998"
         cy="173.86708"
         rx="1.7843791"
         ry="1.8339452" /><ellipse
         style="fill:#30333b;fill-opacity:1;stroke:#252323;stroke-width:0;stroke-linecap:square;stroke-linejoin:bevel;stroke-miterlimit:0"
         id="path27-1"
         cx="144.96689"
         cy="179.03581"
         rx="1.7843791"
         ry="1.8339452" /><ellipse
         style="fill:#30333b;fill-opacity:1;stroke:#252323;stroke-width:0;stroke-linecap:square;stroke-linejoin:bevel;stroke-miterlimit:0"
         id="path27-15"
         cx="157.9532"
         cy="159.20937"
         rx="1.7843791"
         ry="1.8339452" /><ellipse
         style="fill:#30333b;fill-opacity:1;stroke:#252323;stroke-width:0;stroke-linecap:square;stroke-linejoin:bevel;stroke-miterlimit:0"
         id="path27-5"
         cx="172.68527"
         cy="159.20937"
         rx="1.7843791"
         ry="1.8339452" /><path
         id="path28"
         style="fill:#9c9b9d;fill-opacity:1;stroke:#30333b;stroke-width:1.05833;stroke-linecap:square;stroke-linejoin:bevel;stroke-miterlimit:0;stroke-dasharray:none;stroke-opacity:1"
         d="m 130.06417,148.42855 c 0,0 -6.80012,0.0359 -9.64711,0.0359 -2.847,0 -2.65777,-4.53203 -2.50383,-6.9252 0.14727,-2.28979 2.27123,-14.25807 5.47067,-13.88513 l 11.68792,1.36238 c -3.07241,6.33411 -5.88258,12.24553 -5.00765,19.41208 z"
         sodipodi:nodetypes="csssccc" /><path
         id="path29"
         style="fill:#9c9b9d;fill-opacity:1;stroke:#30333b;stroke-width:1.05833;stroke-linecap:square;stroke-linejoin:bevel;stroke-miterlimit:0;stroke-dasharray:none"
         d="m 162.26768,119.41334 -16.64656,0.0469 -14.82401,-2.18596 c 5.30704,-1.2474 7.0786,-3.76878 9.26636,-6.92254 l 21.1611,0.22197 z"
         sodipodi:nodetypes="cccccc" /><rect
         style="fill:#9c9b9d;fill-opacity:1;stroke:#30333b;stroke-width:1.05833;stroke-linecap:square;stroke-linejoin:bevel;stroke-miterlimit:0;stroke-dasharray:none;stroke-opacity:1"
         id="rect29"
         width="9.826683"
         height="4.0770168"
         x="67.654335"
         y="138.17426"
         rx="0.19749054"
         ry="0.32129508" /></g></g></svg>
