<?xml version="1.0" encoding="UTF-8" standalone="no"?>
<svg
   width="110"
   height="110"
   viewBox="0 0 110 110"
   fill="none"
   version="1.1"
   id="svg143"
   sodipodi:docname="stoner_63 copy.svg"
   inkscape:version="1.3.2 (091e20e, 2023-11-25)"
   xmlns:inkscape="http://www.inkscape.org/namespaces/inkscape"
   xmlns:sodipodi="http://sodipodi.sourceforge.net/DTD/sodipodi-0.dtd"
   xmlns="http://www.w3.org/2000/svg"
   xmlns:svg="http://www.w3.org/2000/svg">
  <sodipodi:namedview
     id="namedview145"
     pagecolor="#505050"
     bordercolor="#ffffff"
     borderopacity="1"
     inkscape:pageshadow="0"
     inkscape:pageopacity="0"
     inkscape:pagecheckerboard="1"
     showgrid="false"
     inkscape:zoom="2.9045061"
     inkscape:cx="29.437019"
     inkscape:cy="33.740676"
     inkscape:window-width="1312"
     inkscape:window-height="449"
     inkscape:window-x="0"
     inkscape:window-y="25"
     inkscape:window-maximized="0"
     inkscape:current-layer="svg143"
     inkscape:showpageshadow="2"
     inkscape:deskcolor="#d1d1d1" />
  <defs
     id="defs141">
    <clipPath
       id="clip0_716_1748">
      <rect
         width="110"
         height="110"
         fill="#ffffff"
         transform="translate(0.0859375)"
         id="rect138"
         x="0"
         y="0" />
    </clipPath>
  </defs>
  <rect
     style="fill:#4d4d4d;fill-opacity:1;fill-rule:evenodd;stroke:#3b3b3b;stroke-width:0.629036;stroke-linecap:square;stroke-linejoin:round;stroke-dasharray:none;stroke-opacity:1"
     id="rect30"
     width="1.086876"
     height="10.492535"
     x="-4.8351474"
     y="53.25325"
     transform="rotate(-30)" />
  <path
     style="fill:none;fill-opacity:1;fill-rule:evenodd;stroke:#3e3e3e;stroke-width:0.629036;stroke-linecap:round;stroke-linejoin:round;stroke-dasharray:none;stroke-opacity:1"
     d="m 42.784659,61.336941 c 0.508388,1.268968 -0.422666,3.178552 2.240278,3.488662"
     id="path33"
     sodipodi:nodetypes="cc" />
  <rect
     style="fill:#4d4d4d;fill-opacity:1;fill-rule:evenodd;stroke:#3b3b3b;stroke-width:0.629036;stroke-linecap:square;stroke-linejoin:round;stroke-dasharray:none;stroke-opacity:1"
     id="rect30-7"
     width="1.086876"
     height="10.492535"
     x="68.479561"
     y="53.155949"
     transform="rotate(-30)" />
  <rect
     style="fill:#4d4d4d;fill-opacity:1;fill-rule:evenodd;stroke:#3b3b3b;stroke-width:0.629036;stroke-linecap:square;stroke-linejoin:round;stroke-dasharray:none;stroke-opacity:1"
     id="rect29"
     width="4.3057013"
     height="2.0901463"
     x="-6.9252925"
     y="62.656136"
     transform="rotate(-30)" />
  <path
     style="display:inline;fill:#4e4e4e;fill-opacity:1;fill-rule:evenodd;stroke:#333333;stroke-width:1.26133;stroke-linecap:square;stroke-linejoin:round;stroke-dasharray:none;stroke-opacity:1"
     d="M 52.466403,45.392794 92.318755,23.639054 93.22448,25.207818 53.613829,47.89775 Z"
     id="path2" />
  <path
     style="display:inline;fill:#6b6b6b;fill-opacity:1;fill-rule:evenodd;stroke:#333333;stroke-width:1.25808;stroke-linecap:square;stroke-linejoin:round;stroke-dasharray:none;stroke-opacity:1"
     d="m 26.200741,59.961136 -8.076178,4.662785 c -0.689586,-0.231139 -1.063989,-0.684086 -2.275995,-0.0196 -5.202851,2.985793 -9.34218,3.272219 -11.0537556,4.868957 6.7837316,7.188405 6.5005866,11.035391 8.1177516,15.792821 3.441274,-2.583251 3.819595,-7.584491 7.479692,-9.283407 0.836316,0.622871 1.518543,1.596005 3.346629,-0.03549 l 10.711389,-8.346674 c 0.946082,-0.583186 2.549699,-0.471472 3.029451,2.182675 l 1.891074,7.361419 3.715686,-0.657487 c 0.973362,-0.429157 1.271906,-1.119871 0.0012,-1.847156 l -0.658284,-0.252178 c 1.069804,-4.990321 0.221402,-4.296179 -1.011681,-6.963246 l 1.552173,-0.83639 c -1.593766,-0.176872 -3.47227,-1.431684 -1.754554,-3.867071 l 3.139956,-1.872623 c 0.878306,-0.0937 1.7404,0.408245 2.159124,0.89859 l 8.277675,-5.35159 -5.182124,-9.907317 -20.280713,11.657185 c -0.716977,-0.488043 -3.042797,-0.35819 -3.128738,1.815804 z"
     id="path1"
     sodipodi:nodetypes="ccccccccccccccccccccccc" />
  <rect
     style="display:inline;fill:#414141;fill-opacity:1;fill-rule:evenodd;stroke:#333333;stroke-width:1.25808;stroke-linecap:square;stroke-linejoin:round;stroke-dasharray:none;stroke-opacity:1"
     id="rect1"
     width="3.8167987"
     height="4.2308464"
     x="18.995106"
     y="65.162918"
     transform="rotate(-30)" />
  <path
     style="fill:#404040;fill-opacity:1;fill-rule:evenodd;stroke:#333333;stroke-width:0.788494;stroke-linecap:square;stroke-linejoin:round;stroke-dasharray:none;stroke-opacity:1"
     d="m 57.972015,54.976758 -2.001235,8.472924 -1.84804,-2.082007 c 2.155968,-2.857304 0.760534,-3.337628 0.389059,-5.5801 z"
     id="path24"
     sodipodi:nodetypes="ccccc" />
  <rect
     style="fill:#4e4e4e;fill-opacity:1;fill-rule:evenodd;stroke:#333333;stroke-width:0.629036;stroke-linecap:square;stroke-linejoin:round;stroke-dasharray:none;stroke-opacity:1"
     id="rect5"
     width="0.36229205"
     height="2.2772641"
     x="26.26025"
     y="60.679451"
     transform="rotate(-30)" />
  <rect
     style="fill:#5d5d5d;fill-opacity:1;fill-rule:evenodd;stroke:#333333;stroke-width:1.25808;stroke-linecap:square;stroke-linejoin:miter;stroke-dasharray:none;stroke-opacity:1"
     id="rect8"
     width="30.536039"
     height="2.4325323"
     x="22.482067"
     y="70.099037"
     transform="rotate(-30)" />
  <rect
     style="display:inline;fill:#454545;fill-opacity:1;fill-rule:evenodd;stroke:#333333;stroke-width:1.25808;stroke-linecap:square;stroke-linejoin:miter;stroke-dasharray:none;stroke-opacity:1"
     id="rect2"
     width="3.4960439"
     height="7.1707201"
     x="19.026096"
     y="69.0756"
     transform="rotate(-30)" />
  <rect
     style="fill:#474747;fill-opacity:1;fill-rule:evenodd;stroke:#333333;stroke-width:0.629036;stroke-linecap:square;stroke-linejoin:round;stroke-dasharray:none;stroke-opacity:1"
     id="rect3"
     width="3.5711641"
     height="4.0887237"
     x="23.879475"
     y="65.026962"
     transform="rotate(-30)" />
  <rect
     style="fill:#4e4e4e;fill-opacity:1;fill-rule:evenodd;stroke:#333333;stroke-width:0.629036;stroke-linecap:square;stroke-linejoin:miter;stroke-dasharray:none;stroke-opacity:1"
     id="rect4"
     width="2.2021177"
     height="1.5810459"
     x="24.564001"
     y="63.382446"
     transform="rotate(-30)" />
  <rect
     style="fill:#4e4e4e;fill-opacity:1;fill-rule:evenodd;stroke:#333333;stroke-width:0.629036;stroke-linecap:square;stroke-linejoin:round;stroke-dasharray:none;stroke-opacity:1"
     id="rect6"
     width="3.3328264"
     height="3.4540207"
     x="51.939674"
     y="65.656456"
     transform="rotate(-30)" />
  <rect
     style="fill:#4e4e4e;fill-opacity:1;fill-rule:evenodd;stroke:#333333;stroke-width:0.629036;stroke-linecap:square;stroke-linejoin:miter;stroke-dasharray:none;stroke-opacity:1"
     id="rect7"
     width="2.1219962"
     height="4.5027719"
     x="52.34528"
     y="69.012161"
     transform="rotate(-30)" />
  <rect
     style="fill:#484848;fill-opacity:1;fill-rule:evenodd;stroke:#333333;stroke-width:0.623025;stroke-linecap:square;stroke-linejoin:miter;stroke-dasharray:none;stroke-opacity:1"
     id="rect11"
     width="29.765203"
     height="4.9740787"
     x="-17.942122"
     y="68.388344"
     transform="rotate(-30)" />
  <rect
     style="display:inline;fill:#5b5b5b;fill-opacity:1;fill-rule:evenodd;stroke:#333333;stroke-width:0.637111;stroke-linecap:square;stroke-linejoin:miter;stroke-dasharray:none;stroke-opacity:1"
     id="rect12"
     width="1.8431594"
     height="5.0002756"
     x="-18.990343"
     y="68.42701"
     transform="rotate(-30)" />
  <rect
     style="fill:#656565;fill-opacity:1;fill-rule:evenodd;stroke:#333333;stroke-width:0.596838;stroke-linecap:square;stroke-linejoin:miter;stroke-dasharray:none;stroke-opacity:1"
     id="rect10"
     width="33.828873"
     height="2.3612194"
     x="-18.917496"
     y="65.598335"
     transform="rotate(-30)" />
  <path
     style="fill:#655837;fill-opacity:1;fill-rule:evenodd;stroke:#423924;stroke-width:0.629036;stroke-linecap:square;stroke-linejoin:miter;stroke-dasharray:none;stroke-opacity:1"
     d="m 31.321067,58.557269 c -0.821982,0.840723 -0.208068,1.823565 0.860906,1.59465 l 8.29207,-4.787436 c 0.995615,-0.90968 0.112135,-1.902827 -0.905729,-1.56877 z"
     id="path9"
     sodipodi:nodetypes="ccccc" />
  <path
     style="fill:none;fill-opacity:1;fill-rule:evenodd;stroke:#5f4e38;stroke-width:1.25808;stroke-linecap:square;stroke-linejoin:round;stroke-dasharray:none;stroke-opacity:1"
     d="m 33.651851,46.37143 c -1.0551,-0.714606 5.863859,-7.976357 11.08854,-6.298995"
     id="path32"
     sodipodi:nodetypes="cc" />
  <path
     style="fill:#484848;fill-opacity:1;fill-rule:evenodd;stroke:#333333;stroke-width:0.644642;stroke-linecap:square;stroke-linejoin:miter;stroke-dasharray:none;stroke-opacity:1"
     d="m 44.692365,53.235635 2.42632,4.202504 1.875991,-0.129339 0.943877,-0.544947 -3.045807,-5.275493 -1.038262,0.59945 z"
     id="path11"
     sodipodi:nodetypes="ccccccc" />
  <rect
     style="fill:#655837;fill-opacity:1;fill-rule:evenodd;stroke:#423924;stroke-width:0.653488;stroke-linecap:square;stroke-linejoin:miter;stroke-dasharray:none;stroke-opacity:1"
     id="rect9"
     width="3.2879372"
     height="8.4971304"
     x="14.782651"
     y="65.626656"
     transform="rotate(-30)" />
  <circle
     style="fill:#655837;fill-opacity:1;fill-rule:evenodd;stroke:#423924;stroke-width:0.629036;stroke-linecap:square;stroke-linejoin:miter;stroke-dasharray:none;stroke-opacity:1"
     id="path12"
     cx="16.374853"
     cy="72.47982"
     r="0.51756006"
     transform="rotate(-30)" />
  <path
     style="fill:#655837;fill-opacity:1;fill-rule:evenodd;stroke:#423924;stroke-width:0.59475;stroke-linecap:square;stroke-linejoin:miter;stroke-dasharray:none;stroke-opacity:1"
     d="m 34.467808,56.761743 0.809694,1.402427"
     id="path13" />
  <path
     style="fill:#574c30;fill-opacity:1;fill-rule:evenodd;stroke:#584c30;stroke-width:0.174733;stroke-linecap:square;stroke-linejoin:round;stroke-dasharray:none;stroke-opacity:1"
     d="m 31.887097,59.837676 c -0.270132,-0.0081 -0.440817,-0.09052 -0.538954,-0.260496 -0.0735,-0.127294 -0.0765,-0.210769 -0.01469,-0.406898 l 0.07778,-0.246748 1.479785,-0.854351 1.479785,-0.854357 0.271014,0.469419 0.27102,0.469412 -1.433786,0.844358 c -1.25328,0.738061 -1.453696,0.843766 -1.591972,0.839661 z"
     id="path14" />
  <ellipse
     style="fill:#898989;fill-opacity:1;fill-rule:evenodd;stroke:#333333;stroke-width:0.649718;stroke-linecap:square;stroke-linejoin:round;stroke-dasharray:none;stroke-opacity:1"
     id="path15"
     cx="-18.929207"
     cy="77.03112"
     rx="0.92126852"
     ry="0.92126858"
     transform="rotate(-30)" />
  <rect
     style="fill:#898989;fill-opacity:1;fill-rule:evenodd;stroke:#333333;stroke-width:0.629036;stroke-linecap:square;stroke-linejoin:round;stroke-dasharray:none;stroke-opacity:1"
     id="rect15"
     width="5.0720873"
     height="1.1386321"
     x="-24.150089"
     y="69.943771"
     transform="rotate(-30)" />
  <rect
     style="fill:#93834f;fill-opacity:1;fill-rule:evenodd;stroke:#423b24;stroke-width:0.507625;stroke-linecap:square;stroke-linejoin:round;stroke-dasharray:none;stroke-opacity:1"
     id="rect16-53"
     width="19.50547"
     height="3.7596164"
     x="1.3614503"
     y="56.570614"
     transform="rotate(-30)" />
  <rect
     style="fill:#93834f;fill-opacity:1;fill-rule:evenodd;stroke:#423b24;stroke-width:1.25808;stroke-linecap:square;stroke-linejoin:round;stroke-dasharray:none;stroke-opacity:1"
     id="rect16-5"
     width="24.955204"
     height="7.3366165"
     x="-1.4263543"
     y="57.402882"
     transform="rotate(-30)" />
  <rect
     style="fill:#93834f;fill-opacity:1;fill-rule:evenodd;stroke:#423b24;stroke-width:0.629036;stroke-linecap:square;stroke-linejoin:round;stroke-dasharray:none;stroke-opacity:1"
     id="rect16"
     width="24.378029"
     height="4.6191654"
     x="-1.1076007"
     y="58.812195"
     transform="rotate(-30)" />
  <path
     style="display:inline;fill:#717171;fill-opacity:1;fill-rule:evenodd;stroke:#333333;stroke-width:1.25808;stroke-linecap:square;stroke-linejoin:round;stroke-dasharray:none;stroke-opacity:1"
     d="m 92.318755,23.639054 8.459345,-4.704722 c 1.70388,0.107414 4.83632,-1.301085 7.43081,-2.138721 l 0.11044,0.294806 -15.229341,8.195039 z"
     id="path16"
     sodipodi:nodetypes="cccccc" />
  <rect
     style="fill:#717171;fill-opacity:1;fill-rule:evenodd;stroke:#333333;stroke-width:1.25808;stroke-linecap:square;stroke-linejoin:round;stroke-dasharray:none;stroke-opacity:1"
     id="rect17"
     width="2.5360436"
     height="3.2088723"
     x="68.027344"
     y="66.113831"
     transform="rotate(-30)" />
  <path
     style="fill:#5b5b5b;fill-opacity:1;fill-rule:evenodd;stroke:#333333;stroke-width:0.629036;stroke-linecap:square;stroke-linejoin:round;stroke-dasharray:none;stroke-opacity:1"
     d="m 80.538396,38.818641 -25.091537,15.024468 0.414047,0.71715 25.550407,-14.33319 z"
     id="path19" />
  <rect
     style="fill:#717171;fill-opacity:1;fill-rule:evenodd;stroke:#333333;stroke-width:1.25808;stroke-linecap:square;stroke-linejoin:round;stroke-dasharray:none;stroke-opacity:1"
     id="rect18"
     width="3.5711641"
     height="5.1756001"
     x="48.153042"
     y="68.753395"
     transform="rotate(-30)" />
  <path
     style="fill:#5b5b5b;fill-opacity:1;fill-rule:evenodd;stroke:#333333;stroke-width:1.25808;stroke-linecap:square;stroke-linejoin:round;stroke-dasharray:none;stroke-opacity:1"
     d="m 78.12789,38.704854 2.760015,-1.533733 1.940852,3.361652 c 0.141399,0.997318 -1.040765,2.305485 -2.670375,1.481975 z"
     id="path18"
     sodipodi:nodetypes="ccccc" />
  <ellipse
     style="fill:#515151;fill-opacity:1;fill-rule:evenodd;stroke:#333333;stroke-width:0.629036;stroke-linecap:square;stroke-linejoin:round;stroke-dasharray:none;stroke-opacity:1"
     id="path20"
     cx="21.052198"
     cy="74.792206"
     rx="0.78852183"
     ry="2.5626957"
     transform="rotate(-30)" />
  <path
     style="fill:#333333;fill-opacity:1;fill-rule:evenodd;stroke:#333333;stroke-width:1.25808;stroke-linecap:square;stroke-linejoin:round;stroke-dasharray:none;stroke-opacity:1"
     d="m 3.917536,69.553538 c -1.7411346,0.245194 -2.1884974,1.60743 -2.5734099,2.161536 5.3929687,4.882513 7.23001,8.845675 7.5508509,15.444019 1.458267,0.160239 3.036494,-0.307827 3.709775,-1.507221 C 10.9237,79.978512 9.7684137,75.208324 3.917536,69.553538 Z"
     id="path21"
     sodipodi:nodetypes="ccccc" />
  <path
     style="fill:none;fill-opacity:1;fill-rule:evenodd;stroke:#333333;stroke-width:1.25808;stroke-linecap:square;stroke-linejoin:round;stroke-dasharray:none;stroke-opacity:1"
     d="m 42.984513,66.587822 c 2.416501,-1.313455 4.861241,-2.213343 3.556506,-4.819422"
     id="path22"
     sodipodi:nodetypes="cc" />
  <path
     style="fill:#653909;fill-opacity:1;fill-rule:evenodd;stroke:#4c2a07;stroke-width:0.629036;stroke-linecap:square;stroke-linejoin:round;stroke-dasharray:none;stroke-opacity:1"
     d="m 38.120158,68.924283 2.879793,-0.69725 c 3.427595,2.526894 -1.195498,6.218599 2.790399,7.174071 l -4.578706,1.098882 z"
     id="path23"
     sodipodi:nodetypes="ccccc" />
  <ellipse
     style="fill:#404040;fill-opacity:1;fill-rule:evenodd;stroke:#333333;stroke-width:0.629036;stroke-linecap:square;stroke-linejoin:round;stroke-dasharray:none;stroke-opacity:1"
     id="path25"
     cx="29.737133"
     cy="69.031975"
     rx="1.7975259"
     ry="0.75245267"
     transform="rotate(-7.597842)" />
  <path
     style="fill:none;fill-opacity:1;fill-rule:evenodd;stroke:#333333;stroke-width:0.629036;stroke-linecap:square;stroke-linejoin:round;stroke-dasharray:none;stroke-opacity:1"
     d="m 33.619534,67.817433 c 1.987442,-1.869849 6.355669,-0.982941 7.223599,-2.202973"
     id="path26"
     sodipodi:nodetypes="cc" />
  <path
     style="fill:#663a0a;fill-opacity:1;fill-rule:evenodd;stroke:#4f2c08;stroke-width:0.629036;stroke-linecap:square;stroke-linejoin:round;stroke-dasharray:none;stroke-opacity:1"
     d="m 53.657206,61.562827 2.241845,1.814499 -0.153294,2.032174 c -0.530984,-0.01967 -2.241582,-0.484743 -2.30061,0.755381 -1.172999,3.737155 -5.623873,4.142642 -4.677062,6.26591 l -1.221769,1.297512 -2.953309,-2.800291 1.041433,-1.4637 c 2.161033,1.516976 1.760663,-4.641475 5.773415,-6.042833 1.289815,-0.0618 0.499218,-1.639324 0.691164,-2.310595 z"
     id="path27"
     sodipodi:nodetypes="ccccccccccc" />
  <rect
     style="fill:#52412e;fill-opacity:1;fill-rule:evenodd;stroke:#423424;stroke-width:0.629036;stroke-linecap:square;stroke-linejoin:round;stroke-dasharray:none;stroke-opacity:1"
     id="rect27"
     width="2.0065405"
     height="6.354044"
     x="-12.512474"
     y="79.086159"
     transform="rotate(-48.887678)" />
  <ellipse
     style="fill:#7a7a7a;fill-opacity:1;fill-rule:evenodd;stroke:#3e3e3e;stroke-width:0.629036;stroke-linecap:square;stroke-linejoin:round;stroke-dasharray:none;stroke-opacity:1"
     id="path28"
     cx="18.587755"
     cy="79.708725"
     rx="0.84545469"
     ry="0.83542371"
     transform="rotate(-30)" />
  <ellipse
     style="fill:#7a7a7a;fill-opacity:1;fill-rule:evenodd;stroke:#3e3e3e;stroke-width:0.629036;stroke-linecap:square;stroke-linejoin:round;stroke-dasharray:none;stroke-opacity:1"
     id="path28-5"
     cx="49.833595"
     cy="74.918388"
     rx="0.84545469"
     ry="0.83542371"
     transform="rotate(-30)" />
  <rect
     style="fill:#333333;fill-opacity:1;fill-rule:evenodd;stroke:#333333;stroke-width:0.629036;stroke-linecap:square;stroke-linejoin:round;stroke-dasharray:none;stroke-opacity:1"
     id="rect28"
     width="1.2122849"
     height="2.215555"
     x="68.361763"
     y="63.45039"
     transform="rotate(-30)" />
  <ellipse
     style="fill:#4d4d4d;fill-opacity:1;fill-rule:evenodd;stroke:#3b3b3b;stroke-width:0.629036;stroke-linecap:square;stroke-linejoin:round;stroke-dasharray:none;stroke-opacity:1"
     id="path29"
     cx="-18.546511"
     cy="64.641769"
     rx="0.41199213"
     ry="0.43289366"
     transform="rotate(-30)" />
  <ellipse
     style="fill:#4d4d4d;fill-opacity:1;fill-rule:evenodd;stroke:#3b3b3b;stroke-width:0.629036;stroke-linecap:square;stroke-linejoin:round;stroke-dasharray:none;stroke-opacity:1"
     id="path29-7"
     cx="-20.794279"
     cy="64.590317"
     rx="0.41199213"
     ry="0.43289366"
     transform="rotate(-30)" />
  <rect
     style="fill:#4d4d4d;fill-opacity:1;fill-rule:evenodd;stroke:#3b3b3b;stroke-width:0.629036;stroke-linecap:square;stroke-linejoin:round;stroke-dasharray:none;stroke-opacity:1"
     id="rect31"
     width="2.0510948"
     height="4.1913681"
     x="-5.0112624"
     y="52.347507"
     transform="rotate(-30)" />
  <rect
     style="fill:#4d4d4d;fill-opacity:1;fill-rule:evenodd;stroke:#3b3b3b;stroke-width:0.629036;stroke-linecap:square;stroke-linejoin:round;stroke-dasharray:none;stroke-opacity:1"
     id="rect32"
     width="2.6753416"
     height="3.4779439"
     x="67.668846"
     y="52.347507"
     transform="rotate(-30)" />
  <path
     style="fill:#4c4c4c;fill-opacity:1;fill-rule:evenodd;stroke:#333333;stroke-width:0.629036;stroke-linecap:round;stroke-linejoin:round;stroke-dasharray:none;stroke-opacity:1"
     d="M 5.0845981,69.326363 7.215055,68.501798 c 3.97356,4.677603 6.402372,9.064141 7.475241,14.335314 -0.537643,1.103157 -1.389923,1.744944 -2.089523,2.567578 C 11.734442,77.452216 8.4358042,73.759535 5.0845981,69.326363 Z"
     id="path34"
     sodipodi:nodetypes="ccccc" />
</svg>
