<?xml version="1.0" encoding="UTF-8" standalone="no"?>
<!-- Created with Inkscape (http://www.inkscape.org/) -->

<svg
   width="27.986923"
   height="48.000004"
   viewBox="0 0 7.4048732 12.7"
   version="1.1"
   id="svg1104"
   xml:space="preserve"
   inkscape:version="1.3 (0e150ed, 2023-07-21)"
   sodipodi:docname="beer.svg"
   xmlns:inkscape="http://www.inkscape.org/namespaces/inkscape"
   xmlns:sodipodi="http://sodipodi.sourceforge.net/DTD/sodipodi-0.dtd"
   xmlns:xlink="http://www.w3.org/1999/xlink"
   xmlns="http://www.w3.org/2000/svg"
   xmlns:svg="http://www.w3.org/2000/svg"><sodipodi:namedview
     id="namedview1106"
     pagecolor="#505050"
     bordercolor="#eeeeee"
     borderopacity="1"
     inkscape:showpageshadow="0"
     inkscape:pageopacity="0"
     inkscape:pagecheckerboard="true"
     inkscape:deskcolor="#505050"
     inkscape:document-units="px"
     showgrid="false"
     showguides="true"
     inkscape:zoom="12.989894"
     inkscape:cx="14.742229"
     inkscape:cy="21.439743"
     inkscape:window-width="1440"
     inkscape:window-height="900"
     inkscape:window-x="0"
     inkscape:window-y="0"
     inkscape:window-maximized="0"
     inkscape:current-layer="g1"
     inkscape:pageshadow="0"
     units="px" /><defs
     id="defs1101"><linearGradient
       inkscape:collect="always"
       id="linearGradient25596"><stop
         style="stop-color:#ff1b1b;stop-opacity:1;"
         offset="0"
         id="stop25592" /><stop
         style="stop-color:#ff5100;stop-opacity:1;"
         offset="1"
         id="stop25594" /></linearGradient><linearGradient
       inkscape:collect="always"
       xlink:href="#linearGradient25596"
       id="linearGradient17991"
       x1="68.386719"
       y1="32.751953"
       x2="71.962891"
       y2="38.242188"
       gradientUnits="userSpaceOnUse"
       gradientTransform="matrix(1.1708977,0,0,1.1708627,32.537362,-66.979074)" /></defs><g
     inkscape:label="Layer 1"
     inkscape:groupmode="layer"
     id="layer1"
     transform="translate(-111.83177,30.485153)"><g
       id="g1"
       transform="matrix(1.3875246,0,0,1.3625479,-43.571049,10.837824)"
       style="stroke-width:0.727284"><path
         style="fill:url(#linearGradient17991);fill-opacity:1;stroke:none;stroke-width:0.558582;stroke-linejoin:round;stroke-dasharray:none;stroke-opacity:1"
         d="m 112.61121,-28.631035 h 4.18733 v 6.428311 l -0.20468,0.20353 h -3.77912 l -0.20353,-0.20353 z"
         id="path17265" /><path
         style="fill:#9d9fa1;fill-opacity:1;stroke:none;stroke-width:0.558582;stroke-linejoin:round;stroke-miterlimit:4;stroke-dasharray:none;stroke-opacity:1"
         d="m 112.61121,-28.631035 0.53971,-1.205163 h 3.10792 l 0.5397,1.205163 z"
         id="path17321" /><path
         style="fill:#9d9fa1;fill-opacity:1;fill-rule:nonzero;stroke:none;stroke-width:0.558582;stroke-linejoin:round;stroke-miterlimit:4;stroke-dasharray:none;stroke-opacity:1"
         d="m 112.81474,-21.999194 0.32246,0.622021 h 3.13307 l 0.32359,-0.622021 z"
         id="path17323" /><path
         style="fill:none;fill-opacity:1;stroke:#232323;stroke-width:0.673452;stroke-linejoin:round;stroke-miterlimit:4;stroke-dasharray:none;stroke-opacity:1"
         d="m 112.33678,-22.335559 0.49175,0.490082 v 0.501805 h 3.67909 v -0.501805 l 0.49245,-0.490082 v -6.272371 l -0.55063,-0.779786 0.16206,-0.603287 h -3.88616 l 0.16206,0.603287 -0.55062,0.779786 z"
         id="path16453-1" /><path
         d="m 221.10907,-14.03952 h 0.82428 q 0.20607,0 0.31591,0.102062 0.11081,0.102063 0.11081,0.252727 0,0.126364 -0.0787,0.216762 -0.0525,0.06027 -0.15358,0.09526 0.15358,0.03694 0.22551,0.127335 0.0729,0.08943 0.0729,0.22551 0,0.110811 -0.0515,0.199266 -0.0515,0.08845 -0.14094,0.139972 -0.0554,0.03208 -0.16719,0.04666 -0.14872,0.01944 -0.19732,0.01944 h -0.76013 z m 0.44422,0.558915 h 0.19149 q 0.10303,0 0.14288,-0.03499 0.0408,-0.03596 0.0408,-0.103035 0,-0.06221 -0.0408,-0.0972 -0.0399,-0.03499 -0.13997,-0.03499 h -0.1944 z m 0,0.559887 h 0.22454 q 0.11372,0 0.16038,-0.03985 0.0467,-0.04082 0.0467,-0.108867 0,-0.06318 -0.0467,-0.101091 -0.0457,-0.03888 -0.16136,-0.03888 h -0.22356 z m 1.38968,-1.118802 h 1.18004 v 0.304244 h -0.73874 v 0.226482 h 0.68528 v 0.290636 h -0.68528 v 0.280916 h 0.76013 v 0.322712 h -1.20143 z m 1.72504,0 h 1.18004 v 0.304244 h -0.73874 v 0.226482 h 0.68528 v 0.290636 h -0.68528 v 0.280916 h 0.76012 v 0.322712 h -1.20142 z m 1.73184,1.42499 v -1.42499 h 0.73388 q 0.20412,0 0.31202,0.03499 0.10789,0.03499 0.17399,0.130251 0.0661,0.09429 0.0661,0.23037 0,0.118588 -0.0506,0.205098 -0.0505,0.08554 -0.139,0.139 -0.0564,0.03402 -0.15455,0.05638 0.0787,0.02624 0.1147,0.05249 0.0243,0.0175 0.07,0.07485 0.0466,0.05735 0.0622,0.08845 l 0.21287,0.413111 h -0.49768 l -0.23523,-0.435467 q -0.0447,-0.08457 -0.0797,-0.109839 -0.0476,-0.03305 -0.1079,-0.03305 h -0.0389 v 0.578355 z m 0.44227,-0.847607 h 0.18566 q 0.0301,0 0.11664,-0.01944 0.0437,-0.0087 0.071,-0.04471 0.0282,-0.03597 0.0282,-0.08262 0,-0.06901 -0.0437,-0.10595 -0.0437,-0.03694 -0.16428,-0.03694 h -0.19343 z"
         id="text1"
         style="font-weight:bold;font-size:1.99071px;font-family:'Arial Black';-inkscape-font-specification:'Arial Black,  Bold';letter-spacing:0.287408px;fill:#ffffff;stroke-width:1.30504;stroke-linecap:square"
         transform="scale(0.51087423,1.9574289)"
         aria-label="BEER" /></g></g></svg>
