<?xml version="1.0" encoding="UTF-8" standalone="no"?>
<!-- Created with Inkscape (http://www.inkscape.org/) -->

<svg
   width="46.787663"
   height="28.188747"
   viewBox="0 0 12.379235 7.4582722"
   version="1.1"
   id="svg1104"
   xml:space="preserve"
   inkscape:version="1.3 (0e150ed, 2023-07-21)"
   sodipodi:docname="cola.svg"
   xmlns:inkscape="http://www.inkscape.org/namespaces/inkscape"
   xmlns:sodipodi="http://sodipodi.sourceforge.net/DTD/sodipodi-0.dtd"
   xmlns="http://www.w3.org/2000/svg"
   xmlns:svg="http://www.w3.org/2000/svg"><sodipodi:namedview
     id="namedview1106"
     pagecolor="#505050"
     bordercolor="#eeeeee"
     borderopacity="1"
     inkscape:showpageshadow="0"
     inkscape:pageopacity="0"
     inkscape:pagecheckerboard="true"
     inkscape:deskcolor="#505050"
     inkscape:document-units="px"
     showgrid="false"
     showguides="true"
     inkscape:zoom="2.6408048"
     inkscape:cx="45.251357"
     inkscape:cy="44.683349"
     inkscape:window-width="1440"
     inkscape:window-height="839"
     inkscape:window-x="0"
     inkscape:window-y="25"
     inkscape:window-maximized="0"
     inkscape:current-layer="g1"
     inkscape:pageshadow="0"
     units="px" /><defs
     id="defs1101" /><g
     inkscape:label="Layer 1"
     inkscape:groupmode="layer"
     id="layer1"
     transform="translate(-111.9016,30.416584)"><g
       id="g1"
       transform="matrix(1.3875246,0,0,1.3625479,-43.571049,10.837824)"
       style="stroke-width:0.727284"><g
         id="g3"
         transform="matrix(0.18558471,0,0,0.18558471,95.441902,-23.928637)"><path
           id="rect35-23"
           style="fill:#c65252;fill-rule:evenodd;stroke:#3d1414;stroke-width:2.30913;stroke-linecap:round;stroke-linejoin:round;stroke-miterlimit:20;stroke-dasharray:none;stroke-opacity:1"
           d="M 90.647216,-33.054953 117.34346,-19.462155 90.647216,-5.8693638 Z"
           sodipodi:nodetypes="cccc" /><path
           id="rect35-2-7"
           style="fill:#c65252;fill-rule:evenodd;stroke:#3d1414;stroke-width:2.30913;stroke-linecap:round;stroke-linejoin:round;stroke-miterlimit:20;stroke-dasharray:none;stroke-opacity:1"
           d="m 136.41216,-33.054953 -26.69624,13.592798 26.69624,13.5927912 z"
           sodipodi:nodetypes="cccc" /><ellipse
           style="fill:#c65252;fill-opacity:1;fill-rule:evenodd;stroke:#3d1414;stroke-width:2.30913;stroke-linecap:round;stroke-linejoin:round;stroke-miterlimit:20;stroke-dasharray:none;stroke-opacity:1"
           id="path35-2"
           cx="113.52971"
           cy="-19.462156"
           rx="13.348111"
           ry="13.592794" /><path
           sodipodi:type="spiral"
           style="fill:none;fill-rule:evenodd;stroke:#3d1414;stroke-width:2.07612;stroke-linecap:round;stroke-linejoin:round;stroke-dasharray:none;stroke-opacity:1"
           id="path36-4"
           sodipodi:cx="1681.2065"
           sodipodi:cy="473.76953"
           sodipodi:expansion="1"
           sodipodi:revolution="2.4166667"
           sodipodi:radius="10.168086"
           sodipodi:argument="-14.137167"
           sodipodi:t0="0"
           d="m 1681.2065,473.76953 c 0,-0.63287 0.8531,-0.31223 1.0519,0 0.5387,0.84614 -0.2369,1.84433 -1.0519,2.10374 -1.4577,0.46403 -2.8606,-0.71368 -3.1556,-2.10374 -0.4329,-2.03996 1.1926,-3.89506 3.1556,-4.20748 2.6164,-0.41641 4.9365,1.6717 5.2594,4.20748 0.4063,3.19102 -2.1508,5.98139 -5.2594,6.31123 -3.7649,0.39947 -7.0282,-2.62976 -7.3631,-6.31123 -0.3945,-4.33849 3.1088,-8.07641 7.3631,-8.41497 4.9119,-0.39087 9.1254,3.58765 9.4669,8.41497 0.2462,3.48151 -1.4944,6.87452 -4.3828,8.80582"
           transform="matrix(1.1021741,0,0,1.122378,-1740.6079,-551.41496)" /></g></g></g></svg>
