<?xml version="1.0" encoding="UTF-8" standalone="no"?>
<!-- Created with Inkscape (http://www.inkscape.org/) -->

<svg
   width="69.999969"
   height="74.155998"
   viewBox="0 0 18.520826 19.620438"
   version="1.1"
   id="svg1104"
   xml:space="preserve"
   inkscape:version="1.3 (0e150ed, 2023-07-21)"
   sodipodi:docname="tablets_valentines.svg"
   xmlns:inkscape="http://www.inkscape.org/namespaces/inkscape"
   xmlns:sodipodi="http://sodipodi.sourceforge.net/DTD/sodipodi-0.dtd"
   xmlns="http://www.w3.org/2000/svg"
   xmlns:svg="http://www.w3.org/2000/svg"><sodipodi:namedview
     id="namedview1106"
     pagecolor="#505050"
     bordercolor="#eeeeee"
     borderopacity="1"
     inkscape:showpageshadow="0"
     inkscape:pageopacity="0"
     inkscape:pagecheckerboard="true"
     inkscape:deskcolor="#505050"
     inkscape:document-units="px"
     showgrid="false"
     showguides="true"
     inkscape:zoom="4.9181883"
     inkscape:cx="41.987006"
     inkscape:cy="34.362247"
     inkscape:window-width="1328"
     inkscape:window-height="759"
     inkscape:window-x="0"
     inkscape:window-y="25"
     inkscape:window-maximized="0"
     inkscape:current-layer="g980"
     inkscape:pageshadow="0"
     units="px" /><defs
     id="defs1101"><inkscape:path-effect
       effect="fillet_chamfer"
       id="path-effect18"
       is_visible="true"
       lpeversion="1"
       nodesatellites_param="F,0,0,1,0,0,0,1 @ F,0,0,1,0,0,0,1 @ F,0,0,1,0,0,0,1 @ F,0,0,1,0,0,0,1"
       radius="0"
       unit="px"
       method="auto"
       mode="F"
       chamfer_steps="1"
       flexible="false"
       use_knot_distance="true"
       apply_no_radius="true"
       apply_with_radius="true"
       only_selected="false"
       hide_knots="false" /><clipPath
       clipPathUnits="userSpaceOnUse"
       id="clipPath12"><g
         id="g13"
         transform="rotate(15.000001)"><g
           inkscape:label="Clip"
           id="use12"
           style="stroke-width:4.656;stroke-dasharray:none"
           transform="matrix(0.19944567,0,0,0.19944567,-188.22203,-84.867218)"
           clip-path="url(#clipPath13)"><path
             d="m 1486.7795,255.72143 c -4.6188,-4.61876 -10.7335,-7.14318 -17.2596,-7.14318 -6.5261,0 -12.6595,4.65978 -17.2783,9.27854 l -2.4122,2.41223 -2.4496,-2.44963 c -4.6188,-4.61876 -10.7709,-9.29725 -17.297,-9.29725 -6.5074,0 -12.6408,2.54313 -17.2409,7.14319 -4.6187,4.61876 -7.1618,10.75217 -7.1432,17.27827 0,29.75441 22.7814,45.34243 42.2982,56.61044 0.5954,0.34379 1.1406,0.74798 1.7764,0.74798 0.6358,0 1.2903,-0.2431 1.7765,-0.72928 19.6731,-11.35831 42.2452,-26.78904 42.3542,-56.57304 0.019,-6.5261 -2.5058,-12.65951 -7.1245,-17.27827 z"
             id="path17"
             style="fill:#734626;fill-opacity:1;stroke:#2e1c0f;stroke-width:4.656;stroke-dasharray:none;stroke-opacity:1"
             sodipodi:nodetypes="ssscssscssccs" /></g></g></clipPath><clipPath
       clipPathUnits="userSpaceOnUse"
       id="clipPath13"><g
         id="g14"
         transform="matrix(5.0138968,0,0,5.0138968,943.72583,425.51547)"><g
           inkscape:label="Clip"
           id="use13"
           style="stroke-width:4.656;stroke-dasharray:none"
           transform="matrix(0.19944567,0,0,0.19944567,-188.22203,-84.867218)"
           clip-path="url(#clipPath13)"><path
             d="m 1486.7795,255.72143 c -4.6188,-4.61876 -10.7335,-7.14318 -17.2596,-7.14318 -6.5261,0 -12.6595,4.65978 -17.2783,9.27854 l -2.4122,2.41223 -2.4496,-2.44963 c -4.6188,-4.61876 -10.7709,-9.29725 -17.297,-9.29725 -6.5074,0 -12.6408,2.54313 -17.2409,7.14319 -4.6187,4.61876 -7.1618,10.75217 -7.1432,17.27827 0,29.75441 22.7814,45.34243 42.2982,56.61044 0.5954,0.34379 1.1406,0.74798 1.7764,0.74798 0.6358,0 1.2903,-0.2431 1.7765,-0.72928 19.6731,-11.35831 42.2452,-26.78904 42.3542,-56.57304 0.019,-6.5261 -2.5058,-12.65951 -7.1245,-17.27827 z"
             id="path18"
             style="fill:#734626;fill-opacity:1;stroke:#2e1c0f;stroke-width:4.656;stroke-dasharray:none;stroke-opacity:1"
             sodipodi:nodetypes="ssscssscssccs" /></g></g></clipPath></defs><g
     inkscape:label="Layer 1"
     inkscape:groupmode="layer"
     id="layer1"
     transform="translate(-78.762809,26.378219)"><g
       id="g3573"><g
         id="g2480"
         inkscape:export-filename="..\PNG\medkit.png"
         inkscape:export-xdpi="392"
         inkscape:export-ydpi="392"><g
           id="g980"
           inkscape:export-filename="..\PNG\medkit.png"
           inkscape:export-xdpi="392"
           inkscape:export-ydpi="392"><path
             style="color:#000000;fill:#744625;-inkscape-stroke:none"
             d="m 95.398354,-22.308519 c -0.9212,-0.921192 -2.140751,-1.424676 -3.442353,-1.424676 -1.301602,0 -2.524882,0.929373 -3.446082,1.850564 l -0.481103,0.481109 -0.488562,-0.488568 c -0.9212,-0.921192 -2.148209,-1.854296 -3.449812,-1.854296 -1.297873,0 -2.521153,0.507216 -3.438623,1.424678 -0.921179,0.921192 -1.42839,2.144474 -1.42468,3.446076 0,5.934388 4.543652,9.0433514 8.436193,11.2907078 0.11875,0.068567 0.227488,0.1491814 0.354295,0.1491814 0.126808,0 0.257345,-0.048485 0.354315,-0.1454518 3.923715,-2.265367 8.425623,-5.3429584 8.447362,-11.2832484 0.0038,-1.301602 -0.499771,-2.524884 -1.42095,-3.446076 z"
             id="path15" /><path
             id="rect18"
             style="fill:#6c2323;fill-opacity:1;stroke:#321010;stroke-width:0.871683;stroke-linecap:round;stroke-linejoin:round;stroke-dasharray:none;stroke-opacity:1"
             d="m 96.50798,-17.725888 -16.488917,2.850989 c 0.438471,1.030494 1.0368,1.945359 1.737879,2.766756 l 14.123169,-2.442228 c 0.373978,-0.799434 0.65099,-1.67137 0.803568,-2.626196 z" /><path
             style="color:#000000;fill:#2e1c0f;-inkscape-stroke:none"
             d="m 84.089844,-24.209383 c -1.418842,0 -2.762742,0.557672 -3.765625,1.560547 -1.006247,1.006261 -1.564603,2.354293 -1.560547,3.777343 5.46e-4,3.08467 1.197557,5.472838 2.876953,7.335938 1.679779,1.8635241 3.832204,3.2245503 5.791016,4.3554691 0.08857,0.051139 0.262348,0.2109375 0.585937,0.2109375 0.24516,0 0.494022,-0.091684 0.683594,-0.28125 l -0.09766,0.074219 c 1.974112,-1.1397583 4.124678,-2.4966595 5.800781,-4.3554696 1.676102,-1.85881 2.867608,-4.240985 2.878906,-7.328125 v -0.002 c 0.0042,-1.422205 -0.549961,-2.768697 -1.556641,-3.775391 -1.006267,-1.006259 -2.350148,-1.560546 -3.771484,-1.560546 -1.522619,0 -2.817323,1.030223 -3.773437,1.986328 l -0.152344,0.152343 -0.160156,-0.160156 c -0.956115,-0.956106 -2.25579,-1.990234 -3.779297,-1.990234 z m 0,0.929687 c 1.079696,0 2.236763,0.832474 3.123047,1.71875 l 0.816406,0.816407 0.808594,-0.810547 c 0.886283,-0.886276 2.036604,-1.712891 3.117187,-1.712891 1.181865,0 2.279104,0.450986 3.115234,1.287109 0.835678,0.835689 1.288605,1.936191 1.285157,3.117188 -0.01044,2.853144 -1.079413,4.979542 -2.640625,6.710937 -1.561212,1.731396 -3.62462,3.04627 -5.574219,4.1718747 l -0.05469,0.0293 -0.04297,0.04492 c -0.0044,0.0044 -0.01694,0.0078 -0.02539,0.0078 0.06997,0 0.02589,5.7e-5 -0.123047,-0.08594 -1.933725,-1.1164347 -3.999274,-2.4354857 -5.564453,-4.1718747 -1.565179,-1.736389 -2.638672,-3.868105 -2.638672,-6.716797 v -0.002 c -0.0034,-1.180151 0.452953,-2.279113 1.289063,-3.115234 0.832055,-0.832048 1.932473,-1.289063 3.109375,-1.289063 z"
             id="path16" /><g
             id="g19"
             transform="translate(0.05681557,1.9970193)"><path
               sodipodi:type="star"
               style="fill:#6c2323;fill-opacity:1;fill-rule:evenodd;stroke:#321010;stroke-width:36.2583;stroke-linecap:round;stroke-linejoin:round;stroke-miterlimit:20;stroke-dasharray:none;stroke-opacity:1"
               id="path10-2"
               inkscape:flatsided="false"
               sodipodi:sides="5"
               sodipodi:cx="5240.7407"
               sodipodi:cy="1228.8889"
               sodipodi:r1="62.904198"
               sodipodi:r2="78.630249"
               sodipodi:arg1="0.78539816"
               sodipodi:arg2="1.4137167"
               inkscape:rounded="0.4"
               inkscape:randomized="0"
               d="m 5285.2207,1273.3689 c -13.0739,13.0739 -13.9179,30.2898 -32.1795,33.1822 -18.2616,2.8924 -24.3843,-13.2202 -40.8584,-21.6141 -16.474,-8.394 -33.1082,-3.8767 -41.5021,-20.3507 -8.394,-16.474 5.0379,-27.2761 7.9303,-45.5378 2.8923,-18.2616 -6.5441,-32.6857 6.5297,-45.7596 13.0739,-13.0738 27.498,-3.6374 45.7596,-6.5297 18.2617,-2.8924 29.0638,-16.3243 45.5378,-7.9303 16.4741,8.3939 11.9567,25.0281 20.3507,41.5021 8.3939,16.4741 24.5065,22.5968 21.6141,40.8584 -2.8924,18.2616 -20.1083,19.1056 -33.1822,32.1795 z"
               transform="matrix(0.01810988,0.01810988,-0.01810988,0.01810988,17.487954,-134.31641)"
               inkscape:transform-center-x="-1.5583548e-05"
               inkscape:transform-center-y="-1.139676" /><path
               sodipodi:type="star"
               style="fill:#6c2323;fill-opacity:1;fill-rule:evenodd;stroke:#321010;stroke-width:36.2583;stroke-linecap:round;stroke-linejoin:round;stroke-miterlimit:20;stroke-dasharray:none;stroke-opacity:1"
               id="path10-2-3"
               inkscape:flatsided="false"
               sodipodi:sides="5"
               sodipodi:cx="5240.7407"
               sodipodi:cy="1228.8889"
               sodipodi:r1="62.904198"
               sodipodi:r2="78.630249"
               sodipodi:arg1="0.78539816"
               sodipodi:arg2="1.4137167"
               inkscape:rounded="0.4"
               inkscape:randomized="0"
               d="m 5285.2207,1273.3689 c -13.0739,13.0739 -13.9179,30.2898 -32.1795,33.1822 -18.2616,2.8924 -24.3843,-13.2202 -40.8584,-21.6141 -16.474,-8.394 -33.1082,-3.8767 -41.5021,-20.3507 -8.394,-16.474 5.0379,-27.2761 7.9303,-45.5378 2.8923,-18.2616 -6.5441,-32.6857 6.5297,-45.7596 13.0739,-13.0738 27.498,-3.6374 45.7596,-6.5297 18.2617,-2.8924 29.0638,-16.3243 45.5378,-7.9303 16.4741,8.3939 11.9567,25.0281 20.3507,41.5021 8.3939,16.4741 24.5065,22.5968 21.6141,40.8584 -2.8924,18.2616 -20.1083,19.1056 -33.1822,32.1795 z"
               transform="matrix(-0.01810988,-0.01810988,0.01810988,-0.01810988,162.79627,99.954253)"
               inkscape:transform-center-x="1.5476547e-05"
               inkscape:transform-center-y="1.1396588" /></g></g></g></g></g></svg>
