<?xml version="1.0" encoding="UTF-8" standalone="no"?>
<!-- Created with Inkscape (http://www.inkscape.org/) -->

<svg
   width="500"
   height="500"
   viewBox="0 0 132.29166 132.29166"
   version="1.1"
   id="svg5"
   xml:space="preserve"
   inkscape:version="1.3.2 (091e20ef0f, 2023-11-25, custom)"
   sodipodi:docname="blue_statue.svg"
   inkscape:export-filename="/home/desktopgeek/Downloads/flintstone.png"
   inkscape:export-xdpi="328.51764"
   inkscape:export-ydpi="328.51764"
   xmlns:inkscape="http://www.inkscape.org/namespaces/inkscape"
   xmlns:sodipodi="http://sodipodi.sourceforge.net/DTD/sodipodi-0.dtd"
   xmlns="http://www.w3.org/2000/svg"
   xmlns:svg="http://www.w3.org/2000/svg"><sodipodi:namedview
     id="namedview7"
     pagecolor="#505050"
     bordercolor="#eeeeee"
     borderopacity="1"
     inkscape:showpageshadow="0"
     inkscape:pageopacity="0"
     inkscape:pagecheckerboard="true"
     inkscape:deskcolor="#505050"
     inkscape:document-units="px"
     showgrid="false"
     inkscape:zoom="0.87087519"
     inkscape:cx="47.079077"
     inkscape:cy="196.92833"
     inkscape:window-width="1920"
     inkscape:window-height="1011"
     inkscape:window-x="0"
     inkscape:window-y="32"
     inkscape:window-maximized="1"
     inkscape:current-layer="layer1"
     inkscape:pageshadow="0"
     units="px" /><defs
     id="defs2"><inkscape:path-effect
       effect="fillet_chamfer"
       id="path-effect1863"
       is_visible="true"
       lpeversion="1"
       nodesatellites_param="F,0,0,1,0,0,0,1 @ F,0,0,1,0,0,0,1 @ F,0,0,1,0,0,0,1 @ F,0,0,1,0,0,0,1 @ F,0,0,1,0,0,0,1 @ F,0,0,1,0,0,0,1 @ F,0,0,1,0,0,0,1 @ F,0,0,1,0,0,0,1"
       unit="px"
       method="auto"
       mode="F"
       radius="0"
       chamfer_steps="1"
       flexible="false"
       use_knot_distance="true"
       apply_no_radius="true"
       apply_with_radius="true"
       only_selected="false"
       hide_knots="false"
       satellites_param="F,0,0,1,0,0,0,1 @ F,0,0,1,0,0,0,1 @ F,0,0,1,0,0,0,1 @ F,0,0,1,0,0,0,1 @ F,0,0,1,0,0,0,1 @ F,0,0,1,0,0,0,1 @ F,0,0,1,0,0,0,1 @ F,0,0,1,0,0,0,1" /><inkscape:path-effect
       effect="bspline"
       id="path-effect35040"
       is_visible="true"
       lpeversion="1"
       weight="33.333333"
       steps="2"
       helper_size="0"
       apply_no_weight="true"
       apply_with_weight="true"
       only_selected="false"
       uniform="false" /><inkscape:path-effect
       effect="bspline"
       id="path-effect34310"
       is_visible="true"
       lpeversion="1"
       weight="33.333333"
       steps="2"
       helper_size="0"
       apply_no_weight="true"
       apply_with_weight="true"
       only_selected="false"
       uniform="false" /><inkscape:path-effect
       effect="bspline"
       id="path-effect20365"
       is_visible="true"
       lpeversion="1"
       weight="33.333333"
       steps="2"
       helper_size="0"
       apply_no_weight="true"
       apply_with_weight="true"
       only_selected="false"
       uniform="false" /><inkscape:path-effect
       effect="bspline"
       id="path-effect20361"
       is_visible="true"
       lpeversion="1"
       weight="33.333333"
       steps="2"
       helper_size="0"
       apply_no_weight="true"
       apply_with_weight="true"
       only_selected="false"
       uniform="false" /><inkscape:perspective
       sodipodi:type="inkscape:persp3d"
       inkscape:vp_x="0 : 262.25398 : 1"
       inkscape:vp_y="0 : 999.99995 : 0"
       inkscape:vp_z="744.09446 : 262.25398 : 1"
       inkscape:persp3d-origin="372.04723 : 86.860295 : 1"
       id="perspective2669" /><inkscape:perspective
       sodipodi:type="inkscape:persp3d"
       inkscape:vp_x="0 : -243.92708 : 1"
       inkscape:vp_y="0 : 999.99995 : 0"
       inkscape:vp_z="39.999999 : -243.92708 : 1"
       inkscape:persp3d-origin="19.999999 : -250.59374 : 1"
       id="perspective18" /><inkscape:perspective
       sodipodi:type="inkscape:persp3d"
       inkscape:vp_x="0 : 262.25398 : 1"
       inkscape:vp_y="0 : 999.99995 : 0"
       inkscape:vp_z="744.09446 : 262.25398 : 1"
       inkscape:persp3d-origin="372.04723 : 86.860295 : 1"
       id="perspective2669-6" /><inkscape:perspective
       sodipodi:type="inkscape:persp3d"
       inkscape:vp_x="0 : 262.25398 : 1"
       inkscape:vp_y="0 : 999.99995 : 0"
       inkscape:vp_z="744.09446 : 262.25398 : 1"
       inkscape:persp3d-origin="372.04723 : 86.860295 : 1"
       id="perspective2669-2" /><inkscape:perspective
       sodipodi:type="inkscape:persp3d"
       inkscape:vp_x="0 : 262.25398 : 1"
       inkscape:vp_y="0 : 999.99995 : 0"
       inkscape:vp_z="744.09446 : 262.25398 : 1"
       inkscape:persp3d-origin="372.04723 : 86.860295 : 1"
       id="perspective2669-64" /><clipPath
       id="b"><path
         style="fill:#252525;fill-opacity:0.60100002;stroke-width:12.5369997"
         inkscape:connector-curvature="0"
         d="m 188,128 c 0,80 -69.756,119.362 -69.756,119.362 C 64,244 8.638,193.922 8.638,128 8.638,62.078 64,12 118.244,8.638 118.244,8.638 188,48 188,128 Z"
         id="path5" /></clipPath><clipPath
       clipPathUnits="userSpaceOnUse"
       id="clipPath4531"><path
         style="fill:#515151;stroke-width:2.32683945;stroke-miterlimit:10;stroke-opacity:0.49000005"
         d="m 58.410041,-93.801804 v 21.438236 c 0,3.737513 -1.452763,6.746412 -3.257317,6.746412 -1.804551,0 -3.257316,-3.008899 -3.257316,-6.746412 v -19.711711 l 2.079755,-1.058336 2.116674,1.058336 z"
         id="path4533"
         inkscape:connector-curvature="0"
         sodipodi:nodetypes="cssscccc" /></clipPath></defs><g
     inkscape:label="Layer 1"
     inkscape:groupmode="layer"
     id="layer1"><g
       id="g2"
       transform="matrix(-1.7410645,-1.016131e-8,1.016131e-8,-1.7410645,163.2684,161.61546)"><path
         style="fill:#2d2d2d;stroke:#191919;stroke-width:2.117;stroke-opacity:1"
         clip-path="none"
         d="m 18.891001,18.891001 10.791908,0.133488 3.05654,2.142242 5.360666,-2.116673 h 27.51675 l 2.116674,2.116673 2.942803,-2.116673 20.498655,-0.159057 -0.158055,14.975768 -2.116673,2.116673 2.116673,3.704178 v 32.279265 l -2.116673,4.233346 2.116673,2.116673 L 91.175,91.174997 76.200231,91.016942 71.966885,88.900269 63.500192,91.016942 H 33.337601 l -2.645841,-2.116673 -1.587505,2.116673 -10.213254,0.158055 0.159057,-12.858093 2.116673,-4.233346 -2.116673,-2.116673 V 52.916827 l 2.116673,-2.116673 -2.116673,-4.233346 z"
         id="rect2"
         inkscape:connector-curvature="0"
         sodipodi:nodetypes="ccccccccccccccccccccccccccccc" /><path
         d="m 30.687473,30.8535 h 48.36 l 0.323481,16.609905 -2.116674,2.116673 2.116674,3.083892 -0.323481,26.549531 H 55.558381 l -1.587504,-1.587504 -3.17501,1.587504 H 30.687473 V 39.320193 l 2.116673,-2.116673 -2.116673,-3.33133 z"
         id="path4"
         inkscape:connector-curvature="0"
         style="fill:#404040;stroke:#191919;stroke-width:2.117"
         sodipodi:nodetypes="cccccccccccccc" /><path
         d="m 91.017,19.05 -12.7,12.7 m 12.7,59.267 -12.7,-12.7 m -59.267,12.7 12.7,-12.7 m -12.7,-59.267 12.7,12.7"
         fill="none"
         stroke="#191919"
         stroke-width="2.117"
         id="path6" /><circle
         style="fill:#000000;fill-opacity:0.282828;stroke:none;stroke-width:3.17501;stroke-miterlimit:4;stroke-dasharray:none;stroke-opacity:1"
         id="path821"
         cx="55.033501"
         cy="55.033501"
         r="11.707346" /><g
         id="g852"
         transform="translate(0,1.0631232)"><path
           clip-path="url(#clipPath4531)"
           transform="rotate(90,1.926e-4,3.2642e-4)"
           style="fill:#515151;stroke:#333333;stroke-width:3.72323;stroke-miterlimit:10;stroke-dasharray:none;stroke-opacity:1"
           d="m 58.410041,-93.801803 v 21.438235 c 0,3.737512 -1.452763,6.746411 -3.257316,6.746411 -1.804553,0 -3.257316,-3.008899 -3.257316,-6.746411 v -19.711711 l 2.079754,-1.058336 2.116674,1.058336 z"
           id="path4529"
           inkscape:connector-curvature="0"
           sodipodi:nodetypes="cssscccc" /><path
           sodipodi:nodetypes="ssscccssss"
           inkscape:connector-curvature="0"
           id="ellipse10"
           d="m 56.016544,38.761503 c 8.98029,0.543438 15.820025,8.269346 15.276971,17.2563 -0.145124,2.401615 -0.802793,4.650253 -1.860084,6.645795 -0.304156,0.574063 -0.641038,1.400388 -0.641038,1.400388 L 62.442374,65.617 58.209028,70.908683 c 0,0 -0.534067,0.226587 -1.138292,0.30211 -0.984574,0.123063 -1.994439,0.157456 -3.020763,0.09535 -8.980291,-0.543439 -15.820024,-8.269349 -15.27697,-17.256301 0.543053,-8.986954 8.263249,-15.831776 17.243541,-15.288339 z"
           style="fill:#a0a0a0;stroke:#333333;stroke-width:2.7;stroke-miterlimit:10;stroke-opacity:1" /><ellipse
           id="ellipse14"
           stroke-miterlimit="10"
           ry="4.7919998"
           rx="4.7950001"
           transform="matrix(0.06031685,-0.99817928,0.99817507,0.06038654,0,0)"
           cy="72.065529"
           cx="-51.867104"
           style="fill:#cfcfcf;stroke:#333333;stroke-width:1.746;stroke-miterlimit:10" /><path
           sodipodi:nodetypes="sssccccsss"
           inkscape:connector-curvature="0"
           id="ellipse16"
           d="m 86.152235,55.318582 c 2.51034,0.838097 3.86568,3.553865 3.02723,6.065835 -0.11656,0.349221 -0.26939,0.676117 -0.45288,0.977896 -0.26242,0.431572 -0.9591,1.132431 -0.9591,1.132431 l -2.57312,-1.064829 -1.30392,-1.974883 -3.64654,1.335719 c 0,0 -0.27512,-0.752005 -0.34034,-1.14956 -0.12201,-0.743679 -0.0701,-1.527177 0.18516,-2.291793 0.83844,-2.511971 3.55317,-3.868914 6.06351,-3.030816 z"
           style="fill:#cfcfcf;stroke:#333333;stroke-width:1.746;stroke-miterlimit:10;stroke-opacity:1" /><path
           style="fill:#626262;stroke:#272727;stroke-width:36;stroke-opacity:1"
           id="path18"
           clip-path="url(#b)"
           d="m 188,128 c 0,80 -69.756,119.362 -69.756,119.362 C 64,244 8.638,193.922 8.638,128 8.638,62.078 64,12 118.244,8.638 118.244,8.638 188,48 188,128 Z"
           transform="matrix(0.14668,0,0,0.14668,33.558519,36.259134)"
           inkscape:connector-curvature="0" /><path
           sodipodi:nodetypes="ccccccccccc"
           inkscape:connector-curvature="0"
           style="fill:#424242;stroke:#242424;stroke-width:1.21744;stroke-opacity:1"
           id="path20"
           d="m 51.859009,55.033635 -1.535728,1.785805 -0.05052,5.623508 -3.346439,-4.519747 -5.36404,1.689655 3.264565,-4.579401 -1.434527,-3.17483 3.53385,0.285084 3.346439,-4.519746 0.05052,5.623508 z" /><path
           id="path22"
           d="m 47.625519,38.100135 c -7.938,3.704 -6.35,6.35 -6.35,6.35 h 7.407999 l 6.35,7.408 6.350001,-7.408 h 7.408999 c 0,0 1.586999,-2.646 -6.350001,-6.35 -3.704999,-1.974 -10.054998,-1.974 -14.816998,0 z"
           style="fill:#c2c2c2;stroke:#515151;stroke-width:2.646;stroke-opacity:0.657"
           inkscape:connector-curvature="0" /></g></g></g></svg>
