<?xml version="1.0" encoding="UTF-8" standalone="no"?>
<svg
   width="250"
   height="85"
   viewBox="0 0 66.145833 22.489582"
   version="1.1"
   id="svg22844"
   inkscape:version="1.3 (0e150ed, 2023-07-21)"
   sodipodi:docname="bookshelf_2_valentines.svg"
   xmlns:inkscape="http://www.inkscape.org/namespaces/inkscape"
   xmlns:sodipodi="http://sodipodi.sourceforge.net/DTD/sodipodi-0.dtd"
   xmlns="http://www.w3.org/2000/svg"
   xmlns:svg="http://www.w3.org/2000/svg"
   xmlns:rdf="http://www.w3.org/1999/02/22-rdf-syntax-ns#"
   xmlns:cc="http://creativecommons.org/ns#"
   xmlns:dc="http://purl.org/dc/elements/1.1/">
  <defs
     id="defs22838" />
  <sodipodi:namedview
     id="base"
     pagecolor="#505050"
     bordercolor="#666666"
     borderopacity="1.0"
     inkscape:pageopacity="0"
     inkscape:pageshadow="2"
     inkscape:zoom="3.2809755"
     inkscape:cx="155.89876"
     inkscape:cy="44.498961"
     inkscape:document-units="px"
     inkscape:current-layer="layer1"
     inkscape:document-rotation="0"
     showgrid="false"
     inkscape:window-width="1312"
     inkscape:window-height="449"
     inkscape:window-x="0"
     inkscape:window-y="25"
     inkscape:window-maximized="0"
     fit-margin-top="0"
     fit-margin-left="0"
     fit-margin-right="0"
     fit-margin-bottom="0"
     inkscape:pagecheckerboard="1"
     units="px"
     height="85px"
     inkscape:showpageshadow="2"
     inkscape:deskcolor="#d1d1d1" />
  <metadata
     id="metadata22841">
    <rdf:RDF>
      <cc:Work
         rdf:about="">
        <dc:format>image/svg+xml</dc:format>
        <dc:type
           rdf:resource="http://purl.org/dc/dcmitype/StillImage" />
      </cc:Work>
    </rdf:RDF>
  </metadata>
  <g
     inkscape:label="Layer 1"
     inkscape:groupmode="layer"
     id="layer1"
     transform="translate(-72.661755,-93.410835)">
    <g
       id="g1927">
      <rect
         style="display:inline;fill:#302412;fill-opacity:1;stroke-width:0.142823"
         id="rect557-2-9"
         width="66.145836"
         height="22.489584"
         x="72.661758"
         y="93.410835"
         rx="3.481781"
         ry="3.3072917" />
      <rect
         style="display:inline;fill:#785a2e;fill-opacity:1;stroke-width:0.164597"
         id="rect1018-7-2"
         width="51.858334"
         height="18.520834"
         x="79.805504"
         y="95.39521"
         rx="1.458765"
         ry="1.308548" />
      <rect
         style="display:inline;fill:#785a2e;fill-opacity:1;stroke-width:0.151673"
         id="rect1020-2-7"
         width="3.175"
         height="18.520834"
         x="74.646133"
         y="95.39521"
         rx="1.3229167"
         ry="1.3229167" />
      <rect
         style="display:inline;fill:#785a2e;fill-opacity:1;stroke-width:0.151673"
         id="rect1020-2-7-3"
         width="3.175"
         height="18.520834"
         x="133.64821"
         y="95.39521"
         rx="1.3229167"
         ry="1.3229167" />
    </g>
    <g
       id="g1875">
      <ellipse
         style="fill:#9edfdd;fill-opacity:1;fill-rule:nonzero;stroke:#0e2b2a;stroke-width:0.925997;stroke-linecap:round;stroke-linejoin:round;stroke-miterlimit:4;stroke-dasharray:none;stroke-dashoffset:0;stroke-opacity:1;paint-order:normal"
         id="circle3305-9-5"
         cx="106.28225"
         cy="103.28164"
         rx="2.9541814"
         ry="2.9513478" />
      <path
         id="path2961-4-9-0-4-1"
         style="fill:#cb4431;fill-opacity:1;fill-rule:nonzero;stroke:#511b14;stroke-width:0.69453;stroke-linecap:round;stroke-linejoin:round;stroke-miterlimit:4;stroke-dasharray:none;stroke-dashoffset:0;stroke-opacity:1;paint-order:normal"
         d="m 107.78233,102.13367 a 1.1121366,1.1110913 0 0 0 -1.11196,1.11091 1.1121366,1.1110913 0 0 0 0.002,0.0581 1.1121366,1.1110913 0 0 0 -0.214,-0.0205 1.1121366,1.1110913 0 0 0 -1.11196,1.11091 1.1121366,1.1110913 0 0 0 0.78341,1.06056 1.1121366,1.1110913 0 0 0 -0.17801,0.60221 1.1121366,1.1110913 0 0 0 1.11195,1.1109 1.1121366,1.1110913 0 0 0 0.9058,-0.46618 1.1121366,1.1110913 0 0 0 0.81941,0.36026 1.1121366,1.1110913 0 0 0 1.11196,-1.1109 1.1121366,1.1110913 0 0 0 -0.2415,-0.69113 1.1121366,1.1110913 0 0 0 0.78603,-1.06253 1.1121366,1.1110913 0 0 0 -1.11196,-1.11093 1.1121366,1.1110913 0 0 0 -0.44112,0.0916 1.1121366,1.1110913 0 0 0 -1.11,-1.04356 z m 0.44112,2.13028 a 1.1121366,1.1110913 0 0 0 0.24019,0.62443 1.1121366,1.1110913 0 0 0 -0.57986,0.41716 1.1121366,1.1110913 0 0 0 -0.49086,-0.31058 1.1121366,1.1110913 0 0 0 0.17801,-0.60154 1.1121366,1.1110913 0 0 0 -0.002,-0.0589 1.1121366,1.1110913 0 0 0 0.21336,0.0205 1.1121366,1.1110913 0 0 0 0.44113,-0.0916 z" />
      <ellipse
         style="fill:#d3db57;fill-opacity:1;fill-rule:nonzero;stroke:#3c3f0d;stroke-width:0.463021;stroke-linecap:round;stroke-linejoin:round;stroke-miterlimit:4;stroke-dasharray:none;stroke-dashoffset:0;stroke-opacity:1;paint-order:normal"
         id="path2961-7-1-9-3-3-0"
         cx="107.8959"
         cy="104.65038"
         rx="0.78642541"
         ry="0.78568619" />
      <path
         id="path2961-4-9-0-1-2-4"
         style="fill:#cb4431;fill-opacity:1;fill-rule:nonzero;stroke:#511b14;stroke-width:0.694531;stroke-linecap:round;stroke-linejoin:round;stroke-miterlimit:4;stroke-dasharray:none;stroke-dashoffset:0;stroke-opacity:1;paint-order:normal"
         d="m 106.49429,98.069887 a 1.1121367,1.1110913 0 0 0 -1.11197,1.11157 1.1121367,1.1110913 0 0 0 0.003,0.0582 1.1121367,1.1110913 0 0 0 -0.21401,-0.0209 1.1121367,1.1110913 0 0 0 -1.11195,1.111573 1.1121367,1.1110913 0 0 0 0.78341,1.06122 1.1121367,1.1110913 0 0 0 -0.17868,0.60155 1.1121367,1.1110913 0 0 0 1.11262,1.11092 1.1121367,1.1110913 0 0 0 0.90513,-0.46621 1.1121367,1.1110913 0 0 0 0.81941,0.36028 1.1121367,1.1110913 0 0 0 1.11262,-1.11091 1.1121367,1.1110913 0 0 0 -0.2415,-0.69114 1.1121367,1.1110913 0 0 0 0.78603,-1.06252 1.1121367,1.1110913 0 0 0 -1.11196,-1.110923 1.1121367,1.1110913 0 0 0 -0.44112,0.0915 1.1121367,1.1110913 0 0 0 -1.10999,-1.04422 z m 0.4411,2.130293 a 1.1121367,1.1110913 0 0 0 0.23889,0.62444 1.1121367,1.1110913 0 0 0 -0.57856,0.41782 1.1121367,1.1110913 0 0 0 -0.49151,-0.31059 1.1121367,1.1110913 0 0 0 0.17802,-0.60155 1.1121367,1.1110913 0 0 0 -0.001,-0.0595 1.1121367,1.1110913 0 0 0 0.21337,0.0216 1.1121367,1.1110913 0 0 0 0.4411,-0.0922 z" />
      <ellipse
         style="fill:#d3db57;fill-opacity:1;fill-rule:nonzero;stroke:#3c3f0d;stroke-width:0.463021;stroke-linecap:round;stroke-linejoin:round;stroke-miterlimit:4;stroke-dasharray:none;stroke-dashoffset:0;stroke-opacity:1;paint-order:normal"
         id="path2961-7-1-9-3-1"
         cx="106.63796"
         cy="100.63244"
         rx="0.78642541"
         ry="0.78568619" />
    </g>
    <ellipse
       style="fill:#9edfdd;fill-opacity:1;fill-rule:nonzero;stroke:#0e2b2a;stroke-width:0.925997;stroke-linecap:round;stroke-linejoin:round;stroke-miterlimit:4;stroke-dasharray:none;stroke-dashoffset:0;stroke-opacity:1;paint-order:normal"
       id="circle3305-9"
       cx="25.819199"
       cy="139.35951"
       rx="2.9541814"
       ry="2.9513478"
       transform="rotate(-30)" />
    <path
       id="path2961-4-9-0-1-2"
       style="fill:#55d6ce;fill-opacity:1;fill-rule:nonzero;stroke:#0f3c39;stroke-width:0.694531;stroke-linecap:round;stroke-linejoin:round;stroke-miterlimit:4;stroke-dasharray:none;stroke-dashoffset:0;stroke-opacity:1;paint-order:normal"
       d="m 88.266605,104.09761 a 1.1110913,1.1121367 60 0 0 -0.407236,1.51865 1.1110913,1.1121367 60 0 0 0.0291,0.0504 1.1110913,1.1121367 60 0 0 -0.195779,0.0889 1.1110913,1.1121367 60 0 0 -0.407154,1.51859 1.1110913,1.1121367 60 0 0 1.209055,0.52734 1.1110913,1.1121367 60 0 0 0.146021,0.61032 1.1110913,1.1121367 60 0 0 1.518995,0.40577 1.1110913,1.1121367 60 0 0 0.550739,-0.85629 1.1110913,1.1121367 60 0 0 0.889848,-0.0977 1.1110913,1.1121367 60 0 0 0.40808,-1.51839 1.1110913,1.1121367 60 0 0 -0.55471,-0.47779 1.1110913,1.1121367 60 0 0 0.149431,-1.31317 1.1110913,1.1121367 60 0 0 -1.518475,-0.40608 1.1110913,1.1121367 60 0 0 -0.336254,0.29979 1.1110913,1.1121367 60 0 0 -1.483398,-0.34932 z m 1.447149,1.62433 a 1.1110913,1.1121367 60 0 0 0.519108,0.42133 1.1110913,1.1121367 60 0 0 -0.292172,0.65114 1.1110913,1.1121367 60 0 0 -0.580942,-0.0232 1.1110913,1.1121367 60 0 0 -0.146627,-0.60997 1.1110913,1.1121367 60 0 0 -0.03062,-0.051 1.1110913,1.1121367 60 0 0 0.19561,-0.088 1.1110913,1.1121367 60 0 0 0.335903,-0.3004 z" />
    <ellipse
       style="fill:#d3db57;fill-opacity:1;fill-rule:nonzero;stroke:#000000;stroke-width:0.463021;stroke-linecap:round;stroke-linejoin:round;stroke-miterlimit:4;stroke-dasharray:none;stroke-dashoffset:0;stroke-opacity:1;paint-order:normal"
       id="path2961-7-1-9-3"
       cx="24.535995"
       cy="136.847"
       rx="0.78642541"
       ry="0.78568619"
       transform="rotate(-30)" />
    <path
       id="path2961-4-9-0-4"
       style="fill:#55d6ce;fill-opacity:1;fill-rule:nonzero;stroke:#0f3c39;stroke-width:0.69453;stroke-linecap:round;stroke-linejoin:round;stroke-miterlimit:4;stroke-dasharray:none;stroke-dashoffset:0;stroke-opacity:1;paint-order:normal"
       d="m 92.765039,106.03503 a 1.1110913,1.1121366 60 0 0 -0.407522,1.51805 1.1110913,1.1121366 60 0 0 0.02905,0.0503 1.1110913,1.1121366 60 0 0 -0.195579,0.0892 1.1110913,1.1121366 60 0 0 -0.407565,1.51808 1.1110913,1.1121366 60 0 0 1.208724,0.52677 1.1110913,1.1121366 60 0 0 0.146953,0.61053 1.1110913,1.1121366 60 0 0 1.51847,0.40607 1.1110913,1.1121366 60 0 0 0.551338,-0.85662 1.1110913,1.1121366 60 0 0 0.88976,-0.0977 1.1110913,1.1121366 60 0 0 0.407536,-1.51805 1.1110913,1.1121366 60 0 0 -0.55471,-0.47778 1.1110913,1.1121366 60 0 0 0.149457,-1.3132 1.1110913,1.1121366 60 0 0 -1.518451,-0.40611 1.1110913,1.1121366 60 0 0 -0.336221,0.29989 1.1110913,1.1121366 60 0 0 -1.483068,-0.34875 z m 1.447161,1.62431 a 1.1110913,1.1121366 60 0 0 0.520226,0.42068 1.1110913,1.1121366 60 0 0 -0.293593,0.6512 1.1110913,1.1121366 60 0 0 -0.580422,-0.0235 1.1110913,1.1121366 60 0 0 -0.146574,-0.60997 1.1110913,1.1121366 60 0 0 -0.03118,-0.05 1.1110913,1.1121366 60 0 0 0.195025,-0.0889 1.1110913,1.1121366 60 0 0 0.336221,-0.29989 z" />
    <ellipse
       style="fill:#d3db57;fill-opacity:1;fill-rule:nonzero;stroke:#000000;stroke-width:0.463021;stroke-linecap:round;stroke-linejoin:round;stroke-miterlimit:4;stroke-dasharray:none;stroke-dashoffset:0;stroke-opacity:1;paint-order:normal"
       id="path2961-7-1-9-3-3"
       cx="27.432907"
       cy="140.72826"
       rx="0.78642541"
       ry="0.78568619"
       transform="rotate(-30)" />
    <rect
       style="fill:#adadad;fill-opacity:1;fill-rule:evenodd;stroke:#1f1f1f;stroke-width:0.658167;stroke-linecap:round;stroke-linejoin:round;stroke-miterlimit:20;stroke-dasharray:none;stroke-opacity:1"
       id="rect31"
       width="9.8927326"
       height="6.5951552"
       x="42.821102"
       y="150.87375"
       transform="rotate(-31.326758)" />
    <path
       id="rect31-6"
       style="fill:#adadad;fill-opacity:1;fill-rule:evenodd;stroke:#1f1f1f;stroke-width:0.658167;stroke-linecap:round;stroke-linejoin:round;stroke-miterlimit:20;stroke-dasharray:none;stroke-opacity:1"
       d="m 115.02048,106.61541 6.05661,0.43709 2.39395,-5.58051 z"
       sodipodi:nodetypes="cccc" />
    <path
       sodipodi:type="star"
       style="fill:#a03535;fill-opacity:1;fill-rule:evenodd;stroke:#2e0f0f;stroke-width:1.3843;stroke-linecap:round;stroke-linejoin:round;stroke-miterlimit:20;stroke-dasharray:none;stroke-opacity:1"
       id="path37"
       inkscape:flatsided="false"
       sodipodi:sides="5"
       sodipodi:cx="1535.6332"
       sodipodi:cy="539.03607"
       sodipodi:r1="3.6127491"
       sodipodi:r2="2.8901989"
       sodipodi:arg1="0.95054684"
       sodipodi:arg2="1.5788654"
       inkscape:rounded="0.4"
       inkscape:randomized="0"
       d="m 1537.733,541.97589 c -0.6912,0.49376 -1.2737,-0.0429 -2.1231,-0.0497 -0.8495,-0.007 -1.4405,0.5203 -2.1238,0.0154 -0.6832,-0.50486 -0.3528,-1.22461 -0.6088,-2.03464 -0.256,-0.81002 -0.94,-1.20921 -0.6709,-2.015 0.269,-0.80578 1.0556,-0.71399 1.7469,-1.20776 0.6913,-0.49377 0.8595,-1.26763 1.709,-1.26078 0.8495,0.007 1.0053,0.78334 1.6885,1.2882 0.6832,0.50485 1.4712,0.42577 1.7272,1.23579 0.256,0.81002 -0.4344,1.19813 -0.7034,2.00391 -0.269,0.80579 0.05,1.53078 -0.6416,2.02455 z"
       inkscape:transform-center-x="0.032624131"
       inkscape:transform-center-y="0.081329665"
       transform="matrix(0.40613814,-0.24719572,0.24719572,0.40613814,-636.1719,267.20765)" />
  </g>
</svg>
