<?xml version="1.0" encoding="UTF-8" standalone="no"?>
<!-- Created with Inkscape (http://www.inkscape.org/) -->

<svg
   width="219.595"
   height="74.389"
   viewBox="0 0 58.101176 19.68209"
   version="1.1"
   id="svg29172"
   inkscape:version="1.3 (0e150ed, 2023-07-21)"
   sodipodi:docname="gun_mount_flues.svg"
   xmlns:inkscape="http://www.inkscape.org/namespaces/inkscape"
   xmlns:sodipodi="http://sodipodi.sourceforge.net/DTD/sodipodi-0.dtd"
   xmlns="http://www.w3.org/2000/svg"
   xmlns:svg="http://www.w3.org/2000/svg">
  <sodipodi:namedview
     id="namedview29174"
     pagecolor="#505050"
     bordercolor="#ffffff"
     borderopacity="1"
     inkscape:pageshadow="0"
     inkscape:pageopacity="0"
     inkscape:pagecheckerboard="1"
     inkscape:document-units="px"
     showgrid="false"
     units="px"
     inkscape:zoom="1.6505311"
     inkscape:cx="107.54114"
     inkscape:cy="36.049002"
     inkscape:window-width="1440"
     inkscape:window-height="460"
     inkscape:window-x="6"
     inkscape:window-y="412"
     inkscape:window-maximized="0"
     inkscape:current-layer="layer1"
     inkscape:showpageshadow="2"
     inkscape:deskcolor="#d1d1d1" />
  <defs
     id="defs29169">
    <style
       id="style955">&#10;      .cls-1 {&#10;        fill: #917852;&#10;      }&#10;&#10;      .cls-2, .cls-3 {&#10;        fill: #c8a572;&#10;      }&#10;&#10;      .cls-4 {&#10;        fill: #121212;&#10;      }&#10;&#10;      .cls-5 {&#10;        fill: #181209;&#10;      }&#10;&#10;      .cls-6 {&#10;        fill: #19130b;&#10;      }&#10;&#10;      .cls-7 {&#10;        fill: #9a825e;&#10;      }&#10;&#10;      .cls-3, .cls-8, .cls-9, .cls-10 {&#10;        stroke-width: 3px;&#10;      }&#10;&#10;      .cls-3, .cls-10 {&#10;        stroke: #1a1814;&#10;      }&#10;&#10;      .cls-8 {&#10;        stroke: #121212;&#10;      }&#10;&#10;      .cls-8, .cls-9 {&#10;        fill: #5e5c64;&#10;      }&#10;&#10;      .cls-9 {&#10;        stroke: #171717;&#10;      }&#10;&#10;      .cls-10 {&#10;        fill: #77767b;&#10;      }&#10;    </style>
  </defs>
  <g
     inkscape:label="Layer 1"
     inkscape:groupmode="layer"
     id="layer1">
    <g
       id="g2"
       transform="matrix(1.5050687,0,0,1.5050687,5.2864534,-132.74587)">
      <rect
         style="fill:#484851;fill-opacity:1;stroke:#18181b;stroke-width:0.529167;stroke-miterlimit:29;stroke-dasharray:none;stroke-opacity:1"
         id="rect5"
         width="1.1656001"
         height="6.7571011"
         x="20.179853"
         y="90.265549"
         ry="0.58280003" />
      <rect
         style="fill:#484851;fill-opacity:1;stroke:#18181b;stroke-width:0.529167;stroke-miterlimit:29;stroke-dasharray:none;stroke-opacity:1"
         id="rect7"
         width="1.1656001"
         height="6.7571011"
         x="11.206638"
         y="90.265549"
         ry="0.58280003" />
      <rect
         style="fill:#7a5c2e;fill-opacity:1;stroke:#302412;stroke-width:0.79375;stroke-miterlimit:29;stroke-dasharray:none;stroke-opacity:1"
         id="rect8"
         width="12.411525"
         height="2.4408197"
         x="10.062655"
         y="88.744438"
         ry="0.62972915" />
      <g
         id="g8"
         transform="matrix(0.26458333,0,0,0.26458333,3.6543899,91.559338)">
        <path
           id="path15"
           style="clip-rule:evenodd;fill:#5c342b;fill-opacity:1;fill-rule:evenodd;stroke:none;stroke-width:3;stroke-linecap:round;stroke-linejoin:round;stroke-miterlimit:3.873;stroke-dasharray:none"
           class="st2"
           d="M 22.772096,4.9347436 C 18.256268,5.6277482 15.500975,5.1496943 10.985129,5.1496943 9.10966,5.1011685 7.2542551,5.1101039 5.3960366,5.3417174 3.8512151,5.4997572 2.7168567,5.9025551 2.0854791,7.1071733 1.7789461,7.675424 1.592583,8.4332251 1.5317861,9.4515626 c -0.014401,0.2399381 -0.023191,0.4923415 -0.023191,0.7623564 0,0.0071 -1.08e-5,0.01306 0,0.02006 -1.08e-5,0.0071 0,0.01305 0,0.02006 7.537e-4,0.267512 0.00815,0.523265 0.023191,0.762357 0.06079,1.018336 0.24716,1.776138 0.553693,2.344388 0.6313776,1.204618 1.765736,1.607416 3.3105575,1.765457 1.8467755,0.302 3.7246458,0.19202 5.5890924,0.19202 4.515846,0 7.271139,-0.478052 11.786967,0.214953 H 35.979534 V 15.43864 5.0293214 4.9347463 Z" />
        <path
           id="path2"
           class="st1"
           d="m 11.979823,4.9564849 h 12.084665 c 0,0 -0.551237,3.5183272 -0.551237,5.3307991 0,1.812472 0.551237,5.224183 0.551237,5.224183 H 11.979823 c 0,0 0.487642,-3.518328 0.466432,-5.330798 0.02124,-1.7591638 -0.466432,-5.2241841 -0.466432,-5.2241841 z"
           style="clip-rule:evenodd;fill:#5e3d2c;fill-opacity:1;fill-rule:evenodd;stroke:#23140b;stroke-width:3;stroke-linecap:round;stroke-linejoin:round;stroke-miterlimit:3.873;stroke-dasharray:none" />
        <path
           id="path10"
           style="clip-rule:evenodd;fill:none;fill-rule:evenodd;stroke:#1f120f;stroke-width:3;stroke-linecap:round;stroke-linejoin:round;stroke-miterlimit:3.873;stroke-dasharray:none;stroke-opacity:1"
           class="st2"
           d="M 22.772096,4.9347436 C 18.256268,5.6277482 15.500975,5.1496943 10.985129,5.1496943 9.10966,5.1011685 7.2542551,5.1101039 5.3960366,5.3417174 3.8512151,5.4997572 2.7168567,5.9025551 2.0854791,7.1071733 1.7789461,7.675424 1.592583,8.4332251 1.5317861,9.4515626 c -0.014401,0.2399381 -0.023191,0.4923415 -0.023191,0.7623564 0,0.0071 -1.08e-5,0.01306 0,0.02006 -1.08e-5,0.0071 0,0.01305 0,0.02006 7.537e-4,0.267512 0.00815,0.523265 0.023191,0.762357 0.06079,1.018336 0.24716,1.776138 0.553693,2.344388 0.6313776,1.204618 1.765736,1.607416 3.3105575,1.765457 1.8467755,0.302 3.7246458,0.19202 5.5890924,0.19202 4.515846,0 7.271139,-0.478052 11.786967,0.214953 H 35.979534 V 15.43864 5.0293214 4.9347463 Z" />
        <rect
           id="rect3"
           x="35.979542"
           y="4.9298296"
           class="st3"
           width="8.9892874"
           height="10.60829"
           style="clip-rule:evenodd;fill:#595959;fill-opacity:1;fill-rule:evenodd;stroke:#171717;stroke-width:3;stroke-linecap:round;stroke-linejoin:round;stroke-miterlimit:3.873;stroke-dasharray:none;stroke-opacity:1" />
        <path
           id="path11"
           class="st8"
           d="M 35.894729,10.980287 V 9.434355 H 33.435396 V 8.8479679 c -2.310922,1.3860071 -7.717221,1.3860061 -7.717221,1.3860061 0,0 5.385098,10e-7 7.717221,1.386009 v -0.586388 z"
           style="clip-rule:evenodd;fill:none;fill-rule:evenodd;stroke:#171717;stroke-width:3;stroke-linecap:round;stroke-linejoin:round;stroke-miterlimit:7.4698;stroke-dasharray:none;stroke-opacity:1" />
        <g
           id="g5"
           style="fill:#595959;fill-opacity:1;stroke:#171717;stroke-width:2.03281;stroke-dasharray:none;stroke-opacity:1;paint-order:markers fill stroke"
           transform="matrix(1.4842421,0,0,1.4673926,-141.62305,-51.029831)">
          <path
             id="path7"
             class="st5"
             d="m 124.35825,41.750114 h 31.83938 v 5.049645 l -29.49678,0.908209 c -2.3426,0 -2.3426,-1.271493 -2.3426,-5.957854 z"
             style="clip-rule:evenodd;fill:#595959;fill-opacity:1;fill-rule:evenodd;stroke:#171717;stroke-width:2.03281;stroke-linecap:round;stroke-linejoin:round;stroke-miterlimit:7.4698;stroke-dasharray:none;stroke-opacity:1;paint-order:markers fill stroke" />
          <path
             id="path5"
             class="st5"
             d="m 124.35825,41.750114 h 31.83938 V 36.700469 L 126.70085,35.79226 c -2.3426,0 -2.3426,1.271493 -2.3426,5.957854 z"
             style="clip-rule:evenodd;fill:#595959;fill-opacity:1;fill-rule:evenodd;stroke:#171717;stroke-width:2.03281;stroke-linecap:round;stroke-linejoin:round;stroke-miterlimit:7.4698;stroke-dasharray:none;stroke-opacity:1;paint-order:markers fill stroke" />
        </g>
        <path
           style="fill:#5c342b;fill-opacity:1;stroke:#171717;stroke-width:3;stroke-linecap:butt;stroke-dasharray:none;stroke-opacity:1;paint-order:markers fill stroke"
           d="M 53.104142,1.6945788 V 18.773373"
           id="path16" />
        <path
           style="fill:#211110;fill-opacity:1;stroke:#171717;stroke-width:3;stroke-linecap:round;stroke-dasharray:none;stroke-opacity:1;paint-order:markers fill stroke"
           d="M 34.616127,10.233976 H 39.4177"
           id="path17" />
      </g>
    </g>
  </g>
</svg>
