<?xml version="1.0" encoding="UTF-8" standalone="no"?>
<!-- Created with Inkscape (http://www.inkscape.org/) -->

<svg
   width="166.744"
   height="74.389343"
   viewBox="0 0 44.117683 19.682181"
   version="1.1"
   id="svg29172"
   inkscape:version="1.3 (0e150ed, 2023-07-21)"
   sodipodi:docname="gun_mount_vepr12.svg"
   xmlns:inkscape="http://www.inkscape.org/namespaces/inkscape"
   xmlns:sodipodi="http://sodipodi.sourceforge.net/DTD/sodipodi-0.dtd"
   xmlns="http://www.w3.org/2000/svg"
   xmlns:svg="http://www.w3.org/2000/svg">
  <sodipodi:namedview
     id="namedview29174"
     pagecolor="#505050"
     bordercolor="#ffffff"
     borderopacity="1"
     inkscape:pageshadow="0"
     inkscape:pageopacity="0"
     inkscape:pagecheckerboard="1"
     inkscape:document-units="px"
     showgrid="false"
     units="px"
     inkscape:zoom="4.1053452"
     inkscape:cx="16.441979"
     inkscape:cy="-15.345847"
     inkscape:window-width="1440"
     inkscape:window-height="847"
     inkscape:window-x="0"
     inkscape:window-y="25"
     inkscape:window-maximized="0"
     inkscape:current-layer="layer1"
     inkscape:showpageshadow="2"
     inkscape:deskcolor="#d1d1d1" />
  <defs
     id="defs29169">
    <style
       id="style955">&#10;      .cls-1 {&#10;        fill: #917852;&#10;      }&#10;&#10;      .cls-2, .cls-3 {&#10;        fill: #c8a572;&#10;      }&#10;&#10;      .cls-4 {&#10;        fill: #121212;&#10;      }&#10;&#10;      .cls-5 {&#10;        fill: #181209;&#10;      }&#10;&#10;      .cls-6 {&#10;        fill: #19130b;&#10;      }&#10;&#10;      .cls-7 {&#10;        fill: #9a825e;&#10;      }&#10;&#10;      .cls-3, .cls-8, .cls-9, .cls-10 {&#10;        stroke-width: 3px;&#10;      }&#10;&#10;      .cls-3, .cls-10 {&#10;        stroke: #1a1814;&#10;      }&#10;&#10;      .cls-8 {&#10;        stroke: #121212;&#10;      }&#10;&#10;      .cls-8, .cls-9 {&#10;        fill: #5e5c64;&#10;      }&#10;&#10;      .cls-9 {&#10;        stroke: #171717;&#10;      }&#10;&#10;      .cls-10 {&#10;        fill: #77767b;&#10;      }&#10;    </style>
  </defs>
  <g
     inkscape:label="Layer 1"
     inkscape:groupmode="layer"
     id="layer1"
     transform="translate(-7.2641525,-0.28846598)">
    <rect
       style="display:inline;fill:#252527;fill-opacity:1;stroke-width:0.0565795"
       id="rect557-2-9-3"
       width="44.117683"
       height="5.2916665"
       x="-51.381836"
       y="-5.5801325"
       rx="1.6536459"
       ry="1.6536026"
       transform="scale(-1)" />
    <rect
       style="display:inline;fill:#252527;fill-opacity:1;stroke-width:0.158334"
       id="rect1020-2-7-3-2-1"
       width="4.1367345"
       height="15.491096"
       x="-48.206837"
       y="-19.970646"
       rx="1.6536459"
       ry="1.6536459"
       transform="scale(-1)" />
    <rect
       style="display:inline;fill:#535356;fill-opacity:1;stroke-width:0.0526471"
       id="rect1020-2-7-3-8"
       width="2.284677"
       height="3.1010845"
       x="-47.280838"
       y="-19.044416"
       rx="0.72760415"
       ry="0.72760415"
       transform="scale(-1)" />
    <rect
       style="display:inline;fill:#535356;fill-opacity:1;stroke-width:0.0583208"
       id="rect1020-2-7-3-8-5"
       width="2.284677"
       height="3.8055022"
       x="-47.280807"
       y="-9.8977108"
       rx="0.72760415"
       ry="0.73984098"
       transform="scale(-1)" />
    <rect
       style="display:inline;fill:#252527;fill-opacity:1;stroke-width:0.160238"
       id="rect1020-2-7-3-2-1-1"
       width="4.2434621"
       height="15.466866"
       x="-31.444725"
       y="-19.956417"
       rx="1.6536459"
       ry="1.6536459"
       transform="scale(-1)" />
    <rect
       style="display:inline;fill:#535356;fill-opacity:1;stroke-width:0.0399344"
       id="rect1020-2-7-3-8-2-0"
       width="2.284677"
       height="1.7842621"
       x="-30.465332"
       y="-19.044416"
       rx="0.72760415"
       ry="0.68109649"
       transform="scale(-1)" />
    <rect
       style="display:inline;fill:#535356;fill-opacity:1;stroke-width:0.0509504"
       id="rect1020-2-7-3-8-5-4-0"
       width="2.284677"
       height="2.9044211"
       x="-30.465332"
       y="-8.9966784"
       rx="0.73109031"
       ry="0.73905259"
       transform="scale(-1)" />
    <rect
       style="display:inline;fill:#535356;fill-opacity:1;stroke-width:0.0585354"
       id="rect1018-7-2-6"
       width="41.736435"
       height="2.9104166"
       x="-50.191212"
       y="-4.3895082"
       rx="0.46302083"
       ry="0.46302083"
       transform="scale(-1)" />
    <rect
       style="display:inline;fill:#252527;fill-opacity:1;stroke-width:0.161807"
       id="rect1020-2-7-3-2"
       width="4.3501897"
       height="15.384368"
       x="-14.789341"
       y="-19.959696"
       rx="1.6536459"
       ry="1.6536459"
       transform="scale(-1)" />
    <rect
       style="display:inline;fill:#535356;fill-opacity:1;stroke-width:0.0583201"
       id="rect1020-2-7-3-8-5-4"
       width="2.284677"
       height="3.8054049"
       x="-13.756585"
       y="-9.8976622"
       rx="0.85204089"
       ry="0.72760415"
       transform="scale(-1)" />
    <rect
       style="display:inline;fill:#535356;fill-opacity:1;stroke-width:0.0526471"
       id="rect1020-2-7-3-8-2-0-3"
       width="2.284677"
       height="3.1010845"
       x="-13.756585"
       y="-19.044416"
       rx="0.72760415"
       ry="0.72760415"
       transform="scale(-1)" />
    <g
       id="g1"
       transform="matrix(0.72520928,0,0,0.72520928,20.878488,38.653501)">
      <rect
         style="display:inline;fill:#3e3f41;fill-opacity:1;stroke-width:0.0384177"
         id="rect120"
         width="1.5044135"
         height="2.5077901"
         x="-29.279459"
         y="30.422235"
         rx="0.47911242"
         ry="0.58840013"
         transform="scale(-1)" />
      <rect
         style="display:inline;fill:#3e3f41;fill-opacity:1;stroke-width:0.0376464"
         id="rect125"
         width="1.4446017"
         height="2.5077901"
         x="4.4192863"
         y="30.422235"
         transform="scale(-1)"
         ry="0.58840013"
         rx="0.46006405" />
      <rect
         style="display:inline;fill:#3e3f41;fill-opacity:1;stroke-width:0.0376466"
         id="rect128"
         width="1.4446015"
         height="2.5077901"
         x="-13.175179"
         y="30.422235"
         rx="0.46006405"
         ry="0.58840013"
         transform="scale(-1)" />
      <path
         class="st0"
         d="m 29.861334,-37.8468 h 2.39924 c 0.09409,0 0.141123,0.188175 0.141123,0.423395 v 3.575339 c 0,0.23522 -0.09409,0.423395 -0.141123,0.423395 h -2.39924 z"
         id="path195"
         style="clip-rule:evenodd;fill:#3d3b38;fill-rule:evenodd;stroke:#191615;stroke-width:1.41132;stroke-linecap:round;stroke-linejoin:round;stroke-miterlimit:3.873" />
      <path
         class="st1"
         d="m 29.859934,-37.93375 c 0,-0.379412 -0.141105,-0.711396 -0.282213,-0.711396 H 14.197108 v 6.165436 h 15.380613 c 0.141105,0 0.282213,-0.331984 0.282213,-0.711396 z"
         id="path196"
         style="clip-rule:evenodd;fill:#43403d;fill-rule:evenodd;stroke:#191615;stroke-width:0.708458;stroke-linecap:square;stroke-linejoin:round;stroke-miterlimit:3.873;stroke-dasharray:none" />
      <path
         class="st2"
         d="m 39.176031,-37.047053 c 0,0.188175 -0.282264,0.376351 -0.658616,0.376351 -0.37635,0 -0.658613,-0.141123 -0.658613,-0.376351 0,-0.188177 0.282263,-0.376352 0.658613,-0.376352 0.376352,0 0.658616,0.141123 0.658616,0.376352 z"
         id="path197"
         style="clip-rule:evenodd;fill:none;fill-rule:evenodd;stroke:#191615;stroke-width:1.41132;stroke-linecap:round;stroke-linejoin:round;stroke-miterlimit:3.873" />
      <path
         class="st2"
         d="m 38.517415,-34.788624 c 0.390481,0 0.683338,-0.341668 0.683338,-0.780955 0,-0.43929 -0.292857,-0.780957 -0.683338,-0.780957 -0.390478,0 -0.683335,0.341667 -0.683335,0.780957 0,0.439287 0.292857,0.780955 0.683335,0.780955 z"
         id="path198"
         style="clip-rule:evenodd;fill:none;fill-rule:evenodd;stroke:#191615;stroke-width:1.41132;stroke-linecap:round;stroke-linejoin:round;stroke-miterlimit:3.873" />
      <path
         class="st2"
         d="m 39.176031,-34.177373 c 0,0.188175 -0.282264,0.376352 -0.658616,0.376352 -0.37635,0 -0.658613,-0.141123 -0.658613,-0.376352 0,-0.188175 0.282263,-0.376352 0.658613,-0.376352 0.376352,0 0.658616,0.188177 0.658616,0.376352 z"
         id="path199"
         style="clip-rule:evenodd;fill:none;fill-rule:evenodd;stroke:#191615;stroke-width:1.41132;stroke-linecap:round;stroke-linejoin:round;stroke-miterlimit:3.873" />
      <path
         class="st3"
         d="M 39.411251,-37.752711 H 36.54157 l -0.517481,0.188175 H 14.195707 v 3.904646 h 21.828382 l 0.517481,0.188176 h 2.869681 c 0.09409,0 0.141123,-0.188176 0.141123,-0.423396 v -3.481251 c 0,-0.188175 -0.04705,-0.37635 -0.141123,-0.37635 z m -0.23522,0.705658 c 0,0.188175 -0.282264,0.376351 -0.658616,0.376351 -0.37635,0 -0.658613,-0.141123 -0.658613,-0.376351 0,-0.188177 0.282263,-0.376352 0.658613,-0.376352 0.376352,0 0.658616,0.141123 0.658616,0.376352 z m -0.658616,2.164021 c 0.376352,0 0.658616,-0.329307 0.658616,-0.752703 0,-0.423395 -0.282264,-0.752704 -0.658616,-0.752704 -0.37635,0 -0.658613,0.329309 -0.658613,0.752704 0,0.423396 0.282263,0.752703 0.658613,0.752703 z m 0,1.082011 c 0.376352,0 0.658616,-0.141123 0.658616,-0.376352 0,-0.188175 -0.282264,-0.376352 -0.658616,-0.376352 -0.37635,0 -0.658613,0.141123 -0.658613,0.376352 0,0.188175 0.282263,0.376352 0.658613,0.376352 z"
         id="path200"
         style="clip-rule:evenodd;fill:#3b3835;fill-rule:evenodd;stroke:#191919;stroke-width:0.705659;stroke-linecap:round;stroke-linejoin:round;stroke-miterlimit:3.873" />
      <path
         class="st4"
         d="m -15.548718,-37.444257 c 0,-0.309262 0.142207,-0.579865 0.284427,-0.579865 h 0.474048 v 4.870861 h -0.474048 c -0.142207,0 -0.284427,-0.270603 -0.284427,-0.579864 z"
         id="path201"
         style="clip-rule:evenodd;fill:#413b35;fill-rule:evenodd;stroke:#191615;stroke-width:1.41132;stroke-linecap:round;stroke-linejoin:round;stroke-miterlimit:3.873" />
      <rect
         x="-14.77145"
         y="-38.026253"
         class="st5"
         width="0.87003475"
         height="4.8751264"
         id="rect201"
         style="clip-rule:evenodd;fill:#433d37;fill-rule:evenodd;stroke:#191615;stroke-width:1.41132;stroke-linecap:square;stroke-linejoin:round;stroke-miterlimit:7.4698" />
      <rect
         x="-13.984366"
         y="-38.024124"
         class="st6"
         width="14.126605"
         height="4.8708591"
         id="rect202"
         style="clip-rule:evenodd;fill:#49423b;fill-rule:evenodd;stroke:#191615;stroke-width:1.41132;stroke-linecap:square;stroke-linejoin:round;stroke-miterlimit:7.4698" />
      <rect
         x="-12.657034"
         y="-38.024124"
         class="st7"
         width="10.0498"
         height="4.8708591"
         id="rect203"
         style="clip-rule:evenodd;fill:#464039;fill-rule:evenodd;stroke:#191615;stroke-width:1.41132;stroke-linecap:square;stroke-linejoin:round;stroke-miterlimit:7.4698" />
      <path
         class="st8"
         d="M 2.9051653,-38.787679 H 0.17661834 c -0.04705,0 -0.09409,0.141123 -0.09409,0.282264 v 5.739359 c 0,0.141141 0.04705,0.282264 0.09409,0.282264 H 2.9051653 c 0.04705,0 0.09409,-0.141123 0.09409,-0.282264 v -5.739359 c 0,-0.141123 -0.04705,-0.282264 -0.09409,-0.282264 z"
         id="path203"
         style="clip-rule:evenodd;fill:#5a524a;fill-rule:evenodd;stroke:#191615;stroke-width:1.41132;stroke-linecap:round;stroke-linejoin:round;stroke-miterlimit:7.4698" />
      <path
         class="st9"
         d="M 2.8581223,-39.116986 H 14.10162 c 0.04705,0 0.09409,0.141123 0.09409,0.282264 v 6.445018 c 0,0.141123 -0.04705,0.282931 -0.09409,0.282264 -4.096246,-0.05807 -7.5840967,-0.01476 -11.2434977,0 -0.04705,1.88e-4 -0.09409,-0.141123 -0.09409,-0.282264 v -6.445018 c 0,-0.141141 0.04705,-0.282264 0.09409,-0.282264 z"
         id="path204"
         style="clip-rule:evenodd;fill:#4b4744;fill-rule:evenodd;stroke:#191615;stroke-width:1.41132;stroke-linecap:round;stroke-linejoin:round;stroke-miterlimit:7.4698"
         sodipodi:nodetypes="sssssssss" />
      <rect
         x="4.9280572"
         y="-37.564537"
         class="st10"
         width="8.6560822"
         height="3.9046457"
         id="rect204"
         style="clip-rule:evenodd;fill:#3e3b38;fill-rule:evenodd;stroke-width:0.470439" />
      <rect
         x="4.9280572"
         y="-37.564537"
         class="st11"
         width="0.37635142"
         height="3.9046457"
         id="rect205"
         style="fill:#484541;stroke-width:0.470439" />
      <rect
         x="5.9630189"
         y="-37.564537"
         class="st12"
         width="0.89383453"
         height="3.9046457"
         id="rect206"
         style="fill:#6e6963;stroke-width:0.470439" />
      <rect
         x="7.7506928"
         y="-37.564537"
         class="st12"
         width="0.94087845"
         height="3.9046457"
         id="rect207"
         style="fill:#6e6963;stroke-width:0.470439" />
      <rect
         x="9.5853987"
         y="-37.564537"
         class="st12"
         width="1.0349663"
         height="3.9046457"
         id="rect208"
         style="fill:#6e6963;stroke-width:0.470439" />
      <rect
         x="11.550536"
         y="-37.564537"
         class="st12"
         width="0.90502137"
         height="3.9046457"
         id="rect209"
         style="fill:#6e6963;stroke-width:0.430246" />
      <rect
         x="13.207791"
         y="-37.564537"
         class="st11"
         width="0.37635142"
         height="3.9046457"
         id="rect210"
         style="fill:#484541;stroke-width:0.470439" />
      <rect
         x="33.577805"
         y="-36.247307"
         class="st13"
         width="2.2581098"
         height="1.3218979"
         id="rect211"
         style="fill:#2e2b29;stroke-width:0.470439" />
      <rect
         x="34.200306"
         y="-35.917999"
         class="st14"
         width="0.99725521"
         height="0.65861475"
         id="rect212"
         style="fill:#d92f2f;stroke-width:0.470439" />
      <rect
         x="33.577805"
         y="-36.952969"
         class="st2"
         width="2.2581084"
         height="2.7285476"
         id="rect213"
         style="clip-rule:evenodd;fill:none;fill-rule:evenodd;stroke:#191615;stroke-width:1.41132;stroke-linecap:round;stroke-linejoin:round;stroke-miterlimit:3.873" />
      <path
         class="st2"
         d="m 36.54157,-37.752711 h 2.869681 c 0.09409,0 0.141123,0.188175 0.141123,0.423395 v 3.48125 c 0,0.23522 -0.09409,0.423395 -0.141123,0.423395 H 36.54157 l -0.517481,-0.188175 H 14.195707 v -3.904647 h 21.828382 z"
         id="path213"
         style="clip-rule:evenodd;fill:none;fill-rule:evenodd;stroke:#191615;stroke-width:1.41132;stroke-linecap:round;stroke-linejoin:round;stroke-miterlimit:3.873" />
      <rect
         x="5.2661824"
         y="-37.564537"
         class="st2"
         width="7.8916192"
         height="3.9046457"
         id="rect214"
         style="clip-rule:evenodd;fill:none;fill-rule:evenodd;stroke:#191615;stroke-width:1.41132;stroke-linecap:round;stroke-linejoin:round;stroke-miterlimit:3.873" />
    </g>
  </g>
</svg>
