<?xml version="1.0" encoding="UTF-8" standalone="no"?>
<!-- Created with Inkscape (http://www.inkscape.org/) -->

<svg
   width="166.744"
   height="74.389343"
   viewBox="0 0 44.117683 19.682181"
   version="1.1"
   id="svg29172"
   inkscape:version="1.3 (0e150ed, 2023-07-21)"
   sodipodi:docname="gun_mount_vepr12.svg"
   xmlns:inkscape="http://www.inkscape.org/namespaces/inkscape"
   xmlns:sodipodi="http://sodipodi.sourceforge.net/DTD/sodipodi-0.dtd"
   xmlns="http://www.w3.org/2000/svg"
   xmlns:svg="http://www.w3.org/2000/svg">
  <sodipodi:namedview
     id="namedview29174"
     pagecolor="#505050"
     bordercolor="#ffffff"
     borderopacity="1"
     inkscape:pageshadow="0"
     inkscape:pageopacity="0"
     inkscape:pagecheckerboard="1"
     inkscape:document-units="px"
     showgrid="false"
     units="px"
     inkscape:zoom="6.6481798"
     inkscape:cx="-3.0835508"
     inkscape:cy="46.478887"
     inkscape:window-width="1440"
     inkscape:window-height="449"
     inkscape:window-x="0"
     inkscape:window-y="423"
     inkscape:window-maximized="0"
     inkscape:current-layer="layer1"
     inkscape:showpageshadow="2"
     inkscape:deskcolor="#d1d1d1" />
  <defs
     id="defs29169">
    <style
       id="style955">&#10;      .cls-1 {&#10;        fill: #917852;&#10;      }&#10;&#10;      .cls-2, .cls-3 {&#10;        fill: #c8a572;&#10;      }&#10;&#10;      .cls-4 {&#10;        fill: #121212;&#10;      }&#10;&#10;      .cls-5 {&#10;        fill: #181209;&#10;      }&#10;&#10;      .cls-6 {&#10;        fill: #19130b;&#10;      }&#10;&#10;      .cls-7 {&#10;        fill: #9a825e;&#10;      }&#10;&#10;      .cls-3, .cls-8, .cls-9, .cls-10 {&#10;        stroke-width: 3px;&#10;      }&#10;&#10;      .cls-3, .cls-10 {&#10;        stroke: #1a1814;&#10;      }&#10;&#10;      .cls-8 {&#10;        stroke: #121212;&#10;      }&#10;&#10;      .cls-8, .cls-9 {&#10;        fill: #5e5c64;&#10;      }&#10;&#10;      .cls-9 {&#10;        stroke: #171717;&#10;      }&#10;&#10;      .cls-10 {&#10;        fill: #77767b;&#10;      }&#10;    </style>
  </defs>
  <g
     inkscape:label="Layer 1"
     inkscape:groupmode="layer"
     id="layer1"
     transform="translate(-7.2641525,-0.28846598)">
    <rect
       style="display:inline;fill:#252527;fill-opacity:1;stroke-width:0.0565795"
       id="rect557-2-9-3"
       width="44.117683"
       height="5.2916665"
       x="-51.381836"
       y="-5.5801325"
       rx="1.6536459"
       ry="1.6536026"
       transform="scale(-1)" />
    <rect
       style="display:inline;fill:#252527;fill-opacity:1;stroke-width:0.158334"
       id="rect1020-2-7-3-2-1"
       width="4.1367345"
       height="15.491096"
       x="-48.206837"
       y="-19.970646"
       rx="1.6536459"
       ry="1.6536459"
       transform="scale(-1)" />
    <rect
       style="display:inline;fill:#535356;fill-opacity:1;stroke-width:0.0526471"
       id="rect1020-2-7-3-8"
       width="2.284677"
       height="3.1010845"
       x="-47.280838"
       y="-19.044416"
       rx="0.72760415"
       ry="0.72760415"
       transform="scale(-1)" />
    <rect
       style="display:inline;fill:#535356;fill-opacity:1;stroke-width:0.0583208"
       id="rect1020-2-7-3-8-5"
       width="2.284677"
       height="3.8055022"
       x="-47.280807"
       y="-9.8977108"
       rx="0.72760415"
       ry="0.73984098"
       transform="scale(-1)" />
    <rect
       style="display:inline;fill:#252527;fill-opacity:1;stroke-width:0.160238"
       id="rect1020-2-7-3-2-1-1"
       width="4.2434621"
       height="15.466866"
       x="-31.444725"
       y="-19.956417"
       rx="1.6536459"
       ry="1.6536459"
       transform="scale(-1)" />
    <rect
       style="display:inline;fill:#535356;fill-opacity:1;stroke-width:0.0461337"
       id="rect1020-2-7-3-8-2-0"
       width="2.284677"
       height="2.3812299"
       x="-30.465332"
       y="-19.044416"
       rx="0.72760415"
       ry="0.90897375"
       transform="scale(-1)" />
    <rect
       style="display:inline;fill:#535356;fill-opacity:1;stroke-width:0.0523281"
       id="rect1020-2-7-3-8-5-4-0"
       width="2.284677"
       height="3.0636125"
       x="-30.465332"
       y="-9.1558695"
       rx="0.73109031"
       ry="0.77956009"
       transform="scale(-1)" />
    <rect
       style="display:inline;fill:#535356;fill-opacity:1;stroke-width:0.0585354"
       id="rect1018-7-2-6"
       width="41.736435"
       height="2.9104166"
       x="-50.191212"
       y="-4.3895082"
       rx="0.46302083"
       ry="0.46302083"
       transform="scale(-1)" />
    <rect
       style="display:inline;fill:#252527;fill-opacity:1;stroke-width:0.161807"
       id="rect1020-2-7-3-2"
       width="4.3501897"
       height="15.384368"
       x="-14.789341"
       y="-19.959696"
       rx="1.6536459"
       ry="1.6536459"
       transform="scale(-1)" />
    <rect
       style="display:inline;fill:#535356;fill-opacity:1;stroke-width:0.0583201"
       id="rect1020-2-7-3-8-5-4"
       width="2.284677"
       height="3.8054049"
       x="-13.756585"
       y="-9.8976622"
       rx="0.85204089"
       ry="0.72760415"
       transform="scale(-1)" />
    <rect
       style="display:inline;fill:#535356;fill-opacity:1;stroke-width:0.0526471"
       id="rect1020-2-7-3-8-2-0-3"
       width="2.284677"
       height="3.1010845"
       x="-13.756585"
       y="-19.044416"
       rx="0.72760415"
       ry="0.72760415"
       transform="scale(-1)" />
    <g
       id="Layer_1-2"
       data-name="Layer 1"
       transform="matrix(0,0.32865489,-0.32865489,0,50.239691,10.348996)">
      <rect
         id="rect1"
         class="cls-6"
         x="4.9952002"
         y="85.229698"
         width="5.8000002"
         height="30.5"
         style="fill:#5b5252;stroke:#171717;stroke-width:3px" />
      <g
         id="svg623">
        <g
           id="g84">
          <g
             id="g37">
            <path
               id="path1"
               class="cls-8"
               d="m 3.6641,81.1985 h 8.5119 c 0.8656,0 1.587,0.318 1.587,0.636 l -0.2886,3.9749 c 0,0.318 -0.7214,0.636 -1.587,0.636 H 3.9526 c -0.8656,0 -1.587,-0.318 -1.587,-0.636 L 2.077,81.8345 c 0,-0.2385 0.7214,-0.636 1.587,-0.636 z"
               style="fill:#504949;stroke:#171717;stroke-width:3px" />
            <path
               id="rect3"
               class="cls-4"
               d="m 7.1266,21.7913 h 1.587 c 0.4328,0 0.8656,0.2445 0.8656,0.7334 v 1.8336 c 0,0.3667 -0.2886,0.7334 -0.8656,0.7334 h -1.587 c -0.4328,0 -0.8656,-0.2445 -0.8656,-0.7334 v -1.9558 c 0,-0.2445 0.4328,-0.6112 0.8656,-0.6112 z"
               style="fill:#d8d8d8;stroke:#171717;stroke-width:3px" />
            <path
               id="rect4"
               class="cls-5"
               d="m 5.9724,5.9005 h 3.8953 c 0.4328,0 0.8656,0.2445 0.8656,0.7334 l 0.1443,30.3148 c 0,0.3667 -0.2886,0.7334 -0.8656,0.7334 H 6.1167 c -0.4328,0 -0.8656,-0.2445 -0.8656,-0.7334 L 5.1068,6.6339 c 0,-0.4889 0.4328,-0.7334 0.8656,-0.7334 z"
               style="fill:#463f3f;stroke:#171717;stroke-width:3px" />
            <path
               id="path6"
               class="cls-7"
               d="m 14.9172,49.2946 h 2.0198 c 0.7214,0 1.2984,0.489 1.2984,0.9779 v 3.0559 c 0,0.2445 -0.7214,0.489 -1.4427,0.9779 -0.8656,0.489 -1.8755,0.9779 -1.8755,0.9779 -0.7214,0 -1.2984,-0.489 -1.2984,-0.9779 v -4.1561 c 0,-0.2444 0.5771,-0.8556 1.2984,-0.8556 z"
               style="fill:#222222;stroke:#171717;stroke-width:3px" />
            <path
               id="rect8"
               class="cls-12"
               d="m 2.9427,26.9253 h 9.8104 c 0.7214,0 1.2984,0.6112 1.2984,1.4669 V 79.854 c 0,0.8557 -0.7214,1.4669 -1.4427,1.4669 H 2.7984 C 2.077,81.3209 1.5,80.7097 1.5,79.854 V 28.3921 c 0.1442,-0.978 0.7214,-1.4669 1.4427,-1.4669 z"
               style="fill:#6e6363;stroke:#171516;stroke-width:3px" />
            <path
               id="rect9"
               class="cls-9"
               d="m 5.6838,1.5 h 4.4724 c 0.2886,0 0.5771,0.1222 0.5771,0.3667 v 5.6229 c 0,0.1222 -0.1443,0.3667 -0.5771,0.3667 H 5.6838 C 5.3952,7.8563 5.1067,7.7341 5.1067,7.4896 V 1.8667 C 5.1067,1.6222 5.3952,1.5 5.6838,1.5 Z"
               style="fill:#4b4444;stroke:#171717;stroke-width:3px" />
            <path
               id="rect17"
               class="cls-3"
               d="m 7.1266,56.8734 h 1.587 c 0.7214,0 1.2984,0.3667 1.2984,0.9779 l 0.1443,18.58 c 0,0.489 -0.5771,0.9779 -1.2984,0.9779 h -1.587 c -0.7214,0 -1.2984,-0.3667 -1.2984,-0.9779 L 5.8282,57.8513 C 5.6839,57.4846 6.4053,56.8734 7.1266,56.8734 Z"
               style="fill:#595959;stroke:#171717;stroke-width:1.5px" />
          </g>
        </g>
      </g>
      <path
         id="path2"
         class="cls-13"
         d="m 12.9952,40.8297 h -10.1 c -0.7,0 -1.3,-0.7 -1.3,-1.6 v -10.9 c 0,-0.8 0.6,-1.6 1.3,-1.6 h 10.1 c 0.7,0 1.3,0.7 1.3,1.6 v 10.9 c -0.1,1 -0.6,1.6 -1.3,1.6 z"
         style="fill:#403a3c;stroke:#171515;stroke-width:3px" />
      <path
         id="path3"
         class="cls-14"
         d="m 9.9952,109.0297 h -4.1 c -0.8,0 -1.5,-0.6 -1.5,-1.5 v -10 c 0,-0.8 0.6,-1.5 1.5,-1.5 h 4.1 c 0.8,0 1.5,0.6 1.5,1.5 v 10 c 0,0.9 -0.7,1.5 -1.5,1.5 z"
         style="fill:#786d6d;stroke:#171516;stroke-width:3px" />
      <path
         id="path4"
         class="cls-8"
         d="m 4.0951,16.4671 c -0.1,0 -0.1,0.1 -0.1,0.1 v 11 c 0,0.1 0.1,0.1 0.1,0.1 h 7.7 c 0.1,0 0.1,-0.1 0.1,-0.1 L 11.7972,16.6959 C 11.7961,16.5692 11.693,16.4671 11.5664,16.4671 Z"
         style="fill:#504949;stroke:#171717;stroke-width:3px" />
      <path
         id="path91"
         class="cls-10"
         d="m 18.2951,44.7297 h -3.8 v -4.8 h 3.8 c 0.7,0 1.2,0.5 1.2,1.2 v 2.4 c 0,0.7 -0.5,1.2 -1.2,1.2 z"
         style="fill:#171717" />
      <path
         id="path92"
         class="cls-11"
         d="m 11.9952,120.6297 h -8 c -0.9,0 0.9,-9.4 0.9,-9.4 0.1,-0.5 0.8,-0.8 1.5,-0.8 h 3.2 c 0.7,0 1.3,0.3 1.5,0.8 0.1329,0.178 1.8,9.4 0.9,9.4 z"
         style="fill:#6b6161;stroke:#171616;stroke-width:3px" />
      <rect
         id="rect92"
         class="cls-10"
         x="5.7951002"
         y="71.329697"
         width="4.3000002"
         height="3"
         style="fill:#171717" />
      <rect
         id="rect93"
         class="cls-10"
         x="5.9952002"
         y="65.6297"
         width="4.3000002"
         height="3"
         style="fill:#171717" />
      <rect
         id="rect94"
         class="cls-10"
         x="5.7951002"
         y="60.429699"
         width="4.3000002"
         height="3"
         style="fill:#171717" />
      <path
         id="path94"
         class="cls-2"
         d="m 8.5951,66.0297 h -1.3 c -0.9,0 -1.5,-0.7 -1.5,-1.5 v -13.7 c 0,-0.9 0.7,-1.5 1.5,-1.5 h 1.3 c 0.9,0 1.5,0.7 1.5,1.5 v 13.7 c 0,0.8 -0.7,1.5 -1.5,1.5 z"
         style="fill:#624646;stroke:#171111;stroke-width:1.5px;stroke-miterlimit:3.9939" />
      <path
         id="path95"
         class="cls-1"
         d="m 10.0951,63.6297 h -4.3 c -0.4,0 -0.8,-0.3 -0.8,-0.8 v -7.4 c 0,-0.4 0.3,-0.8 0.8,-0.8 h 4.3 c 0.4,0 0.8,0.3 0.8,0.8 v 7.4 c 0,0.4 -0.4,0.8 -0.8,0.8 z"
         style="fill:#7a5252;stroke:#171111;stroke-width:1.5px;stroke-miterlimit:3.9939" />
    </g>
  </g>
</svg>
