<?xml version="1.0" encoding="UTF-8" standalone="no"?>
<svg
   width="165.71259"
   height="244.713"
   viewBox="0 0 43.844787 64.74698"
   version="1.1"
   id="svg1408"
   sodipodi:docname="table_valentines.svg"
   inkscape:version="1.3 (0e150ed, 2023-07-21)"
   xmlns:inkscape="http://www.inkscape.org/namespaces/inkscape"
   xmlns:sodipodi="http://sodipodi.sourceforge.net/DTD/sodipodi-0.dtd"
   xmlns="http://www.w3.org/2000/svg"
   xmlns:svg="http://www.w3.org/2000/svg"
   xmlns:rdf="http://www.w3.org/1999/02/22-rdf-syntax-ns#"
   xmlns:cc="http://creativecommons.org/ns#"
   xmlns:dc="http://purl.org/dc/elements/1.1/">
  <defs
     id="defs1402" />
  <sodipodi:namedview
     id="base"
     pagecolor="#505050"
     bordercolor="#666666"
     borderopacity="1.0"
     inkscape:pageopacity="0"
     inkscape:pageshadow="2"
     inkscape:zoom="9.29"
     inkscape:cx="81.646932"
     inkscape:cy="122.49731"
     inkscape:document-units="px"
     inkscape:current-layer="layer1"
     inkscape:document-rotation="0"
     showgrid="false"
     inkscape:window-width="1440"
     inkscape:window-height="797"
     inkscape:window-x="0"
     inkscape:window-y="25"
     inkscape:window-maximized="0"
     fit-margin-top="0"
     fit-margin-left="0"
     fit-margin-right="0"
     fit-margin-bottom="0"
     inkscape:pagecheckerboard="1"
     units="px"
     inkscape:showpageshadow="2"
     inkscape:deskcolor="#d1d1d1" />
  <metadata
     id="metadata1405">
    <rdf:RDF>
      <cc:Work
         rdf:about="">
        <dc:format>image/svg+xml</dc:format>
        <dc:type
           rdf:resource="http://purl.org/dc/dcmitype/StillImage" />
      </cc:Work>
    </rdf:RDF>
  </metadata>
  <g
     inkscape:label="Layer 1"
     inkscape:groupmode="layer"
     id="layer1"
     transform="translate(-108.72809,-171.15483)">
    <rect
       style="display:inline;fill:#302412;fill-opacity:1;stroke-width:0.125008"
       id="rect349-0"
       width="64.746979"
       height="43.844788"
       x="171.15483"
       y="-152.57288"
       rx="2.9699221"
       ry="2.5275857"
       transform="rotate(90)" />
    <rect
       style="display:inline;fill:#785a2e;fill-opacity:1;stroke-width:0.128916"
       id="rect457-7"
       width="54.147556"
       height="39.876148"
       x="176.45454"
       y="-150.58856"
       rx="1.3229166"
       ry="1.3229166"
       transform="rotate(90)" />
    <rect
       style="display:inline;fill:#785a2e;fill-opacity:1;stroke-width:0.0959866"
       id="rect2398-7-9"
       width="1.5875"
       height="39.876148"
       x="173.13921"
       y="-150.58861"
       rx="0.79374999"
       ry="0.79374999"
       transform="rotate(90)" />
    <rect
       style="display:inline;fill:#785a2e;fill-opacity:1;stroke-width:0.0959866"
       id="rect2398-7-9-3"
       width="1.5875"
       height="39.876148"
       x="232.32994"
       y="-150.58861"
       rx="0.79374999"
       ry="0.79374999"
       transform="rotate(90)" />
    <circle
       style="fill:#b14a00;fill-opacity:1;stroke:#552500;stroke-width:1.15358;stroke-linecap:round;stroke-linejoin:round;stroke-dasharray:none;stroke-opacity:1"
       id="path1"
       cx="129.98741"
       cy="203.04823"
       r="4.9432349" />
    <path
       style="fill:#3db100;fill-opacity:1;stroke:#205500;stroke-width:0.85054;stroke-linecap:round;stroke-linejoin:round;stroke-dasharray:none;stroke-opacity:1"
       d="m 130.22525,202.56301 c 6.98512,-9.24136 -5.77675,-8.40617 0,0 z"
       id="path4" />
    <path
       style="fill:#3db100;fill-opacity:1;stroke:#205500;stroke-width:0.85054;stroke-linecap:round;stroke-linejoin:round;stroke-dasharray:none;stroke-opacity:1"
       d="m 130.22525,202.56301 c -6.11374,-6.18752 -10.59746,1.4069 0,0"
       id="path5" />
    <path
       style="fill:#3db100;fill-opacity:1;stroke:#205500;stroke-width:0.85054;stroke-linecap:round;stroke-linejoin:round;stroke-dasharray:none;stroke-opacity:1"
       d="m 130.22525,202.56301 c -9.98688,2.28825 -3.98728,8.54514 0,0 z"
       id="path6" />
    <path
       style="fill:#3db100;fill-opacity:1;stroke:#205500;stroke-width:0.85054;stroke-linecap:round;stroke-linejoin:round;stroke-dasharray:none;stroke-opacity:1"
       d="m 129.70948,203.56996 c -3.4386,13.08415 9.65206,3.8312 0,0 z"
       id="path7" />
    <path
       style="fill:#3db100;fill-opacity:1;stroke:#205500;stroke-width:0.85054;stroke-linecap:round;stroke-linejoin:round;stroke-dasharray:none;stroke-opacity:1"
       d="m 129.70948,203.56996 c 13.26592,5.37075 7.86954,-11.34661 0,0 z"
       id="path8"
       sodipodi:nodetypes="cc" />
    <path
       id="path2961-4-9-0-1-2-4"
       style="fill:#fc1f00;fill-opacity:1;fill-rule:nonzero;stroke:#510900;stroke-width:0.829871;stroke-linecap:round;stroke-linejoin:round;stroke-miterlimit:4;stroke-dasharray:none;stroke-dashoffset:0;stroke-opacity:1;paint-order:normal"
       d="m 129.72666,199.89149 a 1.3288534,1.3276042 0 0 0 -1.32867,1.32818 1.3288534,1.3276042 0 0 0 0.004,0.0695 1.3288534,1.3276042 0 0 0 -0.25573,-0.025 1.3288534,1.3276042 0 0 0 -1.32863,1.32818 1.3288534,1.3276042 0 0 0 0.93607,1.26802 1.3288534,1.3276042 0 0 0 -0.21348,0.71877 1.3288534,1.3276042 0 0 0 1.32943,1.3274 1.3288534,1.3276042 0 0 0 1.0815,-0.55706 1.3288534,1.3276042 0 0 0 0.97909,0.43049 1.3288534,1.3276042 0 0 0 1.32943,-1.32739 1.3288534,1.3276042 0 0 0 -0.28856,-0.82582 1.3288534,1.3276042 0 0 0 0.9392,-1.26957 1.3288534,1.3276042 0 0 0 -1.32864,-1.32741 1.3288534,1.3276042 0 0 0 -0.52708,0.10933 1.3288534,1.3276042 0 0 0 -1.32629,-1.2477 z m 0.52705,2.54542 a 1.3288534,1.3276042 0 0 0 0.28545,0.74612 1.3288534,1.3276042 0 0 0 -0.69132,0.49924 1.3288534,1.3276042 0 0 0 -0.58729,-0.37111 1.3288534,1.3276042 0 0 0 0.21271,-0.71877 1.3288534,1.3276042 0 0 0 -0.001,-0.0711 1.3288534,1.3276042 0 0 0 0.25495,0.0258 1.3288534,1.3276042 0 0 0 0.52705,-0.11016 z" />
    <ellipse
       style="fill:#d3db57;fill-opacity:1;fill-rule:nonzero;stroke:#3c3f0d;stroke-width:0.553248;stroke-linecap:round;stroke-linejoin:round;stroke-miterlimit:4;stroke-dasharray:none;stroke-dashoffset:0;stroke-opacity:1;paint-order:normal"
       id="path2961-7-1-9-3-1"
       cx="129.89832"
       cy="202.95338"
       rx="0.93967229"
       ry="0.93878901" />
  </g>
</svg>
