<?xml version="1.0" encoding="UTF-8" standalone="no"?>
<!-- Created with Inkscape (http://www.inkscape.org/) -->

<svg
   width="128"
   height="162.45399"
   viewBox="0 0 33.866665 42.982621"
   version="1.1"
   id="svg1360"
   inkscape:version="1.3 (0e150ed, 2023-07-21)"
   sodipodi:docname="used_toilet_valentines.svg"
   xmlns:inkscape="http://www.inkscape.org/namespaces/inkscape"
   xmlns:sodipodi="http://sodipodi.sourceforge.net/DTD/sodipodi-0.dtd"
   xmlns="http://www.w3.org/2000/svg"
   xmlns:svg="http://www.w3.org/2000/svg">
  <sodipodi:namedview
     id="namedview1362"
     pagecolor="#505050"
     bordercolor="#ffffff"
     borderopacity="1"
     inkscape:pageshadow="0"
     inkscape:pageopacity="0"
     inkscape:pagecheckerboard="1"
     inkscape:document-units="px"
     showgrid="false"
     units="px"
     inkscape:zoom="4.3893395"
     inkscape:cx="73.701294"
     inkscape:cy="23.465945"
     inkscape:window-width="1312"
     inkscape:window-height="449"
     inkscape:window-x="0"
     inkscape:window-y="25"
     inkscape:window-maximized="0"
     inkscape:current-layer="layer1"
     height="162.454px"
     inkscape:showpageshadow="2"
     inkscape:deskcolor="#d1d1d1" />
  <defs
     id="defs1357" />
  <g
     inkscape:label="Layer 1"
     inkscape:groupmode="layer"
     id="layer1">
    <path
       sodipodi:nodetypes="ccccc"
       inkscape:connector-curvature="0"
       id="rect6498-3-5-6-8"
       d="m 7.0803746,17.352572 c -1.5399701,6.802162 0.5223909,15.773324 3.0381894,20.837066 2.979978,5.318132 12.02376,4.811006 14.467496,0 2.298317,-5.446632 4.438579,-14.540634 3.03811,-20.837066 -2.480525,-9.5002285 -18.5226869,-8.6147965 -20.5437954,0 z"
       style="fill:#e5e0db;fill-opacity:1;fill-rule:nonzero;stroke:#272727;stroke-width:1.98438;stroke-linecap:round;stroke-linejoin:miter;stroke-miterlimit:4;stroke-dasharray:none;stroke-dashoffset:0;stroke-opacity:1;paint-order:normal" />
    <path
       style="color:#000000;fill:#e5e0db;stroke-width:1.84548;stroke-linecap:round;stroke-linejoin:round"
       d="M 30.159777,14.05533 H 3.7101132 c -1.5438561,0 -2.78674911,-1.242893 -2.78674911,-2.78675 V 3.7122167 c 0,-1.5438561 1.24289301,-2.78674909 2.78674911,-2.78674909 H 30.159777 c 1.543877,0 2.78663,1.24289299 2.78663,2.78674909 V 11.26858 c 0,1.543857 -1.242753,2.78675 -2.78663,2.78675 z"
       id="path9514-6" />
    <path
       sodipodi:nodetypes="ccccc"
       inkscape:connector-curvature="0"
       id="rect6498-3-5-5"
       d="m 10.236781,21.274021 c -1.0347974,4.570806 0.351024,10.599117 2.041575,14.001783 2.002416,3.573574 8.079512,3.232813 9.721597,0 1.544414,-3.659965 2.982608,-9.770821 2.041535,-14.001783 -1.666836,-6.383819 -12.446586,-5.788827 -13.804707,0 z"
       style="fill:#bdb9b3;fill-opacity:1;fill-rule:nonzero;stroke:none;stroke-width:3.02904;stroke-linecap:round;stroke-linejoin:miter;stroke-miterlimit:4;stroke-dasharray:none;stroke-dashoffset:0;stroke-opacity:1;paint-order:stroke fill markers" />
    <path
       sodipodi:nodetypes="ccccc"
       inkscape:connector-curvature="0"
       id="rect6498-3-9-5-1"
       d="m 14.461645,22.263003 c -0.384624,1.787046 0.130134,4.143893 0.758805,5.474193 0.744297,1.397161 3.003095,1.263918 3.613451,0 0.574006,-1.43088 1.108554,-3.820012 0.758805,-5.474193 -0.619583,-2.49585 -4.626287,-2.263262 -5.131061,0 z"
       style="fill:#494949;fill-opacity:1;fill-rule:nonzero;stroke:none;stroke-width:1.15469;stroke-linecap:round;stroke-linejoin:miter;stroke-miterlimit:4;stroke-dasharray:none;stroke-dashoffset:0;stroke-opacity:1;paint-order:stroke fill markers" />
    <rect
       ry="0.42510235"
       rx="0.50107193"
       y="-16.322582"
       x="-5.6508446"
       height="2.361645"
       width="3.8750923"
       id="rect6547-2-5"
       style="fill:#272727;fill-opacity:1;fill-rule:nonzero;stroke:none;stroke-width:5.70614;stroke-linecap:round;stroke-linejoin:round;stroke-miterlimit:4;stroke-dasharray:none;stroke-dashoffset:0;stroke-opacity:1;paint-order:stroke fill markers"
       transform="scale(-1)" />
    <rect
       style="fill:#afafaf;fill-opacity:1;stroke:none;stroke-width:1.8487;stroke-linecap:round;stroke-linejoin:round;stroke-dasharray:none;stroke-opacity:1;paint-order:normal"
       id="rect3077-2"
       width="31.834206"
       height="1.4141072"
       x="-32.757713"
       y="-11.583192"
       rx="1.4141072"
       ry="1.4141072"
       transform="scale(-1)" />
    <path
       style="color:#000000;fill:#272727;fill-opacity:1;stroke-width:1.98438;stroke-linecap:round;stroke-linejoin:round;stroke-miterlimit:4;stroke-dasharray:none"
       d="m 30.160774,14.975617 c 2.039104,0 3.70594,-1.666876 3.70594,-3.70596 V 3.7132132 c 0,-2.0391241 -1.666836,-3.713214306408 -3.70594,-3.713214306408 H 3.713262 C 1.6741777,-1.106408e-6 4.7679888e-5,1.6740891 4.7679888e-5,3.7132132 v 7.5564438 c 0,2.039084 1.674130020112,3.70596 3.713214320112,3.70596 z m 0,-1.842169 H 3.713262 c -1.0486281,0 -1.8638313,-0.815203 -1.8638313,-1.863791 V 3.7132132 c 0,-1.0486281 0.8152032,-1.8638313 1.8638313,-1.8638313 h 26.447512 c 1.048648,0 1.863931,0.8152032 1.863931,1.8638313 v 7.5564438 c 0,1.048588 -0.815283,1.863791 -1.863931,1.863791 z"
       id="path9516-8" />
    <ellipse
       style="fill:#9edfdd;fill-opacity:1;fill-rule:nonzero;stroke:#0e2b2a;stroke-width:0.925997;stroke-linecap:round;stroke-linejoin:round;stroke-miterlimit:4;stroke-dasharray:none;stroke-dashoffset:0;stroke-opacity:1;paint-order:normal"
       id="circle3305-9-5"
       cx="0.70093071"
       cy="26.134863"
       rx="2.9541814"
       ry="2.9513478"
       transform="rotate(-71.44227)"
       inkscape:transform-center-x="-0.66738115"
       inkscape:transform-center-y="2.8355052" />
    <path
       id="path2961-4-9-0-4-1"
       style="fill:#a531cb;fill-opacity:1;fill-rule:nonzero;stroke:#481451;stroke-width:0.69453;stroke-linecap:round;stroke-linejoin:round;stroke-miterlimit:4;stroke-dasharray:none;stroke-dashoffset:0;stroke-opacity:1;paint-order:normal"
       d="m 24.388154,5.8657635 a 1.1110913,1.1121366 18.55773 0 0 0.699254,1.4077005 1.1110913,1.1121366 18.55773 0 0 0.05571,0.016596 1.1110913,1.1121366 18.55773 0 0 -0.08754,0.1963483 1.1110913,1.1121366 18.55773 0 0 0.699254,1.4077004 1.1110913,1.1121366 18.55773 0 0 1.254743,-0.4051417 1.1110913,1.1121366 18.55773 0 0 0.514243,0.3604131 1.1110913,1.1121366 18.55773 0 0 1.407026,-0.700577 1.1110913,1.1121366 18.55773 0 0 -0.153659,-1.0070682 1.1110913,1.1121366 18.55773 0 0 0.602312,-0.6621474 1.1110913,1.1121366 18.55773 0 0 -0.699241,-1.4076979 1.1110913,1.1121366 18.55773 0 0 -0.732053,0.00898 1.1110913,1.1121366 18.55773 0 0 -0.757121,-1.0833197 1.1110913,1.1121366 18.55773 0 0 -1.407057,0.7005769 1.1110913,1.1121366 18.55773 0 0 -0.05355,0.4473364 1.1110913,1.1121366 18.55773 0 0 -1.342566,0.7201599 z m 2.159903,0.2597999 a 1.1110913,1.1121366 18.55773 0 0 0.668406,-0.02897 1.1110913,1.1121366 18.55773 0 0 0.210925,0.6824736 1.1110913,1.1121366 18.55773 0 0 -0.450652,0.3664923 1.1110913,1.1121366 18.55773 0 0 -0.513608,-0.3602003 1.1110913,1.1121366 18.55773 0 0 -0.05647,-0.016851 1.1110913,1.1121366 18.55773 0 0 0.08734,-0.1957419 1.1110913,1.1121366 18.55773 0 0 0.05356,-0.4473451 z"
       inkscape:transform-center-x="-2.5521907"
       inkscape:transform-center-y="1.6280233" />
    <ellipse
       style="fill:#dbd057;fill-opacity:1;fill-rule:nonzero;stroke:#3f390d;stroke-width:0.463021;stroke-linecap:round;stroke-linejoin:round;stroke-miterlimit:4;stroke-dasharray:none;stroke-dashoffset:0;stroke-opacity:1;paint-order:normal"
       id="path2961-7-1-9-3-3-0"
       cx="2.3145771"
       cy="27.503607"
       rx="0.78642541"
       ry="0.78568619"
       transform="rotate(-71.44227)"
       inkscape:transform-center-x="-2.4785143"
       inkscape:transform-center-y="1.7413792" />
    <path
       id="path2961-4-9-0-1-2-4"
       style="fill:#a531cb;fill-opacity:1;fill-rule:nonzero;stroke:#481451;stroke-width:0.694531;stroke-linecap:round;stroke-linejoin:round;stroke-miterlimit:4;stroke-dasharray:none;stroke-dashoffset:0;stroke-opacity:1;paint-order:normal"
       d="m 20.125742,5.7934904 a 1.1110913,1.1121367 18.55773 0 0 0.699876,1.4079199 1.1110913,1.1121367 18.55773 0 0 0.05613,0.015678 1.1110913,1.1121367 18.55773 0 0 -0.08792,0.1962304 1.1110913,1.1121367 18.55773 0 0 0.699886,1.4079014 1.1110913,1.1121367 18.55773 0 0 1.255368,-0.4049311 1.1110913,1.1121367 18.55773 0 0 0.513406,0.360838 1.1110913,1.1121367 18.55773 0 0 1.407258,-0.701206 1.1110913,1.1121367 18.55773 0 0 -0.153905,-1.0064424 1.1110913,1.1121367 18.55773 0 0 0.602331,-0.6621404 1.1110913,1.1121367 18.55773 0 0 -0.699043,-1.4083262 1.1110913,1.1121367 18.55773 0 0 -0.732065,0.00898 1.1110913,1.1121367 18.55773 0 0 -0.757111,-1.0833168 1.1110913,1.1121367 18.55773 0 0 -1.407051,0.7005794 1.1110913,1.1121367 18.55773 0 0 -0.05365,0.4473047 1.1110913,1.1121367 18.55773 0 0 -1.343189,0.7199406 z m 2.15991,0.2598226 a 1.1110913,1.1121367 18.55773 0 0 0.668,-0.027734 1.1110913,1.1121367 18.55773 0 0 0.211965,0.6814514 1.1110913,1.1121367 18.55773 0 0 -0.450868,0.3671044 1.1110913,1.1121367 18.55773 0 0 -0.513615,-0.3602128 1.1110913,1.1121367 18.55773 0 0 -0.05672,-0.017991 1.1110913,1.1121367 18.55773 0 0 0.08838,-0.1954008 1.1110913,1.1121367 18.55773 0 0 0.05298,-0.4475079 z"
       inkscape:transform-center-x="1.7095748"
       inkscape:transform-center-y="1.5552483" />
    <ellipse
       style="fill:#dbd057;fill-opacity:1;fill-rule:nonzero;stroke:#3f390d;stroke-width:0.463021;stroke-linecap:round;stroke-linejoin:round;stroke-miterlimit:4;stroke-dasharray:none;stroke-dashoffset:0;stroke-opacity:1;paint-order:normal"
       id="path2961-7-1-9-3-1"
       cx="1.0566436"
       cy="23.485662"
       rx="0.78642541"
       ry="0.78568619"
       transform="rotate(-71.44227)"
       inkscape:transform-center-x="1.7308609"
       inkscape:transform-center-y="1.6551535" />
  </g>
</svg>
