<svg width="61" height="57" viewBox="0 0 61 57" fill="none" xmlns="http://www.w3.org/2000/svg">
<circle cx="30.0005" cy="23.6021" r="2.27397" fill="#141819" stroke="#141819" stroke-width="4"/>
<path d="M30 23.6016H58.816V51.748C58.816 53.4049 57.4729 54.748 55.816 54.748H33C31.3431 54.748 30 53.4049 30 51.748V23.6016Z" fill="#546169"/>
<path d="M30 23.6016L9.62399 3.22555L3.38651 9.46303C2.21493 10.6346 2.21493 12.5341 3.38651 13.7057L19.5199 29.839C20.6915 31.0106 22.5909 31.0106 23.7625 29.839L30 23.6016Z" fill="#4D5960" stroke="#141819" stroke-width="4"/>
<rect x="39.2588" y="12.7559" width="10.2992" height="10.8474" fill="#525549"/>
<path d="M39.2588 22.2637H57.4348L58.3388 23.6019H39.2588V22.2637Z" fill="#525549"/>
<circle cx="53.3209" cy="18.9098" r="3.234" fill="#393A36"/>
<path d="M39.2588 14.837V13.4916C39.378 13.5057 39.4874 13.5517 39.5792 13.6187C39.7461 13.7423 39.8538 13.9418 39.8538 14.1643C39.8538 14.3073 39.8096 14.4415 39.7337 14.5509C39.6913 14.6127 39.6393 14.6657 39.5792 14.7098C39.4874 14.7769 39.378 14.8228 39.2588 14.837Z" fill="#42453B"/>
<path d="M39.2588 21.1646V19.8193C39.3859 19.8352 39.5024 19.8846 39.5978 19.9605C39.754 20.0859 39.8538 20.2765 39.8538 20.4919C39.8538 20.7073 39.754 20.898 39.5978 21.0234C39.5024 21.0993 39.3859 21.1487 39.2588 21.1646Z" fill="#42453B"/>
<path d="M42.7678 14.6887C42.6512 14.784 42.5021 14.8423 42.3396 14.8423C42.1869 14.8423 42.0466 14.7928 41.9336 14.7081C41.8691 14.6586 41.8135 14.5986 41.7694 14.5315C41.7296 14.4697 41.6996 14.4009 41.6811 14.3267L41.6661 14.2384L41.6617 14.1643C41.6617 13.9365 41.7747 13.7335 41.9486 13.6099C42.0589 13.5322 42.194 13.4863 42.3396 13.4863C42.4818 13.4863 42.6142 13.5305 42.7236 13.6064C42.9011 13.7282 43.0176 13.933 43.0176 14.1643C43.0176 14.3762 42.9205 14.5651 42.7678 14.6887Z" fill="#42453B"/>
<path d="M42.683 21.0763C42.5824 21.1364 42.465 21.1699 42.3396 21.1699C41.9653 21.1699 41.6617 20.8662 41.6617 20.4919C41.6617 20.1176 41.9653 19.814 42.3396 19.814C42.4226 19.814 42.5029 19.8299 42.5771 19.8563C42.6318 19.8775 42.6839 19.904 42.7307 19.9376C42.9046 20.0611 43.0176 20.2624 43.0176 20.4919C43.0176 20.6861 42.9364 20.8609 42.8057 20.9845C42.7687 21.0198 42.7272 21.0498 42.683 21.0763Z" fill="#42453B"/>
<path d="M46.1814 14.1643C46.1814 14.5386 45.8777 14.8423 45.5035 14.8423C45.1292 14.8423 44.8255 14.5386 44.8255 14.1643C44.8255 14.0054 44.8802 13.8589 44.972 13.7441C45.0153 13.6911 45.0656 13.6435 45.1221 13.6046C45.2307 13.5305 45.3622 13.4863 45.5035 13.4863L45.5794 13.4881L45.6544 13.5022C45.733 13.5199 45.8062 13.5517 45.8716 13.594C46.0578 13.7158 46.1814 13.9259 46.1814 14.1643Z" fill="#42453B"/>
<path d="M45.8292 21.0869C45.733 21.1399 45.6217 21.1699 45.5035 21.1699C45.1292 21.1699 44.8255 20.8662 44.8255 20.4919C44.8255 20.4443 44.8308 20.3984 44.8396 20.3542C44.8502 20.303 44.8661 20.2536 44.8873 20.2077C44.9041 20.1706 44.9244 20.1353 44.9473 20.1018L45.0056 20.0311C45.1292 19.897 45.3066 19.814 45.5035 19.814C45.6394 19.814 45.7656 19.8528 45.8716 19.9217C46.0578 20.0435 46.1814 20.2536 46.1814 20.4919C46.1814 20.6526 46.1258 20.7991 46.0331 20.9157C45.9775 20.9863 45.9078 21.0445 45.8292 21.0869Z" fill="#42453B"/>
<path d="M49.3452 14.1643C49.3452 14.5386 49.0416 14.8423 48.6673 14.8423C48.6125 14.8423 48.5587 14.8352 48.5066 14.8228L48.474 14.814L48.4263 14.7981C48.3857 14.784 48.3468 14.7646 48.3106 14.7416C48.1182 14.6216 47.9893 14.4079 47.9893 14.1643C47.9893 13.79 48.293 13.4863 48.6673 13.4863C49.0416 13.4863 49.3452 13.79 49.3452 14.1643Z" fill="#42453B"/>
<path d="M49.3452 20.4919C49.3452 20.8662 49.0416 21.1699 48.6673 21.1699C48.5084 21.1699 48.3618 21.1152 48.2462 21.0234C48.09 20.8998 47.9893 20.7073 47.9893 20.4919C47.9893 20.4037 48.0061 20.3189 48.037 20.243C48.0529 20.2024 48.0723 20.1635 48.0952 20.1282C48.1606 20.0258 48.2524 19.9411 48.3618 19.8864C48.4166 19.8581 48.4766 19.8387 48.5393 19.8263L48.6134 19.8157L48.6673 19.814C48.7194 19.814 48.7706 19.8193 48.82 19.8316C48.8906 19.8475 48.9568 19.874 49.0169 19.9111L49.0981 19.9693C49.1254 19.9905 49.151 20.0135 49.1749 20.04C49.2013 20.07 49.2243 20.1018 49.2446 20.1353L49.2834 20.2077L49.3108 20.2801L49.3285 20.3436C49.3391 20.3913 49.3452 20.4407 49.3452 20.4919Z" fill="#42453B"/>
<path d="M41.1832 17.856C41.0676 17.9496 40.9193 18.0061 40.7577 18.0061C40.688 18.0061 40.6218 17.9955 40.5582 17.9761L40.5185 17.9637L40.447 17.9319C40.4134 17.9143 40.3817 17.8948 40.3516 17.8719C40.1866 17.7465 40.0798 17.5506 40.0798 17.3281C40.0798 17.111 40.1822 16.9167 40.3419 16.7932C40.4567 16.7031 40.6015 16.6502 40.7577 16.6502C40.9069 16.6502 41.0446 16.6978 41.1558 16.779C41.3253 16.9026 41.4357 17.1021 41.4357 17.3281C41.4357 17.5417 41.3368 17.7324 41.1832 17.856Z" fill="#42453B"/>
<path d="M44.3038 17.8878L44.2446 17.9249L44.1634 17.9619C44.0884 17.9902 44.0072 18.0061 43.9215 18.0061C43.7803 18.0061 43.6488 17.9619 43.5402 17.8878C43.361 17.766 43.2436 17.5612 43.2436 17.3281C43.2436 16.9538 43.5473 16.6502 43.9215 16.6502C44.2958 16.6502 44.5995 16.9538 44.5995 17.3281C44.5995 17.5612 44.4821 17.766 44.3038 17.8878Z" fill="#42453B"/>
<path d="M47.5974 17.773C47.4729 17.916 47.2893 18.0061 47.0854 18.0061C46.9265 18.0061 46.7808 17.9513 46.6652 17.8595C46.508 17.7359 46.4074 17.5435 46.4074 17.3281C46.4074 17.1445 46.4798 16.9785 46.5972 16.8567C46.6714 16.7808 46.7623 16.7225 46.8656 16.6872C46.9344 16.6625 47.0086 16.6502 47.0854 16.6502C47.1374 16.6502 47.1886 16.6572 47.2381 16.6678C47.3122 16.6855 47.382 16.7155 47.4447 16.7543C47.6362 16.8744 47.7633 17.0862 47.7633 17.3281C47.7633 17.4976 47.7007 17.653 47.5974 17.773Z" fill="#42453B"/>
<rect x="39.2588" y="12.7559" width="10.2992" height="10.8474" stroke="#181915" stroke-width="2"/>
<circle cx="53.3209" cy="18.9098" r="3.234" stroke="#181915" stroke-width="2"/>
<path d="M49.5576 12.7559H50.0269L53.8925 17.7878C54.8148 18.8584 54.2074 20.5258 52.8126 20.7523L49.5576 21.2809V12.7559Z" fill="#474A40" stroke="#181915" stroke-width="2" stroke-miterlimit="3.99393"/>
<path d="M30 23.6016H58.816V51.748C58.816 53.4049 57.4729 54.748 55.816 54.748H33C31.3431 54.748 30 53.4049 30 51.748V23.6016Z" stroke="#14181A" stroke-width="4"/>
</svg>
