<svg width="36" height="75" viewBox="0 0 36 75" fill="none" xmlns="http://www.w3.org/2000/svg">
<path d="M7.81769 6.14476C7.81769 6.14476 11.0785 1.93007 13.4795 1.54436C17.8736 0.838426 22.6909 3.27187 25.9575 6.29463C30.6907 10.6745 34.2198 23.7881 34.2198 23.7881C34.2198 23.7881 31.6694 24.8495 30.3252 24.8346C29.161 24.8227 28.1084 23.5968 26.9729 23.8538C25.5735 24.1704 23.765 26.7237 23.765 26.7237C23.765 26.7237 24.259 21.7599 24.0366 19.2905C23.7463 16.0689 23.8061 12.4652 21.9555 9.81224C20.6566 7.95024 16.2168 6.14422 16.2168 6.14422L7.81769 6.14476Z" fill="url(#paint0_linear_1757_422)"/>
<path d="M7.81769 6.14476C7.81769 6.14476 11.0785 1.93007 13.4795 1.54436C17.8736 0.838426 22.6909 3.27187 25.9575 6.29463C30.6907 10.6745 34.2198 23.7881 34.2198 23.7881C34.2198 23.7881 31.6694 24.8495 30.3252 24.8346C29.161 24.8227 28.1084 23.5968 26.9729 23.8538C25.5735 24.1704 23.765 26.7237 23.765 26.7237C23.765 26.7237 24.259 21.7599 24.0366 19.2905C23.7463 16.0689 23.8061 12.4652 21.9555 9.81224C20.6566 7.95024 16.2168 6.14422 16.2168 6.14422L7.81769 6.14476Z" stroke="url(#paint1_linear_1757_422)" stroke-width="1.6"/>
<g filter="url(#filter0_f_1757_422)">
<path d="M27.5206 8.09375C31.4468 13.4853 34.2193 23.7875 34.2193 23.7875C34.2193 23.7875 31.6689 24.849 30.3247 24.8341C29.7956 24.8287 29.2895 24.5725 28.7883 24.3187C28.1866 24.0142 27.5918 23.7131 26.9724 23.8533C25.573 24.1699 23.7645 26.7231 23.7645 26.7231C23.7645 26.7231 24.2585 21.7594 24.0361 19.29C23.9896 18.7739 23.9521 18.2479 23.9142 17.7177C23.7613 15.5741 23.6033 13.3598 22.8262 11.4368C24.0326 11.687 24.9818 11.5071 25.7995 10.266C26.3788 9.38679 26.931 8.68426 27.5206 8.09375Z" fill="#F06327"/>
</g>
<path d="M7.81827 6.14806L7.81848 9.27686L8.76205 9.27679C8.76205 9.27679 8.04538 22.0855 6.97535 26.923C6.53257 28.9224 4.37709 30.0349 3.49919 31.8398C2.75867 33.3624 2.04679 35.014 2.0469 36.7071L2.04928 73.4083L12.0223 73.4076L21.9953 73.407L21.9929 36.7058C21.9928 35.0127 21.2807 33.3612 20.5401 31.8387C19.6619 30.0339 17.5057 28.9217 17.0632 26.9223C15.9925 22.085 15.2743 9.27637 15.2743 9.27637L16.2178 9.27631L16.2176 6.14752L14.976 6.1476L12.018 6.14779L9.05983 6.14798L7.81827 6.14806Z" fill="url(#paint2_linear_1757_422)" stroke="#132806" stroke-width="3.2" stroke-miterlimit="3.99393"/>
<path opacity="0.35" d="M9.91677 26.6209C9.91677 26.6209 9.86857 28.7064 9.48252 29.6526C8.83857 31.2431 8.0523 33.1774 6.4615 33.8206C6.24821 33.9064 5.92126 33.8835 5.78282 33.7004C5.63235 33.5017 5.7587 33.1845 5.85717 32.9556C6.39245 31.7235 7.79975 31.0635 8.51389 29.9258C9.15027 28.9122 9.91677 26.6209 9.91677 26.6209Z" fill="white"/>
<g opacity="0.75">
<path d="M7.49574 48.2416C5.90365 49.1607 5.19129 51.0179 5.6533 52.712C5.46202 51.5615 5.98557 50.3618 7.05517 49.7437C8.38672 48.975 10.0766 49.3899 10.9067 50.6621L11.2312 50.475C11.0671 49.998 11.3736 49.4893 11.8571 49.3914V49.0179C10.3399 48.9357 9.13494 47.679 9.13494 46.1418C9.13494 44.9048 9.91446 43.85 11.0087 43.4414C9.30934 43.8872 8.05515 45.4336 8.05515 47.2725C8.05515 47.5046 8.07484 47.731 8.11316 47.9519C7.9029 48.0292 7.69651 48.1256 7.49574 48.2416Z" fill="#D5E9C8"/>
<path d="M12.1743 49.0179C13.6915 48.9357 14.8964 47.679 14.8964 46.1418C14.8964 44.9048 14.1169 43.85 13.0227 43.4414C14.722 43.8872 15.9762 45.4336 15.9762 47.2725C15.9762 47.5046 15.9565 47.7318 15.9182 47.9526C16.1281 48.0299 16.3342 48.1263 16.5342 48.2416C18.127 49.1607 18.8397 51.0207 18.376 52.7148C18.5697 51.5629 18.0454 50.3604 16.9744 49.7423C15.6425 48.9729 13.952 49.3885 13.1218 50.6614L12.7977 50.4743C12.9606 49.9943 12.6492 49.5074 12.1743 49.3921V49.0179Z" fill="#D5E9C8"/>
<path d="M17.3686 54.4595C16.4678 55.2035 15.1644 55.3504 14.0933 54.7323C12.7614 53.963 12.2759 52.2921 12.9633 50.9363L12.6391 50.7493C12.3842 51.0411 11.9461 51.1199 11.5997 50.9216C11.5185 50.8744 11.4485 50.8161 11.3902 50.7493L11.0656 50.937C11.7537 52.2921 11.2682 53.9651 9.93591 54.7337C8.86772 55.3504 7.56852 55.2056 6.6677 54.4665C7.9036 55.7098 9.86629 56.0192 11.4563 55.1015C11.6532 54.9882 11.8407 54.8576 12.015 54.7119C12.1869 54.8554 12.3733 54.9855 12.5737 55.1015C14.1665 56.0206 16.133 55.7084 17.3686 54.4595Z" fill="#D5E9C8"/>
</g>
<g opacity="0.75">
<path d="M13.6186 48.1011C13.8577 47.9028 14.0592 47.6609 14.2111 47.3874C12.9469 46.3905 11.0929 46.3939 9.81914 47.3845C9.97069 47.6581 10.1722 47.9 10.4109 48.099C11.3431 47.3883 12.6886 47.3834 13.6186 48.1011Z" fill="#86A772"/>
<path d="M9.38737 49.8697C9.09964 49.7633 8.7847 49.7117 8.47213 49.7164C8.24948 51.3188 9.18463 52.9198 10.6693 53.5215C10.8279 53.2592 10.9397 52.9646 10.9932 52.651C9.91319 52.2013 9.23803 51.0332 9.38737 49.8697Z" fill="#86A772"/>
<path d="M13.3606 53.5201C13.202 53.2571 13.0905 52.9632 13.0371 52.6496C14.1207 52.2029 14.7973 51.0334 14.6369 49.8725C14.9304 49.7635 15.2381 49.7157 15.5504 49.7157C15.7891 51.3309 14.8702 52.9172 13.3606 53.5201Z" fill="#86A772"/>
</g>
<defs>
<filter id="filter0_f_1757_422" x="21.2262" y="6.49375" width="14.5936" height="21.8289" filterUnits="userSpaceOnUse" color-interpolation-filters="sRGB">
<feFlood flood-opacity="0" result="BackgroundImageFix"/>
<feBlend mode="normal" in="SourceGraphic" in2="BackgroundImageFix" result="shape"/>
<feGaussianBlur stdDeviation="0.8" result="effect1_foregroundBlur_1757_422"/>
</filter>
<linearGradient id="paint0_linear_1757_422" x1="7.8182" y1="14.0734" x2="34.2192" y2="14.0716" gradientUnits="userSpaceOnUse">
<stop stop-color="#BEB4A1"/>
<stop offset="0.300676" stop-color="#AA9D83"/>
<stop offset="0.652027" stop-color="#BEB4A1"/>
<stop offset="1" stop-color="#AA9D83"/>
</linearGradient>
<linearGradient id="paint1_linear_1757_422" x1="22.2993" y1="7.83411" x2="26.025" y2="12.4237" gradientUnits="userSpaceOnUse">
<stop stop-color="#1B1813"/>
<stop offset="1" stop-color="#2B0F03"/>
</linearGradient>
<linearGradient id="paint2_linear_1757_422" x1="0.656557" y1="39.7786" x2="23.3837" y2="39.7771" gradientUnits="userSpaceOnUse">
<stop stop-color="#346D11"/>
<stop offset="1" stop-color="#5C784E"/>
</linearGradient>
</defs>
</svg>
