<svg width="27" height="17" viewBox="0 0 27 17" fill="none" xmlns="http://www.w3.org/2000/svg">
<rect x="1.06934" y="6.06836" width="11.1057" height="0.2952" fill="#D9D9D9"/>
<rect x="0.0673828" y="8.18945" width="11.0386" height="0.2952" fill="#D9D9D9"/>
<rect x="1.06934" y="10.6406" width="7.83887" height="0.2952" fill="#D9D9D9"/>
<path d="M17.4978 5.99322C18.4969 9.02204 18.0376 10.4552 15.751 12.6194L20.3314 16.7568L18.8597 11.9901L26.0866 10.3207L19.6285 8.58532L23.5824 4.52148L17.4978 5.99322Z" fill="#D9D9D9"/>
<path d="M16.7168 2.57046C17.0432 2.83573 17.1672 3.74945 17.1672 3.74945L15.9087 3.02287C15.9087 3.02287 15.8133 3.00964 15.6735 2.99882C15.557 2.98966 15.4096 2.98256 15.2608 2.98592C15.0642 2.99041 14.8649 3.01363 14.7316 3.07618C14.3061 3.27536 14.0246 3.69157 13.7544 4.09089C13.7027 4.16717 13.6516 4.24282 13.5998 4.31626C13.3529 4.6669 12.9974 5.45338 12.9974 5.45338C12.9974 5.45338 12.9473 4.91439 12.7651 4.74583C12.6843 4.6714 12.5692 4.66515 12.4528 4.65853C12.3559 4.65314 12.2578 4.64774 12.1781 4.60292C12.1088 4.56388 12.0297 4.49416 11.955 4.41918C11.8112 4.27406 11.6851 4.10917 11.6851 4.10917C11.6851 4.10917 13.3482 2.44947 14.4363 2.20273C15.1872 2.03229 16.1194 2.08449 16.7168 2.57046Z" fill="#D9D9D9"/>
<path d="M15.7704 3.26237L17.0289 3.98895L16.8963 4.21861L16.7549 4.13697C16.7549 4.13697 15.7544 6.11803 15.496 6.93559C15.4355 7.12786 15.4826 7.32519 15.5302 7.5231C15.5661 7.67307 15.6023 7.82349 15.5916 7.97278C15.5709 8.26518 15.5346 8.57413 15.388 8.82791L12.2128 14.3268L9.22438 12.6011L12.3996 7.10223C12.4781 6.96652 12.586 6.85024 12.7066 6.7463C12.8113 6.656 12.9255 6.57493 13.0385 6.49875C13.3261 6.30424 13.7453 6.32401 13.9846 6.06267C14.5636 5.43051 15.7791 3.57361 15.7791 3.57361L15.6378 3.49203L15.7704 3.26237Z" fill="#D9D9D9"/>
</svg>
