<svg width="26" height="17" viewBox="0 0 26 17" fill="none" xmlns="http://www.w3.org/2000/svg">
<path d="M24.2908 12.9917C24.7664 12.4636 24.9886 12.1068 25.0798 11.3083C25.602 11.9138 25.8335 12.6878 25.8261 13.2406C25.8178 13.8598 25.4115 14.6408 24.7024 15.1038C24.8708 15.1038 25.0175 15.0109 25.1541 14.9245L25.159 14.9213C25.3035 14.83 25.4606 14.7174 25.6284 14.4895C25.5041 15.2159 24.9975 15.7091 24.4838 16.0544C23.9907 16.3859 22.7106 16.7838 16.7393 16.7838L17.1683 15.7202C18.6365 14.966 19.8551 13.3535 19.0123 11.2038C19.5906 11.3113 20.2707 12.1825 20.5703 12.7119C20.4527 12.1355 20.7894 10.8205 20.994 10.2695C21.1737 9.78598 21.595 9.26592 21.5774 8.83649C21.5596 8.40123 21.3827 8.25597 20.9851 7.74023C21.5618 7.92506 22.1126 8.11281 22.6543 8.40793C23.1099 8.65612 23.6217 9.18527 23.7975 9.82298C23.8617 9.50687 23.8321 9.32772 23.6885 9.00662C24.3562 9.65249 24.6782 10.473 24.7352 11.1284C24.7841 11.6907 24.7352 12.3121 24.2908 12.9917Z" fill="#D9D9D9"/>
<path d="M2.53537 12.9907C1.99089 12.3134 1.38873 12.5055 1.29758 11.7071C0.775373 12.3125 0.672436 12.9179 0.679824 13.4706C0.688102 14.0899 1.38074 14.921 2.08981 15.384C1.49493 15.384 0.849932 15.2545 0.286179 14.997C0.970315 15.7088 1.93087 16.1925 2.53537 16.3684C3.10591 16.5344 4.11552 16.7828 10.0869 16.7828L9.6579 15.7191C8.18969 14.9649 6.96398 13.1323 7.03789 11.6459C6.40555 11.8841 6.25583 12.1879 6.25583 12.7108C5.73215 12.2947 5.53505 11.7034 5.67466 11.0628C5.78451 10.5588 5.6993 9.68319 5.39545 9.26436C5.13805 8.90958 4.63646 8.20324 5.03411 7.6875C4.2959 7.92408 3.23626 9.06871 3.02866 9.82191C2.96449 9.50581 2.99409 9.32666 3.13766 9.00555C2.46996 9.65143 2.14802 10.4719 2.09099 11.1273C2.04207 11.6896 2.09099 12.311 2.53537 12.9907Z" fill="#D9D9D9"/>
<path d="M13.7109 0.810557C13.1773 0.895984 12.4525 1.8329 12.4525 1.8329L14.3193 1.8329C14.3193 1.8329 14.4339 1.87944 14.5964 1.95722C14.7318 2.02182 14.9004 2.10863 15.0638 2.20795C15.2796 2.33922 15.4864 2.49305 15.5946 2.64828C15.9399 3.14313 15.9858 3.78696 16.0299 4.40474C16.0384 4.52281 16.0467 4.63984 16.0571 4.75479C16.1066 5.30347 15.9969 6.40672 15.9969 6.40672C15.9969 6.40672 16.3989 5.83929 16.7098 5.7688C16.8475 5.73789 16.9797 5.80492 17.1134 5.87228C17.2247 5.92854 17.3372 5.98549 17.4547 5.98688C17.5568 5.98792 17.6896 5.96118 17.8209 5.92576C18.0741 5.85666 18.3203 5.75421 18.3203 5.75421C18.3203 5.75421 17.5361 2.83962 16.4841 1.86624C15.7582 1.19428 14.6875 0.653593 13.7109 0.810557Z" fill="#D9D9D9"/>
<path d="M14.3193 2.18816L12.4525 2.18815L12.4525 2.52882L12.6623 2.52882C12.6623 2.52882 12.5029 5.37535 12.2652 6.45083C12.2091 6.70364 12.0299 6.89289 11.8499 7.0825C11.7136 7.22627 11.5767 7.37038 11.4927 7.54332C11.3279 7.8819 11.1699 8.24896 11.1699 8.6254L11.1704 16.7823L15.6034 16.7819L15.6029 8.62505C15.6028 8.42364 15.5574 8.225 15.4901 8.03192C15.4316 7.86419 15.3565 7.70063 15.2798 7.54332C15.0848 7.14223 14.6058 6.89498 14.5073 6.45048C14.2693 5.37535 14.1097 2.52882 14.1097 2.52882L14.3193 2.52882L14.3193 2.18816Z" fill="#D9D9D9"/>
</svg>
